%TF.GenerationSoftware,KiCad,Pcbnew,9.0.4*%
%TF.CreationDate,2025-11-14T09:23:00+05:30*%
%TF.ProjectId,stm32f446re,73746d33-3266-4343-9436-72652e6b6963,rev?*%
%TF.SameCoordinates,Original*%
%TF.FileFunction,Copper,L3,Inr*%
%TF.FilePolarity,Positive*%
%FSLAX46Y46*%
G04 Gerber Fmt 4.6, Leading zero omitted, Abs format (unit mm)*
G04 Created by KiCad (PCBNEW 9.0.4) date 2025-11-14 09:23:00*
%MOMM*%
%LPD*%
G01*
G04 APERTURE LIST*
%TA.AperFunction,ComponentPad*%
%ADD10R,1.700000X1.700000*%
%TD*%
%TA.AperFunction,ComponentPad*%
%ADD11C,1.700000*%
%TD*%
%TA.AperFunction,HeatsinkPad*%
%ADD12O,1.000000X2.100000*%
%TD*%
%TA.AperFunction,HeatsinkPad*%
%ADD13O,1.000000X1.800000*%
%TD*%
%TA.AperFunction,ComponentPad*%
%ADD14C,4.000000*%
%TD*%
%TA.AperFunction,ComponentPad*%
%ADD15R,1.500000X1.500000*%
%TD*%
%TA.AperFunction,ComponentPad*%
%ADD16C,1.500000*%
%TD*%
%TA.AperFunction,ViaPad*%
%ADD17C,0.400000*%
%TD*%
%TA.AperFunction,ViaPad*%
%ADD18C,0.600000*%
%TD*%
%TA.AperFunction,Conductor*%
%ADD19C,0.500000*%
%TD*%
G04 APERTURE END LIST*
D10*
%TO.N,+3.3V*%
%TO.C,J3*%
X77990000Y-54400000D03*
D11*
%TO.N,/I2C1_SDA*%
X80530000Y-54400000D03*
%TO.N,/I2C1_SCL*%
X83070000Y-54400000D03*
%TO.N,GND*%
X85610000Y-54400000D03*
%TD*%
D10*
%TO.N,+3.3V*%
%TO.C,J5*%
X103700000Y-75980000D03*
D11*
%TO.N,/USART6_TX*%
X103700000Y-73440000D03*
%TO.N,/USART6_RX*%
X103700000Y-70900000D03*
%TO.N,GND*%
X103700000Y-68360000D03*
%TD*%
D10*
%TO.N,+3.3V*%
%TO.C,J4*%
X103625000Y-53720000D03*
D11*
X106165000Y-53720000D03*
%TO.N,/SPI3_CS1*%
X103625000Y-56260000D03*
%TO.N,/SPI3_MOSI*%
X106165000Y-56260000D03*
%TO.N,unconnected-(J4-Pin_5-Pad5)*%
X103625000Y-58800000D03*
%TO.N,/SPI3_MISO*%
X106165000Y-58800000D03*
%TO.N,unconnected-(J4-Pin_7-Pad7)*%
X103625000Y-61340000D03*
%TO.N,/SPI3_CLK*%
X106165000Y-61340000D03*
%TO.N,GND*%
X103625000Y-63880000D03*
X106165000Y-63880000D03*
%TD*%
D12*
%TO.N,unconnected-(J1-SHIELD-PadS1)*%
%TO.C,J1*%
X94280000Y-83385000D03*
D13*
%TO.N,unconnected-(J1-SHIELD-PadS1)_3*%
X94280000Y-87565000D03*
D12*
%TO.N,unconnected-(J1-SHIELD-PadS1)_1*%
X102920000Y-83385000D03*
D13*
%TO.N,unconnected-(J1-SHIELD-PadS1)_2*%
X102920000Y-87565000D03*
%TD*%
D14*
%TO.N,*%
%TO.C,U5*%
X114242500Y-49950000D03*
X114242500Y-84050000D03*
X175442500Y-49950000D03*
X175442500Y-84050000D03*
D15*
%TO.N,+3.3V*%
X112742500Y-56840000D03*
D16*
%TO.N,GND*%
X112742500Y-59380000D03*
%TO.N,/SPI3_CS2*%
X112742500Y-61920000D03*
%TO.N,/LCD_RESET*%
X112742500Y-64460000D03*
%TO.N,/LCD_DC*%
X112742500Y-67000000D03*
%TO.N,/SPI3_MOSI*%
X112742500Y-69540000D03*
%TO.N,/SPI3_CLK*%
X112742500Y-72080000D03*
%TO.N,/TIM1_CH1*%
X112742500Y-74620000D03*
%TO.N,/SPI3_MISO*%
X112742500Y-77160000D03*
%TO.N,unconnected-(U5-SD_CS-Pad10)*%
X176262500Y-61920000D03*
%TO.N,unconnected-(U5-SD_MOSI-Pad11)*%
X176262500Y-64460000D03*
%TO.N,unconnected-(U5-SD_MISO-Pad12)*%
X176262500Y-67000000D03*
%TO.N,unconnected-(U5-SD_SCK-Pad13)*%
X176262500Y-69540000D03*
%TO.N,unconnected-(U5-FLASH_CD-Pad14)*%
X176262500Y-72080000D03*
%TD*%
D10*
%TO.N,+3.3V*%
%TO.C,J2*%
X97720000Y-54100000D03*
D11*
%TO.N,/SWDIO*%
X95180000Y-54100000D03*
%TO.N,/SWCLK*%
X92640000Y-54100000D03*
%TO.N,GND*%
X90100000Y-54100000D03*
%TD*%
D17*
%TO.N,GND*%
X92400000Y-81500000D03*
X78900000Y-58700000D03*
X76700000Y-59000000D03*
X81500000Y-62600000D03*
X74100000Y-65300000D03*
X95800000Y-78600000D03*
X110000000Y-81900000D03*
X81000000Y-70200000D03*
X85600000Y-50700000D03*
X85500000Y-49200000D03*
X66200000Y-76000000D03*
X67600000Y-63900000D03*
X79500000Y-75800000D03*
X80800000Y-68200000D03*
X78600000Y-87000000D03*
X99600000Y-63900000D03*
X74200000Y-64500000D03*
X75100000Y-79500000D03*
X70100000Y-86700000D03*
X87500000Y-70100000D03*
X90700000Y-77000000D03*
X95900000Y-62700000D03*
X89100000Y-72700000D03*
X99800000Y-65700000D03*
X90300000Y-83800000D03*
X109600000Y-54400000D03*
X75400000Y-50300000D03*
X72500000Y-70900000D03*
X77000000Y-67600000D03*
D18*
X90100000Y-50700000D03*
D17*
X73700000Y-67200000D03*
X102500000Y-81300000D03*
X88000000Y-63200000D03*
X69100000Y-69600000D03*
X85120000Y-75090000D03*
X78000000Y-71700000D03*
%TO.N,+3.3V*%
X109900000Y-51000000D03*
X74500000Y-62100000D03*
X81600000Y-75900000D03*
X110600000Y-54400000D03*
X73000000Y-54500000D03*
X69000000Y-72300000D03*
X84000000Y-78400000D03*
X75400000Y-49300000D03*
X108200000Y-79700000D03*
X96200000Y-61600000D03*
X78100000Y-57000000D03*
X76300000Y-75300000D03*
X73000000Y-79600000D03*
X85600000Y-58100000D03*
X78900000Y-59500000D03*
X80500000Y-62600000D03*
X75000000Y-81300000D03*
X88120000Y-74500000D03*
X97700000Y-50900000D03*
X73800000Y-75200000D03*
%TO.N,VBUS*%
X89200000Y-83700000D03*
X88200000Y-83700000D03*
%TO.N,+5V*%
X94100000Y-78700000D03*
X87700000Y-78400000D03*
X100800000Y-81000000D03*
%TO.N,Net-(F1-Pad2)*%
X99900000Y-81400000D03*
X97100000Y-81500000D03*
D18*
%TO.N,/SWDIO*%
X91200000Y-63300000D03*
%TO.N,/SWCLK*%
X91200000Y-59650000D03*
%TO.N,/I2C1_SCL*%
X80300000Y-51800000D03*
%TO.N,/SPI3_CS1*%
X93300000Y-66300000D03*
%TO.N,/USART6_RX*%
X94800000Y-67700000D03*
%TO.N,/USART6_TX*%
X94600000Y-68500000D03*
%TO.N,/TIM1_CH1*%
X97300000Y-72700000D03*
%TO.N,/LCD_DC*%
X94600000Y-71200000D03*
%TO.N,/LCD_RESET*%
X94600000Y-70100000D03*
%TO.N,/SPI3_CS2*%
X91990380Y-66500000D03*
%TD*%
D19*
%TO.N,GND*%
X85610000Y-50510000D02*
X85600000Y-50500000D01*
X85610000Y-54400000D02*
X85610000Y-50510000D01*
%TD*%
%TA.AperFunction,Conductor*%
%TO.N,VBUS*%
G36*
X92464074Y-82519685D02*
G01*
X92509829Y-82572489D01*
X92520918Y-82618613D01*
X92526852Y-82755085D01*
X92529738Y-82791344D01*
X92531794Y-82809076D01*
X92537278Y-82845014D01*
X92566097Y-82929101D01*
X92583928Y-82981125D01*
X92615757Y-83043323D01*
X92677223Y-83130192D01*
X92699877Y-83196286D01*
X92700000Y-83201814D01*
X92700000Y-83944847D01*
X92684590Y-84001879D01*
X92684778Y-84001956D01*
X92684152Y-84003500D01*
X92683127Y-84007295D01*
X92681447Y-84010176D01*
X92627420Y-84143519D01*
X92627416Y-84143531D01*
X92610664Y-84211353D01*
X92610146Y-84215614D01*
X92610053Y-84217488D01*
X92596393Y-84354529D01*
X92694050Y-86600629D01*
X92699386Y-86654067D01*
X92700000Y-86666388D01*
X92700000Y-88275500D01*
X92680315Y-88342539D01*
X92627511Y-88388294D01*
X92576000Y-88399500D01*
X90189981Y-88399500D01*
X90185025Y-88399401D01*
X85325472Y-88205018D01*
X85259273Y-88182670D01*
X85215665Y-88128079D01*
X85206599Y-88074604D01*
X85420825Y-84004322D01*
X85427948Y-83868995D01*
X89599499Y-83868995D01*
X89626418Y-84004322D01*
X89626421Y-84004332D01*
X89679221Y-84131804D01*
X89679228Y-84131817D01*
X89755885Y-84246541D01*
X89755888Y-84246545D01*
X89853454Y-84344111D01*
X89853458Y-84344114D01*
X89968182Y-84420771D01*
X89968195Y-84420778D01*
X90095667Y-84473578D01*
X90095672Y-84473580D01*
X90095676Y-84473580D01*
X90095677Y-84473581D01*
X90231004Y-84500500D01*
X90231007Y-84500500D01*
X90368995Y-84500500D01*
X90460041Y-84482389D01*
X90504328Y-84473580D01*
X90631811Y-84420775D01*
X90746542Y-84344114D01*
X90844114Y-84246542D01*
X90920775Y-84131811D01*
X90973580Y-84004328D01*
X90996160Y-83890813D01*
X91000500Y-83868995D01*
X91000500Y-83731004D01*
X90973581Y-83595677D01*
X90973580Y-83595676D01*
X90973580Y-83595672D01*
X90928824Y-83487620D01*
X90920778Y-83468195D01*
X90920771Y-83468182D01*
X90844114Y-83353458D01*
X90844111Y-83353454D01*
X90746545Y-83255888D01*
X90746541Y-83255885D01*
X90631817Y-83179228D01*
X90631804Y-83179221D01*
X90504332Y-83126421D01*
X90504322Y-83126418D01*
X90368995Y-83099500D01*
X90368993Y-83099500D01*
X90231007Y-83099500D01*
X90231005Y-83099500D01*
X90095677Y-83126418D01*
X90095667Y-83126421D01*
X89968195Y-83179221D01*
X89968182Y-83179228D01*
X89853458Y-83255885D01*
X89853454Y-83255888D01*
X89755888Y-83353454D01*
X89755885Y-83353458D01*
X89679228Y-83468182D01*
X89679221Y-83468195D01*
X89626421Y-83595667D01*
X89626418Y-83595677D01*
X89599500Y-83731004D01*
X89599500Y-83731007D01*
X89599500Y-83868993D01*
X89599500Y-83868995D01*
X89599499Y-83868995D01*
X85427948Y-83868995D01*
X85435874Y-83718398D01*
X85493817Y-82617483D01*
X85516998Y-82551570D01*
X85572134Y-82508654D01*
X85617646Y-82500000D01*
X92397035Y-82500000D01*
X92464074Y-82519685D01*
G37*
%TD.AperFunction*%
%TD*%
%TA.AperFunction,Conductor*%
%TO.N,+5V*%
G36*
X100880932Y-75498677D02*
G01*
X100947748Y-75519105D01*
X100992914Y-75572414D01*
X101003500Y-75619024D01*
X101099999Y-78899999D01*
X101100000Y-78900000D01*
X107625757Y-78985865D01*
X107692532Y-79006430D01*
X107737588Y-79059831D01*
X107746621Y-79129114D01*
X107716762Y-79192283D01*
X107711808Y-79197535D01*
X107655885Y-79253458D01*
X107579228Y-79368182D01*
X107579221Y-79368195D01*
X107526421Y-79495667D01*
X107526418Y-79495677D01*
X107499500Y-79631004D01*
X107499500Y-79631007D01*
X107499500Y-79768993D01*
X107499500Y-79768995D01*
X107499499Y-79768995D01*
X107526418Y-79904322D01*
X107526421Y-79904332D01*
X107579221Y-80031804D01*
X107579228Y-80031817D01*
X107655885Y-80146541D01*
X107655888Y-80146545D01*
X107753454Y-80244111D01*
X107753458Y-80244114D01*
X107868182Y-80320771D01*
X107868195Y-80320778D01*
X107995667Y-80373578D01*
X107995672Y-80373580D01*
X107995676Y-80373580D01*
X107995677Y-80373581D01*
X108131004Y-80400500D01*
X108131007Y-80400500D01*
X108268995Y-80400500D01*
X108360041Y-80382389D01*
X108404328Y-80373580D01*
X108531811Y-80320775D01*
X108531825Y-80320765D01*
X108532578Y-80320364D01*
X108533033Y-80320269D01*
X108537440Y-80318444D01*
X108537785Y-80319279D01*
X108600980Y-80306116D01*
X108666226Y-80331110D01*
X108707602Y-80387411D01*
X108715035Y-80428412D01*
X108797623Y-88274195D01*
X108778645Y-88341438D01*
X108726326Y-88387746D01*
X108673630Y-88399500D01*
X104004768Y-88399500D01*
X103937729Y-88379815D01*
X103891974Y-88327011D01*
X103882030Y-88257853D01*
X103883151Y-88251309D01*
X103920499Y-88063545D01*
X103920500Y-88063543D01*
X103920500Y-87066456D01*
X103882052Y-86873170D01*
X103882051Y-86873169D01*
X103882051Y-86873165D01*
X103882049Y-86873160D01*
X103806635Y-86691092D01*
X103806628Y-86691079D01*
X103697139Y-86527218D01*
X103697136Y-86527214D01*
X103557785Y-86387863D01*
X103557781Y-86387860D01*
X103393920Y-86278371D01*
X103393907Y-86278364D01*
X103211839Y-86202950D01*
X103211829Y-86202947D01*
X103018543Y-86164500D01*
X103018541Y-86164500D01*
X102821459Y-86164500D01*
X102821457Y-86164500D01*
X102628170Y-86202947D01*
X102628160Y-86202950D01*
X102446092Y-86278364D01*
X102446079Y-86278371D01*
X102282218Y-86387860D01*
X102282214Y-86387863D01*
X102142863Y-86527214D01*
X102142860Y-86527218D01*
X102033371Y-86691079D01*
X102033364Y-86691092D01*
X101957950Y-86873160D01*
X101957947Y-86873170D01*
X101919500Y-87066456D01*
X101919500Y-88063545D01*
X101956849Y-88251309D01*
X101950622Y-88320900D01*
X101907759Y-88376078D01*
X101841869Y-88399322D01*
X101835232Y-88399500D01*
X95364768Y-88399500D01*
X95297729Y-88379815D01*
X95251974Y-88327011D01*
X95242030Y-88257853D01*
X95243151Y-88251309D01*
X95280499Y-88063545D01*
X95280500Y-88063543D01*
X95280500Y-87066456D01*
X95242052Y-86873170D01*
X95242051Y-86873169D01*
X95242051Y-86873165D01*
X95242049Y-86873160D01*
X95166635Y-86691092D01*
X95166628Y-86691079D01*
X95057139Y-86527218D01*
X95057136Y-86527214D01*
X94917785Y-86387863D01*
X94917781Y-86387860D01*
X94753920Y-86278371D01*
X94753907Y-86278364D01*
X94571839Y-86202950D01*
X94571829Y-86202947D01*
X94378543Y-86164500D01*
X94378541Y-86164500D01*
X94181459Y-86164500D01*
X94181457Y-86164500D01*
X93988170Y-86202947D01*
X93988160Y-86202950D01*
X93806092Y-86278364D01*
X93806079Y-86278371D01*
X93642218Y-86387860D01*
X93642214Y-86387863D01*
X93502863Y-86527214D01*
X93502860Y-86527218D01*
X93426057Y-86642162D01*
X93372445Y-86686967D01*
X93303120Y-86695674D01*
X93240092Y-86665519D01*
X93203373Y-86606076D01*
X93199072Y-86578657D01*
X93190777Y-86387863D01*
X93101416Y-84332572D01*
X93118170Y-84264742D01*
X93168937Y-84216737D01*
X93237598Y-84203798D01*
X93302354Y-84230035D01*
X93339860Y-84279734D01*
X93393366Y-84408911D01*
X93393371Y-84408920D01*
X93502860Y-84572781D01*
X93502863Y-84572785D01*
X93642214Y-84712136D01*
X93642218Y-84712139D01*
X93806079Y-84821628D01*
X93806092Y-84821635D01*
X93988160Y-84897049D01*
X93988165Y-84897051D01*
X93988169Y-84897051D01*
X93988170Y-84897052D01*
X94181456Y-84935500D01*
X94181459Y-84935500D01*
X94378543Y-84935500D01*
X94508582Y-84909632D01*
X94571835Y-84897051D01*
X94753914Y-84821632D01*
X94917782Y-84712139D01*
X95057139Y-84572782D01*
X95166632Y-84408914D01*
X95170540Y-84399478D01*
X95214376Y-84345074D01*
X95280669Y-84323004D01*
X95348369Y-84340279D01*
X95353028Y-84343432D01*
X95356633Y-84345513D01*
X95356635Y-84345515D01*
X95405245Y-84373580D01*
X95486988Y-84420775D01*
X95487865Y-84421281D01*
X95634234Y-84460500D01*
X95634236Y-84460500D01*
X95785764Y-84460500D01*
X95785766Y-84460500D01*
X95932135Y-84421281D01*
X96063365Y-84345515D01*
X96170515Y-84238365D01*
X96246281Y-84107135D01*
X96285500Y-83960766D01*
X96285500Y-83809234D01*
X100914500Y-83809234D01*
X100914500Y-83960765D01*
X100953719Y-84107136D01*
X100976471Y-84146542D01*
X101029485Y-84238365D01*
X101136635Y-84345515D01*
X101246433Y-84408907D01*
X101266988Y-84420775D01*
X101267865Y-84421281D01*
X101414234Y-84460500D01*
X101414236Y-84460500D01*
X101565764Y-84460500D01*
X101565766Y-84460500D01*
X101712135Y-84421281D01*
X101843365Y-84345515D01*
X101843366Y-84345513D01*
X101850403Y-84341451D01*
X101851749Y-84343783D01*
X101904553Y-84323357D01*
X101973001Y-84337381D01*
X102023001Y-84386185D01*
X102029458Y-84399474D01*
X102033367Y-84408913D01*
X102033371Y-84408920D01*
X102142860Y-84572781D01*
X102142863Y-84572785D01*
X102282214Y-84712136D01*
X102282218Y-84712139D01*
X102446079Y-84821628D01*
X102446092Y-84821635D01*
X102628160Y-84897049D01*
X102628165Y-84897051D01*
X102628169Y-84897051D01*
X102628170Y-84897052D01*
X102821456Y-84935500D01*
X102821459Y-84935500D01*
X103018543Y-84935500D01*
X103148582Y-84909632D01*
X103211835Y-84897051D01*
X103393914Y-84821632D01*
X103557782Y-84712139D01*
X103697139Y-84572782D01*
X103806632Y-84408914D01*
X103882051Y-84226835D01*
X103894632Y-84163582D01*
X103920500Y-84033543D01*
X103920500Y-82736456D01*
X103882052Y-82543170D01*
X103882051Y-82543169D01*
X103882051Y-82543165D01*
X103882049Y-82543160D01*
X103806635Y-82361092D01*
X103806628Y-82361079D01*
X103697139Y-82197218D01*
X103697136Y-82197214D01*
X103557785Y-82057863D01*
X103557781Y-82057860D01*
X103393920Y-81948371D01*
X103393907Y-81948364D01*
X103211839Y-81872950D01*
X103211830Y-81872947D01*
X103171248Y-81864875D01*
X103109338Y-81832489D01*
X103074764Y-81771773D01*
X103078505Y-81702004D01*
X103092336Y-81674372D01*
X103120775Y-81631811D01*
X103173580Y-81504328D01*
X103200500Y-81368993D01*
X103200500Y-81231007D01*
X103200500Y-81231004D01*
X103173581Y-81095677D01*
X103173580Y-81095676D01*
X103173580Y-81095672D01*
X103162193Y-81068182D01*
X103120778Y-80968195D01*
X103120771Y-80968182D01*
X103044114Y-80853458D01*
X103044111Y-80853454D01*
X102946545Y-80755888D01*
X102946541Y-80755885D01*
X102831817Y-80679228D01*
X102831804Y-80679221D01*
X102704332Y-80626421D01*
X102704322Y-80626418D01*
X102568995Y-80599500D01*
X102568993Y-80599500D01*
X102431007Y-80599500D01*
X102431005Y-80599500D01*
X102295677Y-80626418D01*
X102295667Y-80626421D01*
X102168195Y-80679221D01*
X102168182Y-80679228D01*
X102053458Y-80755885D01*
X102053454Y-80755888D01*
X101955888Y-80853454D01*
X101955885Y-80853458D01*
X101879228Y-80968182D01*
X101879221Y-80968195D01*
X101826421Y-81095667D01*
X101826418Y-81095677D01*
X101799500Y-81231004D01*
X101799500Y-81231007D01*
X101799500Y-81368993D01*
X101799500Y-81368995D01*
X101799499Y-81368995D01*
X101826418Y-81504322D01*
X101826421Y-81504332D01*
X101879221Y-81631804D01*
X101879228Y-81631817D01*
X101955885Y-81746541D01*
X101955888Y-81746545D01*
X102053454Y-81844111D01*
X102053458Y-81844114D01*
X102168182Y-81920771D01*
X102168187Y-81920774D01*
X102168188Y-81920774D01*
X102168189Y-81920775D01*
X102174295Y-81923304D01*
X102228700Y-81967141D01*
X102250769Y-82033433D01*
X102233494Y-82101134D01*
X102214530Y-82125548D01*
X102142860Y-82197218D01*
X102033371Y-82361079D01*
X102033364Y-82361092D01*
X101957950Y-82543160D01*
X101957947Y-82543170D01*
X101919500Y-82736456D01*
X101919500Y-83253666D01*
X101899815Y-83320705D01*
X101847011Y-83366460D01*
X101777853Y-83376404D01*
X101733501Y-83361054D01*
X101712137Y-83348719D01*
X101606670Y-83320460D01*
X101565766Y-83309500D01*
X101414234Y-83309500D01*
X101267863Y-83348719D01*
X101136635Y-83424485D01*
X101136632Y-83424487D01*
X101029487Y-83531632D01*
X101029485Y-83531635D01*
X100953719Y-83662863D01*
X100914500Y-83809234D01*
X96285500Y-83809234D01*
X96246281Y-83662865D01*
X96170515Y-83531635D01*
X96063365Y-83424485D01*
X95965858Y-83368189D01*
X95932136Y-83348719D01*
X95827584Y-83320705D01*
X95785766Y-83309500D01*
X95634234Y-83309500D01*
X95487862Y-83348719D01*
X95466499Y-83361054D01*
X95398598Y-83377525D01*
X95332572Y-83354673D01*
X95289382Y-83299751D01*
X95280500Y-83253666D01*
X95280500Y-82736456D01*
X95242052Y-82543170D01*
X95242051Y-82543169D01*
X95242051Y-82543165D01*
X95242049Y-82543160D01*
X95166635Y-82361092D01*
X95166628Y-82361079D01*
X95057139Y-82197218D01*
X95057136Y-82197214D01*
X94917785Y-82057863D01*
X94917781Y-82057860D01*
X94753920Y-81948371D01*
X94753907Y-81948364D01*
X94571839Y-81872950D01*
X94571829Y-81872947D01*
X94378543Y-81834500D01*
X94378541Y-81834500D01*
X94181459Y-81834500D01*
X94181457Y-81834500D01*
X93988170Y-81872947D01*
X93988160Y-81872950D01*
X93806092Y-81948364D01*
X93806079Y-81948371D01*
X93642218Y-82057860D01*
X93642214Y-82057863D01*
X93502863Y-82197214D01*
X93502860Y-82197218D01*
X93393371Y-82361079D01*
X93393364Y-82361092D01*
X93317950Y-82543160D01*
X93317947Y-82543170D01*
X93279498Y-82736463D01*
X93279160Y-82739900D01*
X93278480Y-82741583D01*
X93278311Y-82742434D01*
X93278149Y-82742401D01*
X93252997Y-82804687D01*
X93195962Y-82845044D01*
X93126161Y-82848158D01*
X93065758Y-82813041D01*
X93033929Y-82750843D01*
X93031875Y-82733128D01*
X93023616Y-82543170D01*
X93000000Y-82000000D01*
X92999999Y-81999999D01*
X92999305Y-81984026D01*
X92984106Y-81957048D01*
X92988165Y-81887296D01*
X93001809Y-81860194D01*
X93020775Y-81831811D01*
X93073580Y-81704328D01*
X93082389Y-81660041D01*
X93100500Y-81568995D01*
X96399499Y-81568995D01*
X96426418Y-81704322D01*
X96426421Y-81704332D01*
X96479221Y-81831804D01*
X96479228Y-81831817D01*
X96555885Y-81946541D01*
X96555888Y-81946545D01*
X96653454Y-82044111D01*
X96653458Y-82044114D01*
X96768182Y-82120771D01*
X96768195Y-82120778D01*
X96895667Y-82173578D01*
X96895672Y-82173580D01*
X96895676Y-82173580D01*
X96895677Y-82173581D01*
X97031004Y-82200500D01*
X97031007Y-82200500D01*
X97168995Y-82200500D01*
X97260041Y-82182389D01*
X97304328Y-82173580D01*
X97431811Y-82120775D01*
X97546542Y-82044114D01*
X97644114Y-81946542D01*
X97720775Y-81831811D01*
X97773580Y-81704328D01*
X97782389Y-81660041D01*
X97800500Y-81568995D01*
X97800500Y-81468995D01*
X99199499Y-81468995D01*
X99226418Y-81604322D01*
X99226421Y-81604332D01*
X99279221Y-81731804D01*
X99279228Y-81731817D01*
X99355885Y-81846541D01*
X99355888Y-81846545D01*
X99453454Y-81944111D01*
X99453458Y-81944114D01*
X99568182Y-82020771D01*
X99568195Y-82020778D01*
X99695667Y-82073578D01*
X99695672Y-82073580D01*
X99695676Y-82073580D01*
X99695677Y-82073581D01*
X99831004Y-82100500D01*
X99831007Y-82100500D01*
X99968995Y-82100500D01*
X100060041Y-82082389D01*
X100104328Y-82073580D01*
X100231811Y-82020775D01*
X100346542Y-81944114D01*
X100444114Y-81846542D01*
X100520775Y-81731811D01*
X100573580Y-81604328D01*
X100593471Y-81504332D01*
X100600500Y-81468995D01*
X100600500Y-81331004D01*
X100573581Y-81195677D01*
X100573580Y-81195676D01*
X100573580Y-81195672D01*
X100532157Y-81095667D01*
X100520778Y-81068195D01*
X100520771Y-81068182D01*
X100444114Y-80953458D01*
X100444111Y-80953454D01*
X100346545Y-80855888D01*
X100346541Y-80855885D01*
X100231817Y-80779228D01*
X100231804Y-80779221D01*
X100104332Y-80726421D01*
X100104322Y-80726418D01*
X99968995Y-80699500D01*
X99968993Y-80699500D01*
X99831007Y-80699500D01*
X99831005Y-80699500D01*
X99695677Y-80726418D01*
X99695667Y-80726421D01*
X99568195Y-80779221D01*
X99568182Y-80779228D01*
X99453458Y-80855885D01*
X99453454Y-80855888D01*
X99355888Y-80953454D01*
X99355885Y-80953458D01*
X99279228Y-81068182D01*
X99279221Y-81068195D01*
X99226421Y-81195667D01*
X99226418Y-81195677D01*
X99199500Y-81331004D01*
X99199500Y-81331007D01*
X99199500Y-81468993D01*
X99199500Y-81468995D01*
X99199499Y-81468995D01*
X97800500Y-81468995D01*
X97800500Y-81431004D01*
X97784209Y-81349107D01*
X97784209Y-81349106D01*
X97773581Y-81295679D01*
X97773581Y-81295677D01*
X97773580Y-81295672D01*
X97732157Y-81195667D01*
X97720778Y-81168195D01*
X97720771Y-81168182D01*
X97644114Y-81053458D01*
X97644111Y-81053454D01*
X97546545Y-80955888D01*
X97546541Y-80955885D01*
X97431817Y-80879228D01*
X97431804Y-80879221D01*
X97304332Y-80826421D01*
X97304322Y-80826418D01*
X97168995Y-80799500D01*
X97168993Y-80799500D01*
X97031007Y-80799500D01*
X97031005Y-80799500D01*
X96895677Y-80826418D01*
X96895667Y-80826421D01*
X96768195Y-80879221D01*
X96768182Y-80879228D01*
X96653458Y-80955885D01*
X96653454Y-80955888D01*
X96555888Y-81053454D01*
X96555885Y-81053458D01*
X96479228Y-81168182D01*
X96479221Y-81168195D01*
X96426421Y-81295667D01*
X96426418Y-81295677D01*
X96399500Y-81431004D01*
X96399500Y-81431007D01*
X96399500Y-81568993D01*
X96399500Y-81568995D01*
X96399499Y-81568995D01*
X93100500Y-81568995D01*
X93100500Y-81431004D01*
X93073581Y-81295677D01*
X93073580Y-81295676D01*
X93073580Y-81295672D01*
X93032157Y-81195667D01*
X93020778Y-81168195D01*
X93020771Y-81168182D01*
X92944114Y-81053458D01*
X92944111Y-81053454D01*
X92846545Y-80955888D01*
X92846541Y-80955885D01*
X92731817Y-80879228D01*
X92731804Y-80879221D01*
X92604332Y-80826421D01*
X92604322Y-80826418D01*
X92468995Y-80799500D01*
X92468993Y-80799500D01*
X92331007Y-80799500D01*
X92331005Y-80799500D01*
X92195677Y-80826418D01*
X92195667Y-80826421D01*
X92068195Y-80879221D01*
X92068182Y-80879228D01*
X91953458Y-80955885D01*
X91953454Y-80955888D01*
X91855888Y-81053454D01*
X91855885Y-81053458D01*
X91779228Y-81168182D01*
X91779221Y-81168195D01*
X91726421Y-81295667D01*
X91726418Y-81295677D01*
X91699500Y-81431004D01*
X91699500Y-81431007D01*
X91699500Y-81568993D01*
X91699500Y-81568995D01*
X91699499Y-81568995D01*
X91726418Y-81704322D01*
X91726421Y-81704332D01*
X91768414Y-81805713D01*
X91775883Y-81875182D01*
X91744607Y-81937661D01*
X91684518Y-81973313D01*
X91651752Y-81977147D01*
X87216599Y-81901976D01*
X87149902Y-81881158D01*
X87105049Y-81827587D01*
X87094822Y-81783500D01*
X87093179Y-81746541D01*
X86956399Y-78668995D01*
X95099499Y-78668995D01*
X95126418Y-78804322D01*
X95126421Y-78804332D01*
X95179221Y-78931804D01*
X95179228Y-78931817D01*
X95255885Y-79046541D01*
X95255888Y-79046545D01*
X95353454Y-79144111D01*
X95353458Y-79144114D01*
X95468182Y-79220771D01*
X95468195Y-79220778D01*
X95595667Y-79273578D01*
X95595672Y-79273580D01*
X95595676Y-79273580D01*
X95595677Y-79273581D01*
X95731004Y-79300500D01*
X95731007Y-79300500D01*
X95868995Y-79300500D01*
X95960041Y-79282389D01*
X96004328Y-79273580D01*
X96131811Y-79220775D01*
X96246542Y-79144114D01*
X96344114Y-79046542D01*
X96420775Y-78931811D01*
X96473580Y-78804328D01*
X96500500Y-78668993D01*
X96500500Y-78531007D01*
X96500500Y-78531004D01*
X96473581Y-78395677D01*
X96473580Y-78395676D01*
X96473580Y-78395672D01*
X96473578Y-78395667D01*
X96420778Y-78268195D01*
X96420771Y-78268182D01*
X96344114Y-78153458D01*
X96344111Y-78153454D01*
X96246545Y-78055888D01*
X96246541Y-78055885D01*
X96131817Y-77979228D01*
X96131804Y-77979221D01*
X96004332Y-77926421D01*
X96004322Y-77926418D01*
X95868995Y-77899500D01*
X95868993Y-77899500D01*
X95731007Y-77899500D01*
X95731005Y-77899500D01*
X95595677Y-77926418D01*
X95595667Y-77926421D01*
X95468195Y-77979221D01*
X95468182Y-77979228D01*
X95353458Y-78055885D01*
X95353454Y-78055888D01*
X95255888Y-78153454D01*
X95255885Y-78153458D01*
X95179228Y-78268182D01*
X95179221Y-78268195D01*
X95126421Y-78395667D01*
X95126418Y-78395677D01*
X95099500Y-78531004D01*
X95099500Y-78531007D01*
X95099500Y-78668993D01*
X95099500Y-78668995D01*
X95099499Y-78668995D01*
X86956399Y-78668995D01*
X86906167Y-77538766D01*
X86922856Y-77470920D01*
X86973576Y-77422866D01*
X87038572Y-77409556D01*
X89800000Y-77600000D01*
X89967967Y-77432032D01*
X90029286Y-77398550D01*
X90098978Y-77403534D01*
X90151125Y-77442570D01*
X90152022Y-77441834D01*
X90155888Y-77446545D01*
X90253454Y-77544111D01*
X90253458Y-77544114D01*
X90368182Y-77620771D01*
X90368195Y-77620778D01*
X90495667Y-77673578D01*
X90495672Y-77673580D01*
X90495676Y-77673580D01*
X90495677Y-77673581D01*
X90631004Y-77700500D01*
X90631007Y-77700500D01*
X90768995Y-77700500D01*
X90860041Y-77682389D01*
X90904328Y-77673580D01*
X91031811Y-77620775D01*
X91146542Y-77544114D01*
X91244114Y-77446542D01*
X91320775Y-77331811D01*
X91321319Y-77330499D01*
X91332740Y-77302924D01*
X91373580Y-77204328D01*
X91400500Y-77068993D01*
X91400500Y-76931007D01*
X91400500Y-76931004D01*
X91373581Y-76795677D01*
X91373580Y-76795676D01*
X91373580Y-76795672D01*
X91373578Y-76795667D01*
X91320778Y-76668195D01*
X91320771Y-76668182D01*
X91244114Y-76553458D01*
X91244111Y-76553454D01*
X91146545Y-76455888D01*
X91141834Y-76452022D01*
X91143506Y-76449984D01*
X91106027Y-76405153D01*
X91097308Y-76335830D01*
X91127453Y-76272798D01*
X91131997Y-76268002D01*
X91963111Y-75436888D01*
X92024432Y-75403405D01*
X92052162Y-75400579D01*
X100880932Y-75498677D01*
G37*
%TD.AperFunction*%
%TD*%
%TA.AperFunction,Conductor*%
%TO.N,+3.3V*%
G36*
X105699075Y-53912993D02*
G01*
X105764901Y-54027007D01*
X105857993Y-54120099D01*
X105972007Y-54185925D01*
X106035590Y-54202962D01*
X105403282Y-54835269D01*
X105403282Y-54835270D01*
X105457452Y-54874626D01*
X105457451Y-54874626D01*
X105466495Y-54879234D01*
X105517292Y-54927208D01*
X105534087Y-54995029D01*
X105511550Y-55061164D01*
X105466499Y-55100202D01*
X105457182Y-55104949D01*
X105285213Y-55229890D01*
X105134890Y-55380213D01*
X105009949Y-55552182D01*
X105005484Y-55560946D01*
X104957509Y-55611742D01*
X104889688Y-55628536D01*
X104823553Y-55605998D01*
X104784516Y-55560946D01*
X104780050Y-55552182D01*
X104655109Y-55380213D01*
X104541181Y-55266285D01*
X104507696Y-55204962D01*
X104512680Y-55135270D01*
X104554552Y-55079337D01*
X104585529Y-55062422D01*
X104717086Y-55013354D01*
X104717093Y-55013350D01*
X104832187Y-54927190D01*
X104832190Y-54927187D01*
X104918350Y-54812093D01*
X104918354Y-54812086D01*
X104968598Y-54677375D01*
X104977501Y-54594556D01*
X104980550Y-54594883D01*
X104979642Y-54577984D01*
X105012642Y-54518802D01*
X105682037Y-53849408D01*
X105699075Y-53912993D01*
G37*
%TD.AperFunction*%
%TA.AperFunction,Conductor*%
G36*
X179275611Y-44599954D02*
G01*
X179342630Y-44619697D01*
X179388339Y-44672541D01*
X179399500Y-44723954D01*
X179399500Y-88275500D01*
X179379815Y-88342539D01*
X179327011Y-88388294D01*
X179275500Y-88399500D01*
X109812930Y-88399500D01*
X109745891Y-88379815D01*
X109700136Y-88327011D01*
X109689085Y-88281692D01*
X109538072Y-85261442D01*
X109470478Y-83909568D01*
X111742000Y-83909568D01*
X111742000Y-84190431D01*
X111773442Y-84469494D01*
X111773445Y-84469512D01*
X111835939Y-84743317D01*
X111835943Y-84743329D01*
X111928700Y-85008411D01*
X112050553Y-85261442D01*
X112050555Y-85261445D01*
X112199977Y-85499248D01*
X112375084Y-85718825D01*
X112573675Y-85917416D01*
X112793252Y-86092523D01*
X113031055Y-86241945D01*
X113284092Y-86363801D01*
X113483180Y-86433465D01*
X113549170Y-86456556D01*
X113549182Y-86456560D01*
X113822991Y-86519055D01*
X113822997Y-86519055D01*
X113823005Y-86519057D01*
X114009047Y-86540018D01*
X114102069Y-86550499D01*
X114102072Y-86550500D01*
X114102075Y-86550500D01*
X114382928Y-86550500D01*
X114382929Y-86550499D01*
X114525555Y-86534429D01*
X114661994Y-86519057D01*
X114661999Y-86519056D01*
X114662009Y-86519055D01*
X114935818Y-86456560D01*
X115200908Y-86363801D01*
X115453945Y-86241945D01*
X115691748Y-86092523D01*
X115911325Y-85917416D01*
X116109916Y-85718825D01*
X116285023Y-85499248D01*
X116434445Y-85261445D01*
X116556301Y-85008408D01*
X116649060Y-84743318D01*
X116711555Y-84469509D01*
X116743000Y-84190425D01*
X116743000Y-83909575D01*
X116742999Y-83909568D01*
X172942000Y-83909568D01*
X172942000Y-84190431D01*
X172973442Y-84469494D01*
X172973445Y-84469512D01*
X173035939Y-84743317D01*
X173035943Y-84743329D01*
X173128700Y-85008411D01*
X173250553Y-85261442D01*
X173250555Y-85261445D01*
X173399977Y-85499248D01*
X173575084Y-85718825D01*
X173773675Y-85917416D01*
X173993252Y-86092523D01*
X174231055Y-86241945D01*
X174484092Y-86363801D01*
X174683180Y-86433465D01*
X174749170Y-86456556D01*
X174749182Y-86456560D01*
X175022991Y-86519055D01*
X175022997Y-86519055D01*
X175023005Y-86519057D01*
X175209047Y-86540018D01*
X175302069Y-86550499D01*
X175302072Y-86550500D01*
X175302075Y-86550500D01*
X175582928Y-86550500D01*
X175582929Y-86550499D01*
X175725555Y-86534429D01*
X175861994Y-86519057D01*
X175861999Y-86519056D01*
X175862009Y-86519055D01*
X176135818Y-86456560D01*
X176400908Y-86363801D01*
X176653945Y-86241945D01*
X176891748Y-86092523D01*
X177111325Y-85917416D01*
X177309916Y-85718825D01*
X177485023Y-85499248D01*
X177634445Y-85261445D01*
X177756301Y-85008408D01*
X177849060Y-84743318D01*
X177911555Y-84469509D01*
X177943000Y-84190425D01*
X177943000Y-83909575D01*
X177911555Y-83630491D01*
X177849060Y-83356682D01*
X177842688Y-83338473D01*
X177774808Y-83144482D01*
X177756301Y-83091592D01*
X177634445Y-82838555D01*
X177485023Y-82600752D01*
X177309916Y-82381175D01*
X177111325Y-82182584D01*
X176891748Y-82007477D01*
X176653945Y-81858055D01*
X176653942Y-81858053D01*
X176400911Y-81736200D01*
X176135829Y-81643443D01*
X176135817Y-81643439D01*
X175862012Y-81580945D01*
X175861994Y-81580942D01*
X175582931Y-81549500D01*
X175582925Y-81549500D01*
X175302075Y-81549500D01*
X175302068Y-81549500D01*
X175023005Y-81580942D01*
X175022987Y-81580945D01*
X174749182Y-81643439D01*
X174749170Y-81643443D01*
X174484088Y-81736200D01*
X174231057Y-81858053D01*
X173993253Y-82007476D01*
X173773675Y-82182583D01*
X173575083Y-82381175D01*
X173399976Y-82600753D01*
X173250553Y-82838557D01*
X173128700Y-83091588D01*
X173035943Y-83356670D01*
X173035939Y-83356682D01*
X172973445Y-83630487D01*
X172973442Y-83630505D01*
X172942000Y-83909568D01*
X116742999Y-83909568D01*
X116711555Y-83630491D01*
X116649060Y-83356682D01*
X116642688Y-83338473D01*
X116574808Y-83144482D01*
X116556301Y-83091592D01*
X116434445Y-82838555D01*
X116285023Y-82600752D01*
X116109916Y-82381175D01*
X115911325Y-82182584D01*
X115691748Y-82007477D01*
X115453945Y-81858055D01*
X115453942Y-81858053D01*
X115200911Y-81736200D01*
X114935829Y-81643443D01*
X114935817Y-81643439D01*
X114662012Y-81580945D01*
X114661994Y-81580942D01*
X114382931Y-81549500D01*
X114382925Y-81549500D01*
X114102075Y-81549500D01*
X114102068Y-81549500D01*
X113823005Y-81580942D01*
X113822987Y-81580945D01*
X113549182Y-81643439D01*
X113549170Y-81643443D01*
X113284088Y-81736200D01*
X113031057Y-81858053D01*
X112793253Y-82007476D01*
X112573675Y-82182583D01*
X112375083Y-82381175D01*
X112199976Y-82600753D01*
X112050553Y-82838557D01*
X111928700Y-83091588D01*
X111835943Y-83356670D01*
X111835939Y-83356682D01*
X111773445Y-83630487D01*
X111773442Y-83630505D01*
X111742000Y-83909568D01*
X109470478Y-83909568D01*
X109404120Y-82582404D01*
X109420432Y-82514467D01*
X109470885Y-82466133D01*
X109539461Y-82452748D01*
X109596856Y-82473112D01*
X109668182Y-82520771D01*
X109668195Y-82520778D01*
X109795667Y-82573578D01*
X109795672Y-82573580D01*
X109795676Y-82573580D01*
X109795677Y-82573581D01*
X109931004Y-82600500D01*
X109931007Y-82600500D01*
X110068995Y-82600500D01*
X110160041Y-82582389D01*
X110204328Y-82573580D01*
X110331811Y-82520775D01*
X110446542Y-82444114D01*
X110544114Y-82346542D01*
X110620775Y-82231811D01*
X110673580Y-82104328D01*
X110682389Y-82060041D01*
X110700500Y-81968995D01*
X110700500Y-81831004D01*
X110673581Y-81695677D01*
X110673580Y-81695676D01*
X110673580Y-81695672D01*
X110651945Y-81643440D01*
X110620778Y-81568195D01*
X110620771Y-81568182D01*
X110544114Y-81453458D01*
X110544111Y-81453454D01*
X110446545Y-81355888D01*
X110446541Y-81355885D01*
X110331817Y-81279228D01*
X110331804Y-81279221D01*
X110204332Y-81226421D01*
X110204322Y-81226418D01*
X110068995Y-81199500D01*
X110068993Y-81199500D01*
X109931007Y-81199500D01*
X109931005Y-81199500D01*
X109795677Y-81226418D01*
X109795667Y-81226421D01*
X109668195Y-81279221D01*
X109668182Y-81279228D01*
X109553458Y-81355885D01*
X109553450Y-81355891D01*
X109550392Y-81358950D01*
X109489067Y-81392431D01*
X109419376Y-81387442D01*
X109363445Y-81345567D01*
X109339032Y-81280101D01*
X109338876Y-81277526D01*
X109200000Y-78500000D01*
X109200000Y-78499999D01*
X101918777Y-78401605D01*
X101852010Y-78381016D01*
X101806973Y-78327599D01*
X101796507Y-78281264D01*
X101700000Y-75000000D01*
X101700000Y-74999999D01*
X91700001Y-74799999D01*
X91699999Y-74800000D01*
X90657252Y-75952511D01*
X89970750Y-76711277D01*
X89836921Y-76859193D01*
X89777347Y-76895699D01*
X89744971Y-76900000D01*
X86300000Y-76900000D01*
X86300000Y-81776000D01*
X86280315Y-81843039D01*
X86227511Y-81888794D01*
X86176000Y-81900000D01*
X85000000Y-81900000D01*
X84985595Y-82346545D01*
X84959854Y-83144482D01*
X84959747Y-83147001D01*
X84926391Y-83780794D01*
X84926391Y-83780795D01*
X84923147Y-83842426D01*
X84704826Y-87990500D01*
X84681645Y-88056413D01*
X84626509Y-88099329D01*
X84585562Y-88107899D01*
X76672994Y-88399416D01*
X76668429Y-88399500D01*
X65924500Y-88399500D01*
X65857461Y-88379815D01*
X65811706Y-88327011D01*
X65800500Y-88275500D01*
X65800500Y-86768995D01*
X69399499Y-86768995D01*
X69426418Y-86904322D01*
X69426421Y-86904332D01*
X69479221Y-87031804D01*
X69479228Y-87031817D01*
X69555885Y-87146541D01*
X69555888Y-87146545D01*
X69653454Y-87244111D01*
X69653458Y-87244114D01*
X69768182Y-87320771D01*
X69768195Y-87320778D01*
X69895667Y-87373578D01*
X69895672Y-87373580D01*
X69895676Y-87373580D01*
X69895677Y-87373581D01*
X70031004Y-87400500D01*
X70031007Y-87400500D01*
X70168995Y-87400500D01*
X70260041Y-87382389D01*
X70304328Y-87373580D01*
X70431811Y-87320775D01*
X70546542Y-87244114D01*
X70644114Y-87146542D01*
X70695929Y-87068995D01*
X77899499Y-87068995D01*
X77926418Y-87204322D01*
X77926421Y-87204332D01*
X77979221Y-87331804D01*
X77979228Y-87331817D01*
X78055885Y-87446541D01*
X78055888Y-87446545D01*
X78153454Y-87544111D01*
X78153458Y-87544114D01*
X78268182Y-87620771D01*
X78268195Y-87620778D01*
X78395667Y-87673578D01*
X78395672Y-87673580D01*
X78395676Y-87673580D01*
X78395677Y-87673581D01*
X78531004Y-87700500D01*
X78531007Y-87700500D01*
X78668995Y-87700500D01*
X78760041Y-87682389D01*
X78804328Y-87673580D01*
X78931811Y-87620775D01*
X79046542Y-87544114D01*
X79144114Y-87446542D01*
X79220775Y-87331811D01*
X79273580Y-87204328D01*
X79300500Y-87068993D01*
X79300500Y-86931007D01*
X79300500Y-86931004D01*
X79273581Y-86795677D01*
X79273580Y-86795676D01*
X79273580Y-86795672D01*
X79262529Y-86768993D01*
X79220778Y-86668195D01*
X79220771Y-86668182D01*
X79144114Y-86553458D01*
X79144111Y-86553454D01*
X79046545Y-86455888D01*
X79046541Y-86455885D01*
X78931817Y-86379228D01*
X78931804Y-86379221D01*
X78804332Y-86326421D01*
X78804322Y-86326418D01*
X78668995Y-86299500D01*
X78668993Y-86299500D01*
X78531007Y-86299500D01*
X78531005Y-86299500D01*
X78395677Y-86326418D01*
X78395667Y-86326421D01*
X78268195Y-86379221D01*
X78268182Y-86379228D01*
X78153458Y-86455885D01*
X78153454Y-86455888D01*
X78055888Y-86553454D01*
X78055885Y-86553458D01*
X77979228Y-86668182D01*
X77979221Y-86668195D01*
X77926421Y-86795667D01*
X77926418Y-86795677D01*
X77899500Y-86931004D01*
X77899500Y-86931007D01*
X77899500Y-87068993D01*
X77899500Y-87068995D01*
X77899499Y-87068995D01*
X70695929Y-87068995D01*
X70720775Y-87031811D01*
X70773580Y-86904328D01*
X70800500Y-86768993D01*
X70800500Y-86631007D01*
X70800500Y-86631004D01*
X70773581Y-86495677D01*
X70773580Y-86495676D01*
X70773580Y-86495672D01*
X70773578Y-86495667D01*
X70720778Y-86368195D01*
X70720771Y-86368182D01*
X70644114Y-86253458D01*
X70644111Y-86253454D01*
X70546545Y-86155888D01*
X70546541Y-86155885D01*
X70431817Y-86079228D01*
X70431804Y-86079221D01*
X70304332Y-86026421D01*
X70304322Y-86026418D01*
X70168995Y-85999500D01*
X70168993Y-85999500D01*
X70031007Y-85999500D01*
X70031005Y-85999500D01*
X69895677Y-86026418D01*
X69895667Y-86026421D01*
X69768195Y-86079221D01*
X69768182Y-86079228D01*
X69653458Y-86155885D01*
X69653454Y-86155888D01*
X69555888Y-86253454D01*
X69555885Y-86253458D01*
X69479228Y-86368182D01*
X69479221Y-86368195D01*
X69426421Y-86495667D01*
X69426418Y-86495677D01*
X69399500Y-86631004D01*
X69399500Y-86631007D01*
X69399500Y-86768993D01*
X69399500Y-86768995D01*
X69399499Y-86768995D01*
X65800500Y-86768995D01*
X65800500Y-79568995D01*
X74399499Y-79568995D01*
X74426418Y-79704322D01*
X74426421Y-79704332D01*
X74479221Y-79831804D01*
X74479228Y-79831817D01*
X74555885Y-79946541D01*
X74555888Y-79946545D01*
X74653454Y-80044111D01*
X74653458Y-80044114D01*
X74768182Y-80120771D01*
X74768195Y-80120778D01*
X74895667Y-80173578D01*
X74895672Y-80173580D01*
X74895676Y-80173580D01*
X74895677Y-80173581D01*
X75031004Y-80200500D01*
X75031007Y-80200500D01*
X75168995Y-80200500D01*
X75260041Y-80182389D01*
X75304328Y-80173580D01*
X75431811Y-80120775D01*
X75546542Y-80044114D01*
X75644114Y-79946542D01*
X75720775Y-79831811D01*
X75773580Y-79704328D01*
X75800500Y-79568993D01*
X75800500Y-79431007D01*
X75800500Y-79431004D01*
X75773581Y-79295677D01*
X75773580Y-79295676D01*
X75773580Y-79295672D01*
X75737112Y-79207629D01*
X75720778Y-79168195D01*
X75720771Y-79168182D01*
X75644114Y-79053458D01*
X75644111Y-79053454D01*
X75546545Y-78955888D01*
X75546541Y-78955885D01*
X75431817Y-78879228D01*
X75431804Y-78879221D01*
X75304332Y-78826421D01*
X75304322Y-78826418D01*
X75168995Y-78799500D01*
X75168993Y-78799500D01*
X75031007Y-78799500D01*
X75031005Y-78799500D01*
X74895677Y-78826418D01*
X74895667Y-78826421D01*
X74768195Y-78879221D01*
X74768182Y-78879228D01*
X74653458Y-78955885D01*
X74653454Y-78955888D01*
X74555888Y-79053454D01*
X74555885Y-79053458D01*
X74479228Y-79168182D01*
X74479221Y-79168195D01*
X74426421Y-79295667D01*
X74426418Y-79295677D01*
X74399500Y-79431004D01*
X74399500Y-79431007D01*
X74399500Y-79568993D01*
X74399500Y-79568995D01*
X74399499Y-79568995D01*
X65800500Y-79568995D01*
X65800500Y-76778316D01*
X65820185Y-76711277D01*
X65872989Y-76665522D01*
X65942147Y-76655578D01*
X65971950Y-76663754D01*
X65995672Y-76673580D01*
X65995676Y-76673580D01*
X65995677Y-76673581D01*
X66131004Y-76700500D01*
X66131007Y-76700500D01*
X66268995Y-76700500D01*
X66372178Y-76679975D01*
X66404328Y-76673580D01*
X66531811Y-76620775D01*
X66646542Y-76544114D01*
X66744114Y-76446542D01*
X66820775Y-76331811D01*
X66873580Y-76204328D01*
X66882389Y-76160041D01*
X66900500Y-76068995D01*
X66900500Y-75931004D01*
X66888165Y-75868995D01*
X78799499Y-75868995D01*
X78826418Y-76004322D01*
X78826421Y-76004332D01*
X78879221Y-76131804D01*
X78879228Y-76131817D01*
X78955885Y-76246541D01*
X78955888Y-76246545D01*
X79053454Y-76344111D01*
X79053458Y-76344114D01*
X79168182Y-76420771D01*
X79168195Y-76420778D01*
X79295667Y-76473578D01*
X79295672Y-76473580D01*
X79295676Y-76473580D01*
X79295677Y-76473581D01*
X79431004Y-76500500D01*
X79431007Y-76500500D01*
X79568995Y-76500500D01*
X79660041Y-76482389D01*
X79704328Y-76473580D01*
X79831811Y-76420775D01*
X79946542Y-76344114D01*
X80044114Y-76246542D01*
X80120775Y-76131811D01*
X80173580Y-76004328D01*
X80188165Y-75931004D01*
X80200500Y-75868995D01*
X80200500Y-75731004D01*
X80173581Y-75595677D01*
X80173580Y-75595676D01*
X80173580Y-75595672D01*
X80173578Y-75595667D01*
X80120778Y-75468195D01*
X80120771Y-75468182D01*
X80044114Y-75353458D01*
X80044111Y-75353454D01*
X79946545Y-75255888D01*
X79946541Y-75255885D01*
X79831817Y-75179228D01*
X79831804Y-75179221D01*
X79782973Y-75158995D01*
X84419499Y-75158995D01*
X84446418Y-75294322D01*
X84446421Y-75294332D01*
X84499221Y-75421804D01*
X84499228Y-75421817D01*
X84575885Y-75536541D01*
X84575888Y-75536545D01*
X84673454Y-75634111D01*
X84673458Y-75634114D01*
X84788182Y-75710771D01*
X84788195Y-75710778D01*
X84915667Y-75763578D01*
X84915672Y-75763580D01*
X84915676Y-75763580D01*
X84915677Y-75763581D01*
X85051004Y-75790500D01*
X85051007Y-75790500D01*
X85188995Y-75790500D01*
X85280158Y-75772366D01*
X85324328Y-75763580D01*
X85451811Y-75710775D01*
X85566542Y-75634114D01*
X85664114Y-75536542D01*
X85740775Y-75421811D01*
X85793580Y-75294328D01*
X85816476Y-75179225D01*
X85820500Y-75158995D01*
X85820500Y-75021004D01*
X85793581Y-74885677D01*
X85793580Y-74885676D01*
X85793580Y-74885672D01*
X85758094Y-74800000D01*
X85740778Y-74758195D01*
X85740771Y-74758182D01*
X85664114Y-74643458D01*
X85664111Y-74643454D01*
X85566545Y-74545888D01*
X85566541Y-74545885D01*
X85451817Y-74469228D01*
X85451804Y-74469221D01*
X85324332Y-74416421D01*
X85324322Y-74416418D01*
X85188995Y-74389500D01*
X85188993Y-74389500D01*
X85051007Y-74389500D01*
X85051005Y-74389500D01*
X84915677Y-74416418D01*
X84915667Y-74416421D01*
X84788195Y-74469221D01*
X84788182Y-74469228D01*
X84673458Y-74545885D01*
X84673454Y-74545888D01*
X84575888Y-74643454D01*
X84575885Y-74643458D01*
X84499228Y-74758182D01*
X84499221Y-74758195D01*
X84446421Y-74885667D01*
X84446418Y-74885677D01*
X84419500Y-75021004D01*
X84419500Y-75021007D01*
X84419500Y-75158993D01*
X84419500Y-75158995D01*
X84419499Y-75158995D01*
X79782973Y-75158995D01*
X79711707Y-75129476D01*
X79711706Y-75129476D01*
X79704328Y-75126420D01*
X79704324Y-75126419D01*
X79704322Y-75126418D01*
X79568995Y-75099500D01*
X79568993Y-75099500D01*
X79431007Y-75099500D01*
X79431005Y-75099500D01*
X79295677Y-75126418D01*
X79295667Y-75126421D01*
X79168195Y-75179221D01*
X79168182Y-75179228D01*
X79053458Y-75255885D01*
X79053454Y-75255888D01*
X78955888Y-75353454D01*
X78955885Y-75353458D01*
X78879228Y-75468182D01*
X78879221Y-75468195D01*
X78826421Y-75595667D01*
X78826418Y-75595677D01*
X78799500Y-75731004D01*
X78799500Y-75731007D01*
X78799500Y-75868993D01*
X78799500Y-75868995D01*
X78799499Y-75868995D01*
X66888165Y-75868995D01*
X66873581Y-75795677D01*
X66873580Y-75795676D01*
X66873580Y-75795672D01*
X66829613Y-75689525D01*
X66820778Y-75668195D01*
X66820771Y-75668182D01*
X66744114Y-75553458D01*
X66744111Y-75553454D01*
X66646545Y-75455888D01*
X66646541Y-75455885D01*
X66531817Y-75379228D01*
X66531804Y-75379221D01*
X66404332Y-75326421D01*
X66404322Y-75326418D01*
X66268995Y-75299500D01*
X66268993Y-75299500D01*
X66131007Y-75299500D01*
X66131005Y-75299500D01*
X65995677Y-75326418D01*
X65995667Y-75326421D01*
X65971950Y-75336245D01*
X65902480Y-75343712D01*
X65840002Y-75312436D01*
X65804351Y-75252346D01*
X65800500Y-75221683D01*
X65800500Y-72768995D01*
X88399499Y-72768995D01*
X88426418Y-72904322D01*
X88426421Y-72904332D01*
X88479221Y-73031804D01*
X88479228Y-73031817D01*
X88555885Y-73146541D01*
X88555888Y-73146545D01*
X88653454Y-73244111D01*
X88653458Y-73244114D01*
X88768182Y-73320771D01*
X88768195Y-73320778D01*
X88851564Y-73355310D01*
X88895672Y-73373580D01*
X88895676Y-73373580D01*
X88895677Y-73373581D01*
X89031004Y-73400500D01*
X89031007Y-73400500D01*
X89168995Y-73400500D01*
X89260041Y-73382389D01*
X89304328Y-73373580D01*
X89431811Y-73320775D01*
X89546542Y-73244114D01*
X89644114Y-73146542D01*
X89720775Y-73031811D01*
X89773580Y-72904328D01*
X89800500Y-72768993D01*
X89800500Y-72631007D01*
X89800499Y-72631001D01*
X89798540Y-72621153D01*
X96499500Y-72621153D01*
X96499500Y-72778846D01*
X96530261Y-72933489D01*
X96530264Y-72933501D01*
X96590602Y-73079172D01*
X96590609Y-73079185D01*
X96678210Y-73210288D01*
X96678213Y-73210292D01*
X96789707Y-73321786D01*
X96789711Y-73321789D01*
X96920814Y-73409390D01*
X96920827Y-73409397D01*
X97045690Y-73461116D01*
X97066503Y-73469737D01*
X97221153Y-73500499D01*
X97221156Y-73500500D01*
X97221158Y-73500500D01*
X97378844Y-73500500D01*
X97378845Y-73500499D01*
X97533497Y-73469737D01*
X97679179Y-73409394D01*
X97810289Y-73321789D01*
X97921789Y-73210289D01*
X98009394Y-73079179D01*
X98069737Y-72933497D01*
X98100500Y-72778842D01*
X98100500Y-72621158D01*
X98100500Y-72621155D01*
X98100499Y-72621153D01*
X98088376Y-72560208D01*
X98069737Y-72466503D01*
X98046290Y-72409896D01*
X98009397Y-72320827D01*
X98009390Y-72320814D01*
X97921789Y-72189711D01*
X97921786Y-72189707D01*
X97810292Y-72078213D01*
X97810288Y-72078210D01*
X97679185Y-71990609D01*
X97679172Y-71990602D01*
X97533501Y-71930264D01*
X97533489Y-71930261D01*
X97378845Y-71899500D01*
X97378842Y-71899500D01*
X97221158Y-71899500D01*
X97221155Y-71899500D01*
X97066510Y-71930261D01*
X97066498Y-71930264D01*
X96920827Y-71990602D01*
X96920814Y-71990609D01*
X96789711Y-72078210D01*
X96789707Y-72078213D01*
X96678213Y-72189707D01*
X96678210Y-72189711D01*
X96590609Y-72320814D01*
X96590602Y-72320827D01*
X96530264Y-72466498D01*
X96530261Y-72466510D01*
X96499500Y-72621153D01*
X89798540Y-72621153D01*
X89773581Y-72495677D01*
X89773580Y-72495676D01*
X89773580Y-72495672D01*
X89734159Y-72400500D01*
X89720778Y-72368195D01*
X89720771Y-72368182D01*
X89644114Y-72253458D01*
X89644111Y-72253454D01*
X89546545Y-72155888D01*
X89546541Y-72155885D01*
X89431817Y-72079228D01*
X89431804Y-72079221D01*
X89304332Y-72026421D01*
X89304322Y-72026418D01*
X89168995Y-71999500D01*
X89168993Y-71999500D01*
X89031007Y-71999500D01*
X89031005Y-71999500D01*
X88895677Y-72026418D01*
X88895667Y-72026421D01*
X88768195Y-72079221D01*
X88768182Y-72079228D01*
X88653458Y-72155885D01*
X88653454Y-72155888D01*
X88555888Y-72253454D01*
X88555885Y-72253458D01*
X88479228Y-72368182D01*
X88479221Y-72368195D01*
X88426421Y-72495667D01*
X88426418Y-72495677D01*
X88399500Y-72631004D01*
X88399500Y-72631007D01*
X88399500Y-72768993D01*
X88399500Y-72768995D01*
X88399499Y-72768995D01*
X65800500Y-72768995D01*
X65800500Y-71768995D01*
X77299499Y-71768995D01*
X77326418Y-71904322D01*
X77326421Y-71904332D01*
X77379221Y-72031804D01*
X77379228Y-72031817D01*
X77455885Y-72146541D01*
X77455888Y-72146545D01*
X77553454Y-72244111D01*
X77553458Y-72244114D01*
X77668182Y-72320771D01*
X77668195Y-72320778D01*
X77795667Y-72373578D01*
X77795672Y-72373580D01*
X77795676Y-72373580D01*
X77795677Y-72373581D01*
X77931004Y-72400500D01*
X77931007Y-72400500D01*
X78068995Y-72400500D01*
X78160041Y-72382389D01*
X78204328Y-72373580D01*
X78302924Y-72332740D01*
X78331804Y-72320778D01*
X78331804Y-72320777D01*
X78331811Y-72320775D01*
X78446542Y-72244114D01*
X78544114Y-72146542D01*
X78620775Y-72031811D01*
X78673580Y-71904328D01*
X78700500Y-71768993D01*
X78700500Y-71631007D01*
X78700500Y-71631004D01*
X78673581Y-71495677D01*
X78673580Y-71495676D01*
X78673580Y-71495672D01*
X78647828Y-71433501D01*
X78620778Y-71368195D01*
X78620771Y-71368182D01*
X78544114Y-71253458D01*
X78544111Y-71253454D01*
X78446545Y-71155888D01*
X78446541Y-71155885D01*
X78331817Y-71079228D01*
X78331804Y-71079221D01*
X78204332Y-71026421D01*
X78204322Y-71026418D01*
X78068995Y-70999500D01*
X78068993Y-70999500D01*
X77931007Y-70999500D01*
X77931005Y-70999500D01*
X77795677Y-71026418D01*
X77795667Y-71026421D01*
X77668195Y-71079221D01*
X77668182Y-71079228D01*
X77553458Y-71155885D01*
X77553454Y-71155888D01*
X77455888Y-71253454D01*
X77455885Y-71253458D01*
X77379228Y-71368182D01*
X77379221Y-71368195D01*
X77326421Y-71495667D01*
X77326418Y-71495677D01*
X77299500Y-71631004D01*
X77299500Y-71631007D01*
X77299500Y-71768993D01*
X77299500Y-71768995D01*
X77299499Y-71768995D01*
X65800500Y-71768995D01*
X65800500Y-70968995D01*
X71799499Y-70968995D01*
X71826418Y-71104322D01*
X71826421Y-71104332D01*
X71879221Y-71231804D01*
X71879228Y-71231817D01*
X71955885Y-71346541D01*
X71955888Y-71346545D01*
X72053454Y-71444111D01*
X72053458Y-71444114D01*
X72168182Y-71520771D01*
X72168195Y-71520778D01*
X72295667Y-71573578D01*
X72295672Y-71573580D01*
X72295676Y-71573580D01*
X72295677Y-71573581D01*
X72431004Y-71600500D01*
X72431007Y-71600500D01*
X72568995Y-71600500D01*
X72676215Y-71579172D01*
X72704328Y-71573580D01*
X72831811Y-71520775D01*
X72831816Y-71520771D01*
X72831819Y-71520770D01*
X72870916Y-71494645D01*
X72946542Y-71444114D01*
X73044114Y-71346542D01*
X73120775Y-71231811D01*
X73127224Y-71216243D01*
X73173578Y-71104332D01*
X73173580Y-71104328D01*
X73189077Y-71026420D01*
X73200500Y-70968995D01*
X73200500Y-70831004D01*
X73173581Y-70695677D01*
X73173580Y-70695676D01*
X73173580Y-70695672D01*
X73154662Y-70650000D01*
X73120778Y-70568195D01*
X73120771Y-70568182D01*
X73044114Y-70453458D01*
X73044111Y-70453454D01*
X72946545Y-70355888D01*
X72946541Y-70355885D01*
X72831817Y-70279228D01*
X72831804Y-70279221D01*
X72807116Y-70268995D01*
X80299499Y-70268995D01*
X80326418Y-70404322D01*
X80326421Y-70404332D01*
X80379221Y-70531804D01*
X80379228Y-70531817D01*
X80455885Y-70646541D01*
X80455888Y-70646545D01*
X80553454Y-70744111D01*
X80553458Y-70744114D01*
X80668182Y-70820771D01*
X80668195Y-70820778D01*
X80763589Y-70860291D01*
X80795672Y-70873580D01*
X80795676Y-70873580D01*
X80795677Y-70873581D01*
X80931004Y-70900500D01*
X80931007Y-70900500D01*
X81068995Y-70900500D01*
X81164788Y-70881445D01*
X81204328Y-70873580D01*
X81310747Y-70829500D01*
X81331804Y-70820778D01*
X81331804Y-70820777D01*
X81331811Y-70820775D01*
X81446542Y-70744114D01*
X81544114Y-70646542D01*
X81620775Y-70531811D01*
X81673580Y-70404328D01*
X81683462Y-70354646D01*
X81700500Y-70268995D01*
X81700500Y-70168995D01*
X86799499Y-70168995D01*
X86826418Y-70304322D01*
X86826421Y-70304332D01*
X86879221Y-70431804D01*
X86879228Y-70431817D01*
X86955885Y-70546541D01*
X86955888Y-70546545D01*
X87053454Y-70644111D01*
X87053458Y-70644114D01*
X87168182Y-70720771D01*
X87168195Y-70720778D01*
X87262184Y-70759709D01*
X87295672Y-70773580D01*
X87295676Y-70773580D01*
X87295677Y-70773581D01*
X87431004Y-70800500D01*
X87431007Y-70800500D01*
X87568995Y-70800500D01*
X87660041Y-70782389D01*
X87704328Y-70773580D01*
X87831811Y-70720775D01*
X87946542Y-70644114D01*
X88044114Y-70546542D01*
X88120775Y-70431811D01*
X88173580Y-70304328D01*
X88189077Y-70226420D01*
X88200500Y-70168995D01*
X88200500Y-70031004D01*
X88173581Y-69895677D01*
X88173580Y-69895676D01*
X88173580Y-69895672D01*
X88161496Y-69866498D01*
X88120778Y-69768195D01*
X88120771Y-69768182D01*
X88044114Y-69653458D01*
X88044111Y-69653454D01*
X87946545Y-69555888D01*
X87946541Y-69555885D01*
X87831817Y-69479228D01*
X87831804Y-69479221D01*
X87704332Y-69426421D01*
X87704322Y-69426418D01*
X87568995Y-69399500D01*
X87568993Y-69399500D01*
X87431007Y-69399500D01*
X87431005Y-69399500D01*
X87295677Y-69426418D01*
X87295667Y-69426421D01*
X87168195Y-69479221D01*
X87168182Y-69479228D01*
X87053458Y-69555885D01*
X87053454Y-69555888D01*
X86955888Y-69653454D01*
X86955885Y-69653458D01*
X86879228Y-69768182D01*
X86879221Y-69768195D01*
X86826421Y-69895667D01*
X86826418Y-69895677D01*
X86799500Y-70031004D01*
X86799500Y-70031007D01*
X86799500Y-70168993D01*
X86799500Y-70168995D01*
X86799499Y-70168995D01*
X81700500Y-70168995D01*
X81700500Y-70131004D01*
X81684209Y-70049107D01*
X81684209Y-70049106D01*
X81680179Y-70028847D01*
X81673580Y-69995672D01*
X81673578Y-69995667D01*
X81620778Y-69868195D01*
X81620771Y-69868182D01*
X81544114Y-69753458D01*
X81544111Y-69753454D01*
X81446545Y-69655888D01*
X81446541Y-69655885D01*
X81331817Y-69579228D01*
X81331804Y-69579221D01*
X81204332Y-69526421D01*
X81204322Y-69526418D01*
X81068995Y-69499500D01*
X81068993Y-69499500D01*
X80931007Y-69499500D01*
X80931005Y-69499500D01*
X80795677Y-69526418D01*
X80795667Y-69526421D01*
X80668195Y-69579221D01*
X80668182Y-69579228D01*
X80553458Y-69655885D01*
X80553454Y-69655888D01*
X80455888Y-69753454D01*
X80455885Y-69753458D01*
X80379228Y-69868182D01*
X80379221Y-69868195D01*
X80326421Y-69995667D01*
X80326418Y-69995677D01*
X80299500Y-70131004D01*
X80299500Y-70131007D01*
X80299500Y-70268993D01*
X80299500Y-70268995D01*
X80299499Y-70268995D01*
X72807116Y-70268995D01*
X72735849Y-70239476D01*
X72704332Y-70226421D01*
X72704322Y-70226418D01*
X72568995Y-70199500D01*
X72568993Y-70199500D01*
X72431007Y-70199500D01*
X72431005Y-70199500D01*
X72295677Y-70226418D01*
X72295667Y-70226421D01*
X72168195Y-70279221D01*
X72168182Y-70279228D01*
X72053458Y-70355885D01*
X72053454Y-70355888D01*
X71955888Y-70453454D01*
X71955885Y-70453458D01*
X71879228Y-70568182D01*
X71879221Y-70568195D01*
X71826421Y-70695667D01*
X71826418Y-70695677D01*
X71799500Y-70831004D01*
X71799500Y-70831007D01*
X71799500Y-70968993D01*
X71799500Y-70968995D01*
X71799499Y-70968995D01*
X65800500Y-70968995D01*
X65800500Y-69668995D01*
X68399499Y-69668995D01*
X68426418Y-69804322D01*
X68426421Y-69804332D01*
X68479221Y-69931804D01*
X68479228Y-69931817D01*
X68555885Y-70046541D01*
X68555888Y-70046545D01*
X68653454Y-70144111D01*
X68653458Y-70144114D01*
X68768182Y-70220771D01*
X68768195Y-70220778D01*
X68813337Y-70239476D01*
X68895672Y-70273580D01*
X68895676Y-70273580D01*
X68895677Y-70273581D01*
X69031004Y-70300500D01*
X69031007Y-70300500D01*
X69168995Y-70300500D01*
X69260041Y-70282389D01*
X69304328Y-70273580D01*
X69431811Y-70220775D01*
X69546542Y-70144114D01*
X69644114Y-70046542D01*
X69720775Y-69931811D01*
X69773580Y-69804328D01*
X69786279Y-69740486D01*
X69800500Y-69668995D01*
X69800500Y-69531004D01*
X69773581Y-69395677D01*
X69773580Y-69395676D01*
X69773580Y-69395672D01*
X69746487Y-69330263D01*
X69720778Y-69268195D01*
X69720771Y-69268182D01*
X69644114Y-69153458D01*
X69644111Y-69153454D01*
X69546545Y-69055888D01*
X69546541Y-69055885D01*
X69431817Y-68979228D01*
X69431804Y-68979221D01*
X69304332Y-68926421D01*
X69304322Y-68926418D01*
X69168995Y-68899500D01*
X69168993Y-68899500D01*
X69031007Y-68899500D01*
X69031005Y-68899500D01*
X68895677Y-68926418D01*
X68895667Y-68926421D01*
X68768195Y-68979221D01*
X68768182Y-68979228D01*
X68653458Y-69055885D01*
X68653454Y-69055888D01*
X68555888Y-69153454D01*
X68555885Y-69153458D01*
X68479228Y-69268182D01*
X68479221Y-69268195D01*
X68426421Y-69395667D01*
X68426418Y-69395677D01*
X68399500Y-69531004D01*
X68399500Y-69531007D01*
X68399500Y-69668993D01*
X68399500Y-69668995D01*
X68399499Y-69668995D01*
X65800500Y-69668995D01*
X65800500Y-67268995D01*
X72999499Y-67268995D01*
X73026418Y-67404322D01*
X73026421Y-67404332D01*
X73079221Y-67531804D01*
X73079228Y-67531817D01*
X73155885Y-67646541D01*
X73155888Y-67646545D01*
X73253454Y-67744111D01*
X73253458Y-67744114D01*
X73368182Y-67820771D01*
X73368195Y-67820778D01*
X73482640Y-67868182D01*
X73495672Y-67873580D01*
X73495676Y-67873580D01*
X73495677Y-67873581D01*
X73631004Y-67900500D01*
X73631007Y-67900500D01*
X73768995Y-67900500D01*
X73860041Y-67882389D01*
X73904328Y-67873580D01*
X74031811Y-67820775D01*
X74146542Y-67744114D01*
X74221661Y-67668995D01*
X76299499Y-67668995D01*
X76326418Y-67804322D01*
X76326421Y-67804332D01*
X76379221Y-67931804D01*
X76379228Y-67931817D01*
X76455885Y-68046541D01*
X76455888Y-68046545D01*
X76553454Y-68144111D01*
X76553458Y-68144114D01*
X76668182Y-68220771D01*
X76668195Y-68220778D01*
X76795667Y-68273578D01*
X76795672Y-68273580D01*
X76795676Y-68273580D01*
X76795677Y-68273581D01*
X76931004Y-68300500D01*
X76931007Y-68300500D01*
X77068995Y-68300500D01*
X77160041Y-68282389D01*
X77204328Y-68273580D01*
X77215397Y-68268995D01*
X80099499Y-68268995D01*
X80126418Y-68404322D01*
X80126421Y-68404332D01*
X80179221Y-68531804D01*
X80179228Y-68531817D01*
X80255885Y-68646541D01*
X80255888Y-68646545D01*
X80353454Y-68744111D01*
X80353458Y-68744114D01*
X80468182Y-68820771D01*
X80468195Y-68820778D01*
X80595667Y-68873578D01*
X80595672Y-68873580D01*
X80595676Y-68873580D01*
X80595677Y-68873581D01*
X80731004Y-68900500D01*
X80731007Y-68900500D01*
X80868995Y-68900500D01*
X80980036Y-68878412D01*
X81004328Y-68873580D01*
X81131811Y-68820775D01*
X81246542Y-68744114D01*
X81344114Y-68646542D01*
X81420775Y-68531811D01*
X81466611Y-68421153D01*
X93799500Y-68421153D01*
X93799500Y-68578846D01*
X93830261Y-68733489D01*
X93830264Y-68733501D01*
X93890602Y-68879172D01*
X93890609Y-68879185D01*
X93978210Y-69010288D01*
X93978213Y-69010292D01*
X94089707Y-69121786D01*
X94089711Y-69121789D01*
X94202118Y-69196898D01*
X94246923Y-69250510D01*
X94255630Y-69319835D01*
X94225475Y-69382863D01*
X94202118Y-69403102D01*
X94089711Y-69478210D01*
X94089707Y-69478213D01*
X93978213Y-69589707D01*
X93978210Y-69589711D01*
X93890609Y-69720814D01*
X93890602Y-69720827D01*
X93830264Y-69866498D01*
X93830261Y-69866510D01*
X93799500Y-70021153D01*
X93799500Y-70178846D01*
X93830261Y-70333489D01*
X93830264Y-70333501D01*
X93890602Y-70479172D01*
X93890609Y-70479185D01*
X93958713Y-70581109D01*
X93979591Y-70647787D01*
X93961107Y-70715167D01*
X93958713Y-70718891D01*
X93890609Y-70820814D01*
X93890602Y-70820827D01*
X93830264Y-70966498D01*
X93830261Y-70966510D01*
X93799500Y-71121153D01*
X93799500Y-71278846D01*
X93830261Y-71433489D01*
X93830264Y-71433501D01*
X93890602Y-71579172D01*
X93890609Y-71579185D01*
X93978210Y-71710288D01*
X93978213Y-71710292D01*
X94089707Y-71821786D01*
X94089711Y-71821789D01*
X94220814Y-71909390D01*
X94220827Y-71909397D01*
X94366498Y-71969735D01*
X94366503Y-71969737D01*
X94516131Y-71999500D01*
X94521153Y-72000499D01*
X94521156Y-72000500D01*
X94521158Y-72000500D01*
X94678844Y-72000500D01*
X94678845Y-72000499D01*
X94833497Y-71969737D01*
X94979179Y-71909394D01*
X95110289Y-71821789D01*
X95221789Y-71710289D01*
X95309394Y-71579179D01*
X95369737Y-71433497D01*
X95400500Y-71278842D01*
X95400500Y-71121158D01*
X95400500Y-71121155D01*
X95400499Y-71121153D01*
X95397151Y-71104322D01*
X95369737Y-70966503D01*
X95331248Y-70873581D01*
X95309397Y-70820827D01*
X95309393Y-70820820D01*
X95309363Y-70820775D01*
X95241284Y-70718888D01*
X95220408Y-70652214D01*
X95238892Y-70584834D01*
X95241257Y-70581152D01*
X95309394Y-70479179D01*
X95369737Y-70333497D01*
X95400500Y-70178842D01*
X95400500Y-70021158D01*
X95400500Y-70021155D01*
X95400499Y-70021153D01*
X95382729Y-69931817D01*
X95369737Y-69866503D01*
X95343985Y-69804332D01*
X95309397Y-69720827D01*
X95309390Y-69720814D01*
X95221789Y-69589711D01*
X95221786Y-69589707D01*
X95110292Y-69478213D01*
X95110288Y-69478210D01*
X94997881Y-69403102D01*
X94953076Y-69349490D01*
X94944369Y-69280165D01*
X94974523Y-69217137D01*
X94997881Y-69196898D01*
X95062899Y-69153454D01*
X95110289Y-69121789D01*
X95221789Y-69010289D01*
X95309394Y-68879179D01*
X95369737Y-68733497D01*
X95400500Y-68578842D01*
X95400500Y-68421158D01*
X95400500Y-68421155D01*
X95381977Y-68328037D01*
X95385018Y-68294041D01*
X95387611Y-68259981D01*
X95388139Y-68259162D01*
X95388204Y-68258445D01*
X95390857Y-68253713D01*
X102349500Y-68253713D01*
X102349500Y-68466287D01*
X102359534Y-68529644D01*
X102378049Y-68646542D01*
X102382754Y-68676243D01*
X102446873Y-68873581D01*
X102448444Y-68878414D01*
X102544951Y-69067820D01*
X102669890Y-69239786D01*
X102820213Y-69390109D01*
X102992182Y-69515050D01*
X103000946Y-69519516D01*
X103051742Y-69567491D01*
X103068536Y-69635312D01*
X103045998Y-69701447D01*
X103000946Y-69740484D01*
X102992182Y-69744949D01*
X102820213Y-69869890D01*
X102669890Y-70020213D01*
X102544951Y-70192179D01*
X102448444Y-70381585D01*
X102382753Y-70583760D01*
X102361053Y-70720771D01*
X102349500Y-70793713D01*
X102349500Y-71006287D01*
X102352689Y-71026420D01*
X102373194Y-71155888D01*
X102382754Y-71216243D01*
X102432126Y-71368195D01*
X102448444Y-71418414D01*
X102544951Y-71607820D01*
X102669890Y-71779786D01*
X102820213Y-71930109D01*
X102992182Y-72055050D01*
X103000946Y-72059516D01*
X103051742Y-72107491D01*
X103068536Y-72175312D01*
X103045998Y-72241447D01*
X103000946Y-72280484D01*
X102992182Y-72284949D01*
X102820213Y-72409890D01*
X102669890Y-72560213D01*
X102544951Y-72732179D01*
X102448444Y-72921585D01*
X102382753Y-73123760D01*
X102363691Y-73244114D01*
X102349500Y-73333713D01*
X102349500Y-73546287D01*
X102382754Y-73756243D01*
X102398711Y-73805354D01*
X102448444Y-73958414D01*
X102544951Y-74147820D01*
X102669890Y-74319786D01*
X102783818Y-74433714D01*
X102817303Y-74495037D01*
X102812319Y-74564729D01*
X102770447Y-74620662D01*
X102739471Y-74637577D01*
X102607912Y-74686646D01*
X102607906Y-74686649D01*
X102492812Y-74772809D01*
X102492809Y-74772812D01*
X102406649Y-74887906D01*
X102406645Y-74887913D01*
X102356403Y-75022620D01*
X102356401Y-75022627D01*
X102350000Y-75082155D01*
X102350000Y-75730000D01*
X103266988Y-75730000D01*
X103234075Y-75787007D01*
X103200000Y-75914174D01*
X103200000Y-76045826D01*
X103234075Y-76172993D01*
X103266988Y-76230000D01*
X102350000Y-76230000D01*
X102350000Y-76877844D01*
X102356401Y-76937372D01*
X102356403Y-76937379D01*
X102406645Y-77072086D01*
X102406649Y-77072093D01*
X102492809Y-77187187D01*
X102492812Y-77187190D01*
X102607906Y-77273350D01*
X102607913Y-77273354D01*
X102742620Y-77323596D01*
X102742627Y-77323598D01*
X102802155Y-77329999D01*
X102802172Y-77330000D01*
X103450000Y-77330000D01*
X103450000Y-76413012D01*
X103507007Y-76445925D01*
X103634174Y-76480000D01*
X103765826Y-76480000D01*
X103892993Y-76445925D01*
X103950000Y-76413012D01*
X103950000Y-77330000D01*
X104597828Y-77330000D01*
X104597844Y-77329999D01*
X104657372Y-77323598D01*
X104657379Y-77323596D01*
X104792086Y-77273354D01*
X104792093Y-77273350D01*
X104907187Y-77187190D01*
X104907190Y-77187187D01*
X104993350Y-77072093D01*
X104993354Y-77072086D01*
X105043596Y-76937379D01*
X105043598Y-76937372D01*
X105049999Y-76877844D01*
X105050000Y-76877827D01*
X105050000Y-76230000D01*
X104133012Y-76230000D01*
X104165925Y-76172993D01*
X104200000Y-76045826D01*
X104200000Y-75914174D01*
X104165925Y-75787007D01*
X104133012Y-75730000D01*
X105050000Y-75730000D01*
X105050000Y-75082172D01*
X105049999Y-75082155D01*
X105043598Y-75022627D01*
X105043596Y-75022620D01*
X104993354Y-74887913D01*
X104993350Y-74887906D01*
X104907190Y-74772812D01*
X104907187Y-74772809D01*
X104792093Y-74686649D01*
X104792088Y-74686646D01*
X104660528Y-74637577D01*
X104604595Y-74595705D01*
X104580178Y-74530241D01*
X104595030Y-74461968D01*
X104616175Y-74433720D01*
X104730104Y-74319792D01*
X104855051Y-74147816D01*
X104951557Y-73958412D01*
X105017246Y-73756243D01*
X105050500Y-73546287D01*
X105050500Y-73333713D01*
X105017246Y-73123757D01*
X104951557Y-72921588D01*
X104855051Y-72732184D01*
X104855049Y-72732181D01*
X104855048Y-72732179D01*
X104730109Y-72560213D01*
X104579786Y-72409890D01*
X104407820Y-72284951D01*
X104407115Y-72284591D01*
X104399054Y-72280485D01*
X104348259Y-72232512D01*
X104331463Y-72164692D01*
X104353999Y-72098556D01*
X104399054Y-72059515D01*
X104407816Y-72055051D01*
X104447222Y-72026421D01*
X104579786Y-71930109D01*
X104579788Y-71930106D01*
X104579792Y-71930104D01*
X104730104Y-71779792D01*
X104730106Y-71779788D01*
X104730109Y-71779786D01*
X104855048Y-71607820D01*
X104855047Y-71607820D01*
X104855051Y-71607816D01*
X104951557Y-71418412D01*
X105017246Y-71216243D01*
X105050500Y-71006287D01*
X105050500Y-70793713D01*
X105017246Y-70583757D01*
X104951557Y-70381588D01*
X104855051Y-70192184D01*
X104855049Y-70192181D01*
X104855048Y-70192179D01*
X104730109Y-70020213D01*
X104579786Y-69869890D01*
X104407820Y-69744951D01*
X104407115Y-69744591D01*
X104399054Y-69740485D01*
X104348259Y-69692512D01*
X104331463Y-69624692D01*
X104353999Y-69558556D01*
X104399054Y-69519515D01*
X104407816Y-69515051D01*
X104429789Y-69499086D01*
X104579786Y-69390109D01*
X104579788Y-69390106D01*
X104579792Y-69390104D01*
X104730104Y-69239792D01*
X104730106Y-69239788D01*
X104730109Y-69239786D01*
X104855048Y-69067820D01*
X104855047Y-69067820D01*
X104855051Y-69067816D01*
X104951557Y-68878412D01*
X105017246Y-68676243D01*
X105050500Y-68466287D01*
X105050500Y-68253713D01*
X105017246Y-68043757D01*
X104951557Y-67841588D01*
X104855051Y-67652184D01*
X104855049Y-67652181D01*
X104855048Y-67652179D01*
X104730109Y-67480213D01*
X104579786Y-67329890D01*
X104407820Y-67204951D01*
X104218414Y-67108444D01*
X104218413Y-67108443D01*
X104218412Y-67108443D01*
X104016243Y-67042754D01*
X104016241Y-67042753D01*
X104016240Y-67042753D01*
X103811287Y-67010292D01*
X103806287Y-67009500D01*
X103593713Y-67009500D01*
X103588713Y-67010292D01*
X103383760Y-67042753D01*
X103181585Y-67108444D01*
X102992179Y-67204951D01*
X102820213Y-67329890D01*
X102669890Y-67480213D01*
X102544951Y-67652179D01*
X102448444Y-67841585D01*
X102382753Y-68043760D01*
X102354717Y-68220775D01*
X102349500Y-68253713D01*
X95390857Y-68253713D01*
X95404667Y-68229082D01*
X95409837Y-68222240D01*
X95421789Y-68210289D01*
X95509394Y-68079179D01*
X95569737Y-67933497D01*
X95600500Y-67778842D01*
X95600500Y-67621158D01*
X95600500Y-67621155D01*
X95600499Y-67621153D01*
X95569737Y-67466503D01*
X95543985Y-67404332D01*
X95509397Y-67320827D01*
X95509390Y-67320814D01*
X95421789Y-67189711D01*
X95421786Y-67189707D01*
X95310292Y-67078213D01*
X95310288Y-67078210D01*
X95179185Y-66990609D01*
X95179172Y-66990602D01*
X95033501Y-66930264D01*
X95033489Y-66930261D01*
X94878845Y-66899500D01*
X94878842Y-66899500D01*
X94721158Y-66899500D01*
X94721155Y-66899500D01*
X94566510Y-66930261D01*
X94566498Y-66930264D01*
X94420827Y-66990602D01*
X94420814Y-66990609D01*
X94289711Y-67078210D01*
X94289707Y-67078213D01*
X94178213Y-67189707D01*
X94178210Y-67189711D01*
X94090609Y-67320814D01*
X94090602Y-67320827D01*
X94030264Y-67466498D01*
X94030261Y-67466510D01*
X93999500Y-67621153D01*
X93999500Y-67778846D01*
X94018022Y-67871963D01*
X94011795Y-67941555D01*
X93984091Y-67983831D01*
X93978208Y-67989714D01*
X93890609Y-68120814D01*
X93890602Y-68120827D01*
X93830264Y-68266498D01*
X93830261Y-68266510D01*
X93799500Y-68421153D01*
X81466611Y-68421153D01*
X81473580Y-68404328D01*
X81500500Y-68268993D01*
X81500500Y-68131007D01*
X81500500Y-68131004D01*
X81473581Y-67995677D01*
X81473580Y-67995676D01*
X81473580Y-67995672D01*
X81456248Y-67953828D01*
X81420778Y-67868195D01*
X81420771Y-67868182D01*
X81344114Y-67753458D01*
X81344111Y-67753454D01*
X81246545Y-67655888D01*
X81246541Y-67655885D01*
X81131817Y-67579228D01*
X81131804Y-67579221D01*
X81004332Y-67526421D01*
X81004322Y-67526418D01*
X80868995Y-67499500D01*
X80868993Y-67499500D01*
X80731007Y-67499500D01*
X80731005Y-67499500D01*
X80595677Y-67526418D01*
X80595667Y-67526421D01*
X80468195Y-67579221D01*
X80468182Y-67579228D01*
X80353458Y-67655885D01*
X80353454Y-67655888D01*
X80255888Y-67753454D01*
X80255885Y-67753458D01*
X80179228Y-67868182D01*
X80179221Y-67868195D01*
X80126421Y-67995667D01*
X80126418Y-67995677D01*
X80099500Y-68131004D01*
X80099500Y-68131007D01*
X80099500Y-68268993D01*
X80099500Y-68268995D01*
X80099499Y-68268995D01*
X77215397Y-68268995D01*
X77331811Y-68220775D01*
X77446542Y-68144114D01*
X77544114Y-68046542D01*
X77620775Y-67931811D01*
X77673580Y-67804328D01*
X77700500Y-67668993D01*
X77700500Y-67531007D01*
X77700500Y-67531004D01*
X77673581Y-67395677D01*
X77673580Y-67395676D01*
X77673580Y-67395672D01*
X77646335Y-67329896D01*
X77620778Y-67268195D01*
X77620771Y-67268182D01*
X77544114Y-67153458D01*
X77544111Y-67153454D01*
X77446545Y-67055888D01*
X77446541Y-67055885D01*
X77331817Y-66979228D01*
X77331804Y-66979221D01*
X77204332Y-66926421D01*
X77204322Y-66926418D01*
X77068995Y-66899500D01*
X77068993Y-66899500D01*
X76931007Y-66899500D01*
X76931005Y-66899500D01*
X76795677Y-66926418D01*
X76795667Y-66926421D01*
X76668195Y-66979221D01*
X76668182Y-66979228D01*
X76553458Y-67055885D01*
X76553454Y-67055888D01*
X76455888Y-67153454D01*
X76455885Y-67153458D01*
X76379228Y-67268182D01*
X76379221Y-67268195D01*
X76326421Y-67395667D01*
X76326418Y-67395677D01*
X76299500Y-67531004D01*
X76299500Y-67531007D01*
X76299500Y-67668993D01*
X76299500Y-67668995D01*
X76299499Y-67668995D01*
X74221661Y-67668995D01*
X74244114Y-67646542D01*
X74320775Y-67531811D01*
X74342224Y-67480029D01*
X74343287Y-67477463D01*
X74373578Y-67404332D01*
X74373580Y-67404328D01*
X74394233Y-67300499D01*
X74400500Y-67268995D01*
X74400500Y-67131004D01*
X74373581Y-66995677D01*
X74373580Y-66995676D01*
X74373580Y-66995672D01*
X74366769Y-66979228D01*
X74320778Y-66868195D01*
X74320771Y-66868182D01*
X74244114Y-66753458D01*
X74244111Y-66753454D01*
X74146545Y-66655888D01*
X74146541Y-66655885D01*
X74031817Y-66579228D01*
X74031804Y-66579221D01*
X73912071Y-66529627D01*
X73904332Y-66526421D01*
X73904322Y-66526418D01*
X73768995Y-66499500D01*
X73768993Y-66499500D01*
X73631007Y-66499500D01*
X73631005Y-66499500D01*
X73495677Y-66526418D01*
X73495667Y-66526421D01*
X73368195Y-66579221D01*
X73368182Y-66579228D01*
X73253458Y-66655885D01*
X73253454Y-66655888D01*
X73155888Y-66753454D01*
X73155885Y-66753458D01*
X73079228Y-66868182D01*
X73079221Y-66868195D01*
X73026421Y-66995667D01*
X73026418Y-66995677D01*
X72999500Y-67131004D01*
X72999500Y-67131007D01*
X72999500Y-67268993D01*
X72999500Y-67268995D01*
X72999499Y-67268995D01*
X65800500Y-67268995D01*
X65800500Y-66421153D01*
X91189880Y-66421153D01*
X91189880Y-66578846D01*
X91220641Y-66733489D01*
X91220644Y-66733501D01*
X91280982Y-66879172D01*
X91280989Y-66879185D01*
X91368590Y-67010288D01*
X91368593Y-67010292D01*
X91480087Y-67121786D01*
X91480091Y-67121789D01*
X91611194Y-67209390D01*
X91611207Y-67209397D01*
X91756878Y-67269735D01*
X91756883Y-67269737D01*
X91911533Y-67300499D01*
X91911536Y-67300500D01*
X91911538Y-67300500D01*
X92069224Y-67300500D01*
X92069225Y-67300499D01*
X92223877Y-67269737D01*
X92369559Y-67209394D01*
X92500669Y-67121789D01*
X92612169Y-67010289D01*
X92638959Y-66970193D01*
X92692568Y-66925389D01*
X92761893Y-66916680D01*
X92810952Y-66935982D01*
X92920814Y-67009390D01*
X92920827Y-67009397D01*
X93033061Y-67055885D01*
X93066503Y-67069737D01*
X93210686Y-67098417D01*
X93221153Y-67100499D01*
X93221156Y-67100500D01*
X93221158Y-67100500D01*
X93378844Y-67100500D01*
X93378845Y-67100499D01*
X93533497Y-67069737D01*
X93679179Y-67009394D01*
X93810289Y-66921789D01*
X93921789Y-66810289D01*
X94009394Y-66679179D01*
X94069737Y-66533497D01*
X94100500Y-66378842D01*
X94100500Y-66221158D01*
X94100500Y-66221155D01*
X94100499Y-66221153D01*
X94085658Y-66146542D01*
X94069737Y-66066503D01*
X94037929Y-65989711D01*
X94009397Y-65920827D01*
X94009390Y-65920814D01*
X93921789Y-65789711D01*
X93921786Y-65789707D01*
X93901074Y-65768995D01*
X99099499Y-65768995D01*
X99126418Y-65904322D01*
X99126421Y-65904332D01*
X99179221Y-66031804D01*
X99179228Y-66031817D01*
X99255885Y-66146541D01*
X99255888Y-66146545D01*
X99353454Y-66244111D01*
X99353458Y-66244114D01*
X99468182Y-66320771D01*
X99468195Y-66320778D01*
X99595667Y-66373578D01*
X99595672Y-66373580D01*
X99595676Y-66373580D01*
X99595677Y-66373581D01*
X99731004Y-66400500D01*
X99731007Y-66400500D01*
X99868995Y-66400500D01*
X99977874Y-66378842D01*
X100004328Y-66373580D01*
X100131811Y-66320775D01*
X100246542Y-66244114D01*
X100344114Y-66146542D01*
X100420775Y-66031811D01*
X100473580Y-65904328D01*
X100486279Y-65840485D01*
X100500500Y-65768995D01*
X100500500Y-65631004D01*
X100473581Y-65495677D01*
X100473580Y-65495676D01*
X100473580Y-65495672D01*
X100473578Y-65495667D01*
X100420778Y-65368195D01*
X100420771Y-65368182D01*
X100344114Y-65253458D01*
X100344111Y-65253454D01*
X100246545Y-65155888D01*
X100246541Y-65155885D01*
X100131817Y-65079228D01*
X100131804Y-65079221D01*
X100004332Y-65026421D01*
X100004322Y-65026418D01*
X99868995Y-64999500D01*
X99868993Y-64999500D01*
X99731007Y-64999500D01*
X99731005Y-64999500D01*
X99595677Y-65026418D01*
X99595667Y-65026421D01*
X99468195Y-65079221D01*
X99468182Y-65079228D01*
X99353458Y-65155885D01*
X99353454Y-65155888D01*
X99255888Y-65253454D01*
X99255885Y-65253458D01*
X99179228Y-65368182D01*
X99179221Y-65368195D01*
X99126421Y-65495667D01*
X99126418Y-65495677D01*
X99099500Y-65631004D01*
X99099500Y-65631007D01*
X99099500Y-65768993D01*
X99099500Y-65768995D01*
X99099499Y-65768995D01*
X93901074Y-65768995D01*
X93810292Y-65678213D01*
X93810288Y-65678210D01*
X93679185Y-65590609D01*
X93679172Y-65590602D01*
X93533501Y-65530264D01*
X93533489Y-65530261D01*
X93378845Y-65499500D01*
X93378842Y-65499500D01*
X93221158Y-65499500D01*
X93221155Y-65499500D01*
X93066510Y-65530261D01*
X93066498Y-65530264D01*
X92920827Y-65590602D01*
X92920814Y-65590609D01*
X92789711Y-65678210D01*
X92789707Y-65678213D01*
X92678213Y-65789707D01*
X92678210Y-65789711D01*
X92651420Y-65829806D01*
X92597808Y-65874611D01*
X92528483Y-65883318D01*
X92479427Y-65864017D01*
X92369565Y-65790609D01*
X92369552Y-65790602D01*
X92223881Y-65730264D01*
X92223869Y-65730261D01*
X92069225Y-65699500D01*
X92069222Y-65699500D01*
X91911538Y-65699500D01*
X91911535Y-65699500D01*
X91756890Y-65730261D01*
X91756878Y-65730264D01*
X91611207Y-65790602D01*
X91611194Y-65790609D01*
X91480091Y-65878210D01*
X91480087Y-65878213D01*
X91368593Y-65989707D01*
X91368590Y-65989711D01*
X91280989Y-66120814D01*
X91280982Y-66120827D01*
X91220644Y-66266498D01*
X91220641Y-66266510D01*
X91189880Y-66421153D01*
X65800500Y-66421153D01*
X65800500Y-65368995D01*
X73399499Y-65368995D01*
X73426418Y-65504322D01*
X73426421Y-65504332D01*
X73479221Y-65631804D01*
X73479228Y-65631817D01*
X73555885Y-65746541D01*
X73555888Y-65746545D01*
X73653454Y-65844111D01*
X73653458Y-65844114D01*
X73768182Y-65920771D01*
X73768195Y-65920778D01*
X73895667Y-65973578D01*
X73895672Y-65973580D01*
X73895676Y-65973580D01*
X73895677Y-65973581D01*
X74031004Y-66000500D01*
X74031007Y-66000500D01*
X74168995Y-66000500D01*
X74260041Y-65982389D01*
X74304328Y-65973580D01*
X74408391Y-65930476D01*
X74431804Y-65920778D01*
X74431804Y-65920777D01*
X74431811Y-65920775D01*
X74546542Y-65844114D01*
X74644114Y-65746542D01*
X74720775Y-65631811D01*
X74773580Y-65504328D01*
X74800500Y-65368993D01*
X74800500Y-65231007D01*
X74800500Y-65231004D01*
X74773581Y-65095677D01*
X74773580Y-65095676D01*
X74773580Y-65095672D01*
X74766769Y-65079228D01*
X74749535Y-65037621D01*
X74742066Y-64968152D01*
X74760994Y-64921279D01*
X74806311Y-64853458D01*
X74820770Y-64831819D01*
X74820771Y-64831816D01*
X74820775Y-64831811D01*
X74873580Y-64704328D01*
X74896756Y-64587816D01*
X74900500Y-64568995D01*
X74900500Y-64431004D01*
X74873581Y-64295677D01*
X74873580Y-64295676D01*
X74873580Y-64295672D01*
X74873578Y-64295667D01*
X74820778Y-64168195D01*
X74820771Y-64168182D01*
X74744114Y-64053458D01*
X74744111Y-64053454D01*
X74646545Y-63955888D01*
X74646541Y-63955885D01*
X74531817Y-63879228D01*
X74531804Y-63879221D01*
X74404332Y-63826421D01*
X74404322Y-63826418D01*
X74268995Y-63799500D01*
X74268993Y-63799500D01*
X74131007Y-63799500D01*
X74131005Y-63799500D01*
X73995677Y-63826418D01*
X73995667Y-63826421D01*
X73868195Y-63879221D01*
X73868182Y-63879228D01*
X73753458Y-63955885D01*
X73753454Y-63955888D01*
X73655888Y-64053454D01*
X73655885Y-64053458D01*
X73579228Y-64168182D01*
X73579221Y-64168195D01*
X73526421Y-64295667D01*
X73526418Y-64295677D01*
X73499500Y-64431004D01*
X73499500Y-64431007D01*
X73499500Y-64568993D01*
X73499500Y-64568995D01*
X73499499Y-64568995D01*
X73526418Y-64704322D01*
X73526420Y-64704327D01*
X73550465Y-64762379D01*
X73557933Y-64831848D01*
X73539005Y-64878721D01*
X73479228Y-64968182D01*
X73479221Y-64968195D01*
X73426421Y-65095667D01*
X73426418Y-65095677D01*
X73399500Y-65231004D01*
X73399500Y-65231007D01*
X73399500Y-65368993D01*
X73399500Y-65368995D01*
X73399499Y-65368995D01*
X65800500Y-65368995D01*
X65800500Y-63968995D01*
X66899499Y-63968995D01*
X66926418Y-64104322D01*
X66926421Y-64104332D01*
X66979221Y-64231804D01*
X66979228Y-64231817D01*
X67055885Y-64346541D01*
X67055888Y-64346545D01*
X67153454Y-64444111D01*
X67153458Y-64444114D01*
X67268182Y-64520771D01*
X67268195Y-64520778D01*
X67359065Y-64558417D01*
X67395672Y-64573580D01*
X67395676Y-64573580D01*
X67395677Y-64573581D01*
X67531004Y-64600500D01*
X67531007Y-64600500D01*
X67668995Y-64600500D01*
X67776798Y-64579056D01*
X67804328Y-64573580D01*
X67931811Y-64520775D01*
X68046542Y-64444114D01*
X68144114Y-64346542D01*
X68220775Y-64231811D01*
X68273580Y-64104328D01*
X68292464Y-64009394D01*
X68300500Y-63968995D01*
X68300500Y-63831004D01*
X68273581Y-63695677D01*
X68273580Y-63695676D01*
X68273580Y-63695672D01*
X68266751Y-63679185D01*
X68220778Y-63568195D01*
X68220771Y-63568182D01*
X68144114Y-63453458D01*
X68144111Y-63453454D01*
X68046545Y-63355888D01*
X68046541Y-63355885D01*
X67931817Y-63279228D01*
X67931804Y-63279221D01*
X67804332Y-63226421D01*
X67804322Y-63226418D01*
X67668995Y-63199500D01*
X67668993Y-63199500D01*
X67531007Y-63199500D01*
X67531005Y-63199500D01*
X67395677Y-63226418D01*
X67395667Y-63226421D01*
X67268195Y-63279221D01*
X67268182Y-63279228D01*
X67153458Y-63355885D01*
X67153454Y-63355888D01*
X67055888Y-63453454D01*
X67055885Y-63453458D01*
X66979228Y-63568182D01*
X66979221Y-63568195D01*
X66926421Y-63695667D01*
X66926418Y-63695677D01*
X66899500Y-63831004D01*
X66899500Y-63831007D01*
X66899500Y-63968993D01*
X66899500Y-63968995D01*
X66899499Y-63968995D01*
X65800500Y-63968995D01*
X65800500Y-62668995D01*
X80799499Y-62668995D01*
X80826418Y-62804322D01*
X80826421Y-62804332D01*
X80879221Y-62931804D01*
X80879228Y-62931817D01*
X80955885Y-63046541D01*
X80955888Y-63046545D01*
X81053454Y-63144111D01*
X81053458Y-63144114D01*
X81168182Y-63220771D01*
X81168195Y-63220778D01*
X81266375Y-63261445D01*
X81295672Y-63273580D01*
X81295676Y-63273580D01*
X81295677Y-63273581D01*
X81431004Y-63300500D01*
X81431007Y-63300500D01*
X81568995Y-63300500D01*
X81660041Y-63282389D01*
X81704328Y-63273580D01*
X81715397Y-63268995D01*
X87299499Y-63268995D01*
X87326418Y-63404322D01*
X87326421Y-63404332D01*
X87379221Y-63531804D01*
X87379228Y-63531817D01*
X87455885Y-63646541D01*
X87455888Y-63646545D01*
X87553454Y-63744111D01*
X87553458Y-63744114D01*
X87668182Y-63820771D01*
X87668195Y-63820778D01*
X87795667Y-63873578D01*
X87795672Y-63873580D01*
X87795676Y-63873580D01*
X87795677Y-63873581D01*
X87931004Y-63900500D01*
X87931007Y-63900500D01*
X88068995Y-63900500D01*
X88160041Y-63882389D01*
X88204328Y-63873580D01*
X88331811Y-63820775D01*
X88446542Y-63744114D01*
X88544114Y-63646542D01*
X88620775Y-63531811D01*
X88673580Y-63404328D01*
X88690201Y-63320771D01*
X88700500Y-63268995D01*
X88700500Y-63221153D01*
X90399500Y-63221153D01*
X90399500Y-63378846D01*
X90430261Y-63533489D01*
X90430264Y-63533501D01*
X90490602Y-63679172D01*
X90490609Y-63679185D01*
X90578210Y-63810288D01*
X90578213Y-63810292D01*
X90689707Y-63921786D01*
X90689711Y-63921789D01*
X90820814Y-64009390D01*
X90820827Y-64009397D01*
X90966498Y-64069735D01*
X90966503Y-64069737D01*
X91121153Y-64100499D01*
X91121156Y-64100500D01*
X91121158Y-64100500D01*
X91278844Y-64100500D01*
X91278845Y-64100499D01*
X91433497Y-64069737D01*
X91579179Y-64009394D01*
X91639640Y-63968995D01*
X98899499Y-63968995D01*
X98926418Y-64104322D01*
X98926421Y-64104332D01*
X98979221Y-64231804D01*
X98979228Y-64231817D01*
X99055885Y-64346541D01*
X99055888Y-64346545D01*
X99153454Y-64444111D01*
X99153458Y-64444114D01*
X99268182Y-64520771D01*
X99268195Y-64520778D01*
X99359065Y-64558417D01*
X99395672Y-64573580D01*
X99395676Y-64573580D01*
X99395677Y-64573581D01*
X99531004Y-64600500D01*
X99531007Y-64600500D01*
X99668995Y-64600500D01*
X99776798Y-64579056D01*
X99804328Y-64573580D01*
X99931811Y-64520775D01*
X100046542Y-64444114D01*
X100144114Y-64346542D01*
X100220775Y-64231811D01*
X100273580Y-64104328D01*
X100292464Y-64009394D01*
X100300500Y-63968995D01*
X100300500Y-63831004D01*
X100273581Y-63695677D01*
X100273580Y-63695676D01*
X100273580Y-63695672D01*
X100266751Y-63679185D01*
X100220778Y-63568195D01*
X100220771Y-63568182D01*
X100144114Y-63453458D01*
X100144111Y-63453454D01*
X100046545Y-63355888D01*
X100046541Y-63355885D01*
X99931817Y-63279228D01*
X99931804Y-63279221D01*
X99804332Y-63226421D01*
X99804322Y-63226418D01*
X99668995Y-63199500D01*
X99668993Y-63199500D01*
X99531007Y-63199500D01*
X99531005Y-63199500D01*
X99395677Y-63226418D01*
X99395667Y-63226421D01*
X99268195Y-63279221D01*
X99268182Y-63279228D01*
X99153458Y-63355885D01*
X99153454Y-63355888D01*
X99055888Y-63453454D01*
X99055885Y-63453458D01*
X98979228Y-63568182D01*
X98979221Y-63568195D01*
X98926421Y-63695667D01*
X98926418Y-63695677D01*
X98899500Y-63831004D01*
X98899500Y-63831007D01*
X98899500Y-63968993D01*
X98899500Y-63968995D01*
X98899499Y-63968995D01*
X91639640Y-63968995D01*
X91710289Y-63921789D01*
X91821789Y-63810289D01*
X91909394Y-63679179D01*
X91969737Y-63533497D01*
X92000500Y-63378842D01*
X92000500Y-63221158D01*
X92000500Y-63221155D01*
X92000499Y-63221153D01*
X91985658Y-63146542D01*
X91969737Y-63066503D01*
X91937852Y-62989525D01*
X91909397Y-62920827D01*
X91909390Y-62920814D01*
X91821789Y-62789711D01*
X91821786Y-62789707D01*
X91801074Y-62768995D01*
X95199499Y-62768995D01*
X95226418Y-62904322D01*
X95226421Y-62904332D01*
X95279221Y-63031804D01*
X95279228Y-63031817D01*
X95355885Y-63146541D01*
X95355888Y-63146545D01*
X95453454Y-63244111D01*
X95453458Y-63244114D01*
X95568182Y-63320771D01*
X95568195Y-63320778D01*
X95695667Y-63373578D01*
X95695672Y-63373580D01*
X95695676Y-63373580D01*
X95695677Y-63373581D01*
X95831004Y-63400500D01*
X95831007Y-63400500D01*
X95968995Y-63400500D01*
X96077874Y-63378842D01*
X96104328Y-63373580D01*
X96231811Y-63320775D01*
X96346542Y-63244114D01*
X96444114Y-63146542D01*
X96520775Y-63031811D01*
X96573580Y-62904328D01*
X96584407Y-62849896D01*
X96600500Y-62768995D01*
X96600500Y-62631004D01*
X96573581Y-62495677D01*
X96573580Y-62495676D01*
X96573580Y-62495672D01*
X96532157Y-62395667D01*
X96520778Y-62368195D01*
X96520771Y-62368182D01*
X96444114Y-62253458D01*
X96444111Y-62253454D01*
X96346545Y-62155888D01*
X96346541Y-62155885D01*
X96231817Y-62079228D01*
X96231804Y-62079221D01*
X96104332Y-62026421D01*
X96104322Y-62026418D01*
X95968995Y-61999500D01*
X95968993Y-61999500D01*
X95831007Y-61999500D01*
X95831005Y-61999500D01*
X95695677Y-62026418D01*
X95695667Y-62026421D01*
X95568195Y-62079221D01*
X95568182Y-62079228D01*
X95453458Y-62155885D01*
X95453454Y-62155888D01*
X95355888Y-62253454D01*
X95355885Y-62253458D01*
X95279228Y-62368182D01*
X95279221Y-62368195D01*
X95226421Y-62495667D01*
X95226418Y-62495677D01*
X95199500Y-62631004D01*
X95199500Y-62631007D01*
X95199500Y-62768993D01*
X95199500Y-62768995D01*
X95199499Y-62768995D01*
X91801074Y-62768995D01*
X91710292Y-62678213D01*
X91710288Y-62678210D01*
X91579185Y-62590609D01*
X91579172Y-62590602D01*
X91433501Y-62530264D01*
X91433489Y-62530261D01*
X91278845Y-62499500D01*
X91278842Y-62499500D01*
X91121158Y-62499500D01*
X91121155Y-62499500D01*
X90966510Y-62530261D01*
X90966498Y-62530264D01*
X90820827Y-62590602D01*
X90820814Y-62590609D01*
X90689711Y-62678210D01*
X90689707Y-62678213D01*
X90578213Y-62789707D01*
X90578210Y-62789711D01*
X90490609Y-62920814D01*
X90490602Y-62920827D01*
X90430264Y-63066498D01*
X90430261Y-63066510D01*
X90399500Y-63221153D01*
X88700500Y-63221153D01*
X88700500Y-63131004D01*
X88673581Y-62995677D01*
X88673580Y-62995676D01*
X88673580Y-62995672D01*
X88671034Y-62989525D01*
X88620778Y-62868195D01*
X88620771Y-62868182D01*
X88544114Y-62753458D01*
X88544111Y-62753454D01*
X88446545Y-62655888D01*
X88446541Y-62655885D01*
X88331817Y-62579228D01*
X88331804Y-62579221D01*
X88204332Y-62526421D01*
X88204322Y-62526418D01*
X88068995Y-62499500D01*
X88068993Y-62499500D01*
X87931007Y-62499500D01*
X87931005Y-62499500D01*
X87795677Y-62526418D01*
X87795667Y-62526421D01*
X87668195Y-62579221D01*
X87668182Y-62579228D01*
X87553458Y-62655885D01*
X87553454Y-62655888D01*
X87455888Y-62753454D01*
X87455885Y-62753458D01*
X87379228Y-62868182D01*
X87379221Y-62868195D01*
X87326421Y-62995667D01*
X87326418Y-62995677D01*
X87299500Y-63131004D01*
X87299500Y-63131007D01*
X87299500Y-63268993D01*
X87299500Y-63268995D01*
X87299499Y-63268995D01*
X81715397Y-63268995D01*
X81819202Y-63225998D01*
X81831804Y-63220778D01*
X81831804Y-63220777D01*
X81831811Y-63220775D01*
X81946542Y-63144114D01*
X82044114Y-63046542D01*
X82120775Y-62931811D01*
X82173580Y-62804328D01*
X82189370Y-62724949D01*
X82200500Y-62668995D01*
X82200500Y-62531004D01*
X82173581Y-62395677D01*
X82173580Y-62395676D01*
X82173580Y-62395672D01*
X82173578Y-62395667D01*
X82120778Y-62268195D01*
X82120771Y-62268182D01*
X82044114Y-62153458D01*
X82044111Y-62153454D01*
X81946545Y-62055888D01*
X81946541Y-62055885D01*
X81831817Y-61979228D01*
X81831804Y-61979221D01*
X81704332Y-61926421D01*
X81704322Y-61926418D01*
X81568995Y-61899500D01*
X81568993Y-61899500D01*
X81431007Y-61899500D01*
X81431005Y-61899500D01*
X81295677Y-61926418D01*
X81295667Y-61926421D01*
X81168195Y-61979221D01*
X81168182Y-61979228D01*
X81053458Y-62055885D01*
X81053454Y-62055888D01*
X80955888Y-62153454D01*
X80955885Y-62153458D01*
X80879228Y-62268182D01*
X80879221Y-62268195D01*
X80826421Y-62395667D01*
X80826418Y-62395677D01*
X80799500Y-62531004D01*
X80799500Y-62531007D01*
X80799500Y-62668993D01*
X80799500Y-62668995D01*
X80799499Y-62668995D01*
X65800500Y-62668995D01*
X65800500Y-59068995D01*
X75999499Y-59068995D01*
X76026418Y-59204322D01*
X76026421Y-59204332D01*
X76079221Y-59331804D01*
X76079228Y-59331817D01*
X76155885Y-59446541D01*
X76155888Y-59446545D01*
X76253454Y-59544111D01*
X76253458Y-59544114D01*
X76368182Y-59620771D01*
X76368195Y-59620778D01*
X76495667Y-59673578D01*
X76495672Y-59673580D01*
X76495676Y-59673580D01*
X76495677Y-59673581D01*
X76631004Y-59700500D01*
X76631007Y-59700500D01*
X76768995Y-59700500D01*
X76873098Y-59679792D01*
X76904328Y-59673580D01*
X77031811Y-59620775D01*
X77106075Y-59571153D01*
X90399500Y-59571153D01*
X90399500Y-59728846D01*
X90430261Y-59883489D01*
X90430264Y-59883501D01*
X90490602Y-60029172D01*
X90490609Y-60029185D01*
X90578210Y-60160288D01*
X90578213Y-60160292D01*
X90689707Y-60271786D01*
X90689711Y-60271789D01*
X90820814Y-60359390D01*
X90820827Y-60359397D01*
X90966498Y-60419735D01*
X90966503Y-60419737D01*
X91116246Y-60449523D01*
X91121153Y-60450499D01*
X91121156Y-60450500D01*
X91121158Y-60450500D01*
X91278844Y-60450500D01*
X91278845Y-60450499D01*
X91433497Y-60419737D01*
X91579179Y-60359394D01*
X91710289Y-60271789D01*
X91821789Y-60160289D01*
X91909394Y-60029179D01*
X91969737Y-59883497D01*
X92000500Y-59728842D01*
X92000500Y-59571158D01*
X92000500Y-59571155D01*
X92000499Y-59571153D01*
X91986158Y-59499056D01*
X91969737Y-59416503D01*
X91969735Y-59416498D01*
X91909397Y-59270827D01*
X91909390Y-59270814D01*
X91821789Y-59139711D01*
X91821786Y-59139707D01*
X91710292Y-59028213D01*
X91710288Y-59028210D01*
X91579185Y-58940609D01*
X91579172Y-58940602D01*
X91433501Y-58880264D01*
X91433489Y-58880261D01*
X91278845Y-58849500D01*
X91278842Y-58849500D01*
X91121158Y-58849500D01*
X91121155Y-58849500D01*
X90966510Y-58880261D01*
X90966498Y-58880264D01*
X90820827Y-58940602D01*
X90820814Y-58940609D01*
X90689711Y-59028210D01*
X90689707Y-59028213D01*
X90578213Y-59139707D01*
X90578210Y-59139711D01*
X90490609Y-59270814D01*
X90490602Y-59270827D01*
X90430264Y-59416498D01*
X90430261Y-59416510D01*
X90399500Y-59571153D01*
X77106075Y-59571153D01*
X77146542Y-59544114D01*
X77146545Y-59544111D01*
X77213272Y-59477385D01*
X77244111Y-59446545D01*
X77244114Y-59446542D01*
X77320775Y-59331811D01*
X77373580Y-59204328D01*
X77386434Y-59139707D01*
X77400500Y-59068995D01*
X77400500Y-58931004D01*
X77373581Y-58795677D01*
X77373580Y-58795676D01*
X77373580Y-58795672D01*
X77362530Y-58768995D01*
X78199499Y-58768995D01*
X78226417Y-58904316D01*
X78226421Y-58904332D01*
X78279221Y-59031804D01*
X78279228Y-59031817D01*
X78355885Y-59146541D01*
X78355888Y-59146545D01*
X78453454Y-59244111D01*
X78453458Y-59244114D01*
X78568182Y-59320771D01*
X78568195Y-59320778D01*
X78695667Y-59373578D01*
X78695672Y-59373580D01*
X78695676Y-59373580D01*
X78695677Y-59373581D01*
X78831004Y-59400500D01*
X78831007Y-59400500D01*
X78968995Y-59400500D01*
X79060041Y-59382389D01*
X79104328Y-59373580D01*
X79231811Y-59320775D01*
X79346542Y-59244114D01*
X79444114Y-59146542D01*
X79520775Y-59031811D01*
X79573580Y-58904328D01*
X79573581Y-58904321D01*
X79573583Y-58904316D01*
X79600500Y-58768995D01*
X79600500Y-58631004D01*
X79573581Y-58495677D01*
X79573580Y-58495676D01*
X79573580Y-58495672D01*
X79544793Y-58426174D01*
X79520778Y-58368195D01*
X79520771Y-58368182D01*
X79444114Y-58253458D01*
X79444111Y-58253454D01*
X79346545Y-58155888D01*
X79346541Y-58155885D01*
X79231817Y-58079228D01*
X79231804Y-58079221D01*
X79104332Y-58026421D01*
X79104322Y-58026418D01*
X78968995Y-57999500D01*
X78968993Y-57999500D01*
X78831007Y-57999500D01*
X78831005Y-57999500D01*
X78695677Y-58026418D01*
X78695667Y-58026421D01*
X78568195Y-58079221D01*
X78568182Y-58079228D01*
X78453458Y-58155885D01*
X78453454Y-58155888D01*
X78355888Y-58253454D01*
X78355885Y-58253458D01*
X78279228Y-58368182D01*
X78279221Y-58368195D01*
X78226421Y-58495667D01*
X78226418Y-58495677D01*
X78199500Y-58631004D01*
X78199500Y-58631007D01*
X78199500Y-58768993D01*
X78199500Y-58768995D01*
X78199499Y-58768995D01*
X77362530Y-58768995D01*
X77344139Y-58724594D01*
X77322517Y-58672393D01*
X77322505Y-58672366D01*
X77320775Y-58668189D01*
X77320771Y-58668182D01*
X77244114Y-58553458D01*
X77244111Y-58553454D01*
X77146545Y-58455888D01*
X77146541Y-58455885D01*
X77031817Y-58379228D01*
X77031804Y-58379221D01*
X76904332Y-58326421D01*
X76904322Y-58326418D01*
X76768995Y-58299500D01*
X76768993Y-58299500D01*
X76631007Y-58299500D01*
X76631005Y-58299500D01*
X76495677Y-58326418D01*
X76495667Y-58326421D01*
X76368195Y-58379221D01*
X76368182Y-58379228D01*
X76253458Y-58455885D01*
X76253454Y-58455888D01*
X76155888Y-58553454D01*
X76155885Y-58553458D01*
X76079228Y-58668182D01*
X76079221Y-58668195D01*
X76026421Y-58795667D01*
X76026418Y-58795677D01*
X75999500Y-58931004D01*
X75999500Y-58931007D01*
X75999500Y-59068993D01*
X75999500Y-59068995D01*
X75999499Y-59068995D01*
X65800500Y-59068995D01*
X65800500Y-56153713D01*
X102274500Y-56153713D01*
X102274500Y-56366286D01*
X102307753Y-56576239D01*
X102373444Y-56778414D01*
X102469951Y-56967820D01*
X102594890Y-57139786D01*
X102745213Y-57290109D01*
X102917182Y-57415050D01*
X102925946Y-57419516D01*
X102976742Y-57467491D01*
X102993536Y-57535312D01*
X102970998Y-57601447D01*
X102925946Y-57640484D01*
X102917182Y-57644949D01*
X102745213Y-57769890D01*
X102594890Y-57920213D01*
X102469951Y-58092179D01*
X102373444Y-58281585D01*
X102373443Y-58281587D01*
X102373443Y-58281588D01*
X102345303Y-58368195D01*
X102307753Y-58483760D01*
X102274500Y-58693713D01*
X102274500Y-58906286D01*
X102307753Y-59116239D01*
X102307753Y-59116241D01*
X102307754Y-59116243D01*
X102361476Y-59281583D01*
X102373444Y-59318414D01*
X102469951Y-59507820D01*
X102594890Y-59679786D01*
X102745213Y-59830109D01*
X102917182Y-59955050D01*
X102925946Y-59959516D01*
X102976742Y-60007491D01*
X102993536Y-60075312D01*
X102970998Y-60141447D01*
X102925946Y-60180484D01*
X102917182Y-60184949D01*
X102745213Y-60309890D01*
X102594890Y-60460213D01*
X102469951Y-60632179D01*
X102373444Y-60821585D01*
X102307753Y-61023760D01*
X102274500Y-61233713D01*
X102274500Y-61446286D01*
X102303149Y-61627173D01*
X102307754Y-61656243D01*
X102361476Y-61821583D01*
X102373444Y-61858414D01*
X102469951Y-62047820D01*
X102594890Y-62219786D01*
X102745213Y-62370109D01*
X102917182Y-62495050D01*
X102925946Y-62499516D01*
X102976742Y-62547491D01*
X102993536Y-62615312D01*
X102970998Y-62681447D01*
X102925946Y-62720484D01*
X102917182Y-62724949D01*
X102745213Y-62849890D01*
X102594890Y-63000213D01*
X102469951Y-63172179D01*
X102373444Y-63361585D01*
X102307753Y-63563760D01*
X102274500Y-63773713D01*
X102274500Y-63986286D01*
X102303311Y-64168195D01*
X102307754Y-64196243D01*
X102361476Y-64361583D01*
X102373444Y-64398414D01*
X102469951Y-64587820D01*
X102594890Y-64759786D01*
X102745213Y-64910109D01*
X102917179Y-65035048D01*
X102917181Y-65035049D01*
X102917184Y-65035051D01*
X103106588Y-65131557D01*
X103308757Y-65197246D01*
X103518713Y-65230500D01*
X103518714Y-65230500D01*
X103731286Y-65230500D01*
X103731287Y-65230500D01*
X103941243Y-65197246D01*
X104143412Y-65131557D01*
X104332816Y-65035051D01*
X104381748Y-64999500D01*
X104504786Y-64910109D01*
X104504788Y-64910106D01*
X104504792Y-64910104D01*
X104655104Y-64759792D01*
X104655106Y-64759788D01*
X104655109Y-64759786D01*
X104780048Y-64587820D01*
X104780047Y-64587820D01*
X104780051Y-64587816D01*
X104784514Y-64579054D01*
X104832488Y-64528259D01*
X104900308Y-64511463D01*
X104966444Y-64533999D01*
X105005486Y-64579056D01*
X105009951Y-64587820D01*
X105134890Y-64759786D01*
X105285213Y-64910109D01*
X105457179Y-65035048D01*
X105457181Y-65035049D01*
X105457184Y-65035051D01*
X105646588Y-65131557D01*
X105848757Y-65197246D01*
X106058713Y-65230500D01*
X106058714Y-65230500D01*
X106271286Y-65230500D01*
X106271287Y-65230500D01*
X106481243Y-65197246D01*
X106683412Y-65131557D01*
X106872816Y-65035051D01*
X106921748Y-64999500D01*
X107044786Y-64910109D01*
X107044788Y-64910106D01*
X107044792Y-64910104D01*
X107195104Y-64759792D01*
X107195106Y-64759788D01*
X107195109Y-64759786D01*
X107320048Y-64587820D01*
X107320047Y-64587820D01*
X107320051Y-64587816D01*
X107416557Y-64398412D01*
X107482246Y-64196243D01*
X107515500Y-63986287D01*
X107515500Y-63773713D01*
X107482246Y-63563757D01*
X107416557Y-63361588D01*
X107320051Y-63172184D01*
X107320049Y-63172181D01*
X107320048Y-63172179D01*
X107195109Y-63000213D01*
X107044786Y-62849890D01*
X106872820Y-62724951D01*
X106872115Y-62724591D01*
X106864054Y-62720485D01*
X106813259Y-62672512D01*
X106796463Y-62604692D01*
X106818999Y-62538556D01*
X106864054Y-62499515D01*
X106872816Y-62495051D01*
X106894789Y-62479086D01*
X107044786Y-62370109D01*
X107044788Y-62370106D01*
X107044792Y-62370104D01*
X107195104Y-62219792D01*
X107195106Y-62219788D01*
X107195109Y-62219786D01*
X107320048Y-62047820D01*
X107320047Y-62047820D01*
X107320051Y-62047816D01*
X107416557Y-61858412D01*
X107482246Y-61656243D01*
X107515500Y-61446287D01*
X107515500Y-61233713D01*
X107482246Y-61023757D01*
X107416557Y-60821588D01*
X107320051Y-60632184D01*
X107320049Y-60632181D01*
X107320048Y-60632179D01*
X107195109Y-60460213D01*
X107044786Y-60309890D01*
X106872820Y-60184951D01*
X106872115Y-60184591D01*
X106864054Y-60180485D01*
X106813259Y-60132512D01*
X106796463Y-60064692D01*
X106818999Y-59998556D01*
X106864054Y-59959515D01*
X106872816Y-59955051D01*
X106971297Y-59883501D01*
X107044786Y-59830109D01*
X107044788Y-59830106D01*
X107044792Y-59830104D01*
X107195104Y-59679792D01*
X107195106Y-59679788D01*
X107195109Y-59679786D01*
X107320048Y-59507820D01*
X107320047Y-59507820D01*
X107320051Y-59507816D01*
X107416557Y-59318412D01*
X107428525Y-59281577D01*
X111492000Y-59281577D01*
X111492000Y-59478422D01*
X111522790Y-59672826D01*
X111583617Y-59860029D01*
X111658753Y-60007491D01*
X111672976Y-60035405D01*
X111788672Y-60194646D01*
X111927854Y-60333828D01*
X112087095Y-60449524D01*
X112210492Y-60512397D01*
X112263713Y-60539515D01*
X112314509Y-60587489D01*
X112331304Y-60655310D01*
X112308767Y-60721445D01*
X112263713Y-60760485D01*
X112087094Y-60850476D01*
X112048731Y-60878349D01*
X111927854Y-60966172D01*
X111927852Y-60966174D01*
X111927851Y-60966174D01*
X111788674Y-61105351D01*
X111788674Y-61105352D01*
X111788672Y-61105354D01*
X111738985Y-61173741D01*
X111672976Y-61264594D01*
X111583617Y-61439970D01*
X111522790Y-61627173D01*
X111492000Y-61821577D01*
X111492000Y-62018422D01*
X111522790Y-62212826D01*
X111583617Y-62400029D01*
X111658753Y-62547491D01*
X111672976Y-62575405D01*
X111788672Y-62734646D01*
X111927854Y-62873828D01*
X112087095Y-62989524D01*
X112198998Y-63046541D01*
X112263713Y-63079515D01*
X112314509Y-63127489D01*
X112331304Y-63195310D01*
X112308767Y-63261445D01*
X112263713Y-63300485D01*
X112087094Y-63390476D01*
X112048731Y-63418349D01*
X111927854Y-63506172D01*
X111927852Y-63506174D01*
X111927851Y-63506174D01*
X111788674Y-63645351D01*
X111788674Y-63645352D01*
X111788672Y-63645354D01*
X111787810Y-63646541D01*
X111672976Y-63804594D01*
X111583617Y-63979970D01*
X111522790Y-64167173D01*
X111492000Y-64361577D01*
X111492000Y-64558422D01*
X111522790Y-64752826D01*
X111583617Y-64940029D01*
X111662924Y-65095677D01*
X111672976Y-65115405D01*
X111788672Y-65274646D01*
X111927854Y-65413828D01*
X112087095Y-65529524D01*
X112206968Y-65590602D01*
X112263713Y-65619515D01*
X112314509Y-65667489D01*
X112331304Y-65735310D01*
X112308767Y-65801445D01*
X112263713Y-65840485D01*
X112087094Y-65930476D01*
X112027766Y-65973581D01*
X111927854Y-66046172D01*
X111927852Y-66046174D01*
X111927851Y-66046174D01*
X111788674Y-66185351D01*
X111788674Y-66185352D01*
X111788672Y-66185354D01*
X111762661Y-66221155D01*
X111672976Y-66344594D01*
X111583617Y-66519970D01*
X111522790Y-66707173D01*
X111492000Y-66901577D01*
X111492000Y-67098422D01*
X111522790Y-67292826D01*
X111583617Y-67480029D01*
X111634162Y-67579228D01*
X111672976Y-67655405D01*
X111788672Y-67814646D01*
X111927854Y-67953828D01*
X112087095Y-68069524D01*
X112207757Y-68131004D01*
X112263713Y-68159515D01*
X112314509Y-68207489D01*
X112331304Y-68275310D01*
X112308767Y-68341445D01*
X112263713Y-68380485D01*
X112087094Y-68470476D01*
X112002685Y-68531804D01*
X111927854Y-68586172D01*
X111927852Y-68586174D01*
X111927851Y-68586174D01*
X111788674Y-68725351D01*
X111788674Y-68725352D01*
X111788672Y-68725354D01*
X111775042Y-68744114D01*
X111672976Y-68884594D01*
X111583617Y-69059970D01*
X111522790Y-69247173D01*
X111492000Y-69441577D01*
X111492000Y-69638422D01*
X111522790Y-69832826D01*
X111583617Y-70020029D01*
X111664537Y-70178842D01*
X111672976Y-70195405D01*
X111788672Y-70354646D01*
X111927854Y-70493828D01*
X112087095Y-70609524D01*
X112210492Y-70672397D01*
X112263713Y-70699515D01*
X112314509Y-70747489D01*
X112331304Y-70815310D01*
X112308767Y-70881445D01*
X112263713Y-70920485D01*
X112087094Y-71010476D01*
X111996241Y-71076485D01*
X111927854Y-71126172D01*
X111927852Y-71126174D01*
X111927851Y-71126174D01*
X111788674Y-71265351D01*
X111788674Y-71265352D01*
X111788672Y-71265354D01*
X111738985Y-71333741D01*
X111672976Y-71424594D01*
X111583617Y-71599970D01*
X111522790Y-71787173D01*
X111492000Y-71981577D01*
X111492000Y-72178422D01*
X111522790Y-72372826D01*
X111583617Y-72560029D01*
X111671332Y-72732179D01*
X111672976Y-72735405D01*
X111788672Y-72894646D01*
X111927854Y-73033828D01*
X112087095Y-73149524D01*
X112206352Y-73210288D01*
X112263713Y-73239515D01*
X112314509Y-73287489D01*
X112331304Y-73355310D01*
X112308767Y-73421445D01*
X112263713Y-73460485D01*
X112087094Y-73550476D01*
X111996241Y-73616485D01*
X111927854Y-73666172D01*
X111927852Y-73666174D01*
X111927851Y-73666174D01*
X111788674Y-73805351D01*
X111788674Y-73805352D01*
X111788672Y-73805354D01*
X111738985Y-73873741D01*
X111672976Y-73964594D01*
X111583617Y-74139970D01*
X111522790Y-74327173D01*
X111492000Y-74521577D01*
X111492000Y-74718422D01*
X111522790Y-74912826D01*
X111583617Y-75100029D01*
X111630650Y-75192335D01*
X111672976Y-75275405D01*
X111788672Y-75434646D01*
X111927854Y-75573828D01*
X112087095Y-75689524D01*
X112210492Y-75752397D01*
X112263713Y-75779515D01*
X112314509Y-75827489D01*
X112331304Y-75895310D01*
X112308767Y-75961445D01*
X112263713Y-76000485D01*
X112087094Y-76090476D01*
X112030194Y-76131817D01*
X111927854Y-76206172D01*
X111927852Y-76206174D01*
X111927851Y-76206174D01*
X111788674Y-76345351D01*
X111788674Y-76345352D01*
X111788672Y-76345354D01*
X111764063Y-76379225D01*
X111672976Y-76504594D01*
X111583617Y-76679970D01*
X111522790Y-76867173D01*
X111492000Y-77061577D01*
X111492000Y-77258422D01*
X111522790Y-77452826D01*
X111583617Y-77640029D01*
X111672976Y-77815405D01*
X111788672Y-77974646D01*
X111927854Y-78113828D01*
X112087095Y-78229524D01*
X112169955Y-78271743D01*
X112262470Y-78318882D01*
X112262472Y-78318882D01*
X112262475Y-78318884D01*
X112362817Y-78351487D01*
X112449673Y-78379709D01*
X112644078Y-78410500D01*
X112644083Y-78410500D01*
X112840922Y-78410500D01*
X113035326Y-78379709D01*
X113222525Y-78318884D01*
X113397905Y-78229524D01*
X113557146Y-78113828D01*
X113696328Y-77974646D01*
X113812024Y-77815405D01*
X113901384Y-77640025D01*
X113962209Y-77452826D01*
X113967722Y-77418021D01*
X113993000Y-77258422D01*
X113993000Y-77061577D01*
X113962209Y-76867173D01*
X113933337Y-76778316D01*
X113901384Y-76679975D01*
X113901382Y-76679972D01*
X113901382Y-76679970D01*
X113812023Y-76504594D01*
X113696328Y-76345354D01*
X113557146Y-76206172D01*
X113454806Y-76131817D01*
X113397903Y-76090474D01*
X113221287Y-76000485D01*
X113170490Y-75952511D01*
X113153695Y-75884690D01*
X113176232Y-75818555D01*
X113221287Y-75779515D01*
X113397903Y-75689525D01*
X113397902Y-75689525D01*
X113397905Y-75689524D01*
X113557146Y-75573828D01*
X113696328Y-75434646D01*
X113812024Y-75275405D01*
X113901384Y-75100025D01*
X113962209Y-74912826D01*
X113980079Y-74799999D01*
X113993000Y-74718422D01*
X113993000Y-74521577D01*
X113962209Y-74327173D01*
X113903933Y-74147820D01*
X113901384Y-74139975D01*
X113901382Y-74139972D01*
X113901382Y-74139970D01*
X113812023Y-73964594D01*
X113807533Y-73958414D01*
X113696328Y-73805354D01*
X113557146Y-73666172D01*
X113477525Y-73608324D01*
X113397903Y-73550474D01*
X113221287Y-73460485D01*
X113170490Y-73412511D01*
X113153695Y-73344690D01*
X113176232Y-73278555D01*
X113221287Y-73239515D01*
X113397903Y-73149525D01*
X113397902Y-73149525D01*
X113397905Y-73149524D01*
X113557146Y-73033828D01*
X113696328Y-72894646D01*
X113812024Y-72735405D01*
X113901384Y-72560025D01*
X113962209Y-72372826D01*
X113970447Y-72320814D01*
X113993000Y-72178422D01*
X113993000Y-71981577D01*
X113962209Y-71787173D01*
X113903933Y-71607820D01*
X113901384Y-71599975D01*
X113901382Y-71599972D01*
X113901382Y-71599970D01*
X113821969Y-71444114D01*
X113812024Y-71424595D01*
X113696328Y-71265354D01*
X113557146Y-71126172D01*
X113477525Y-71068324D01*
X113397903Y-71010474D01*
X113221287Y-70920485D01*
X113170490Y-70872511D01*
X113153695Y-70804690D01*
X113176232Y-70738555D01*
X113221287Y-70699515D01*
X113397903Y-70609525D01*
X113397902Y-70609525D01*
X113397905Y-70609524D01*
X113557146Y-70493828D01*
X113696328Y-70354646D01*
X113812024Y-70195405D01*
X113901384Y-70020025D01*
X113962209Y-69832826D01*
X113966724Y-69804322D01*
X113993000Y-69638422D01*
X113993000Y-69441577D01*
X113962209Y-69247173D01*
X113903933Y-69067820D01*
X113901384Y-69059975D01*
X113901382Y-69059972D01*
X113901382Y-69059970D01*
X113812023Y-68884594D01*
X113807533Y-68878414D01*
X113696328Y-68725354D01*
X113557146Y-68586172D01*
X113477525Y-68528324D01*
X113397903Y-68470474D01*
X113221287Y-68380485D01*
X113170490Y-68332511D01*
X113153695Y-68264690D01*
X113176232Y-68198555D01*
X113221287Y-68159515D01*
X113397903Y-68069525D01*
X113397902Y-68069525D01*
X113397905Y-68069524D01*
X113557146Y-67953828D01*
X113696328Y-67814646D01*
X113812024Y-67655405D01*
X113901384Y-67480025D01*
X113962209Y-67292826D01*
X113965866Y-67269735D01*
X113993000Y-67098422D01*
X113993000Y-66901577D01*
X113962209Y-66707173D01*
X113933987Y-66620317D01*
X113901384Y-66519975D01*
X113901382Y-66519972D01*
X113901382Y-66519970D01*
X113840509Y-66400500D01*
X113812024Y-66344595D01*
X113696328Y-66185354D01*
X113557146Y-66046172D01*
X113457232Y-65973580D01*
X113397903Y-65930474D01*
X113221287Y-65840485D01*
X113170490Y-65792511D01*
X113153695Y-65724690D01*
X113176232Y-65658555D01*
X113221287Y-65619515D01*
X113397903Y-65529525D01*
X113397902Y-65529525D01*
X113397905Y-65529524D01*
X113557146Y-65413828D01*
X113696328Y-65274646D01*
X113812024Y-65115405D01*
X113901384Y-64940025D01*
X113962209Y-64752826D01*
X113969890Y-64704328D01*
X113993000Y-64558422D01*
X113993000Y-64361577D01*
X113962209Y-64167173D01*
X113910943Y-64009394D01*
X113901384Y-63979975D01*
X113901382Y-63979972D01*
X113901382Y-63979970D01*
X113825480Y-63831004D01*
X113812024Y-63804595D01*
X113696328Y-63645354D01*
X113557146Y-63506172D01*
X113436269Y-63418349D01*
X113397903Y-63390474D01*
X113221287Y-63300485D01*
X113170490Y-63252511D01*
X113153695Y-63184690D01*
X113176232Y-63118555D01*
X113221287Y-63079515D01*
X113397903Y-62989525D01*
X113397902Y-62989525D01*
X113397905Y-62989524D01*
X113557146Y-62873828D01*
X113696328Y-62734646D01*
X113812024Y-62575405D01*
X113901384Y-62400025D01*
X113962209Y-62212826D01*
X113971227Y-62155888D01*
X113993000Y-62018422D01*
X113993000Y-61821577D01*
X175012000Y-61821577D01*
X175012000Y-62018422D01*
X175042790Y-62212826D01*
X175103617Y-62400029D01*
X175178753Y-62547491D01*
X175192976Y-62575405D01*
X175308672Y-62734646D01*
X175447854Y-62873828D01*
X175607095Y-62989524D01*
X175718998Y-63046541D01*
X175783713Y-63079515D01*
X175834509Y-63127489D01*
X175851304Y-63195310D01*
X175828767Y-63261445D01*
X175783713Y-63300485D01*
X175607094Y-63390476D01*
X175568731Y-63418349D01*
X175447854Y-63506172D01*
X175447852Y-63506174D01*
X175447851Y-63506174D01*
X175308674Y-63645351D01*
X175308674Y-63645352D01*
X175308672Y-63645354D01*
X175307810Y-63646541D01*
X175192976Y-63804594D01*
X175103617Y-63979970D01*
X175042790Y-64167173D01*
X175012000Y-64361577D01*
X175012000Y-64558422D01*
X175042790Y-64752826D01*
X175103617Y-64940029D01*
X175182924Y-65095677D01*
X175192976Y-65115405D01*
X175308672Y-65274646D01*
X175447854Y-65413828D01*
X175607095Y-65529524D01*
X175726968Y-65590602D01*
X175783713Y-65619515D01*
X175834509Y-65667489D01*
X175851304Y-65735310D01*
X175828767Y-65801445D01*
X175783713Y-65840485D01*
X175607094Y-65930476D01*
X175547766Y-65973581D01*
X175447854Y-66046172D01*
X175447852Y-66046174D01*
X175447851Y-66046174D01*
X175308674Y-66185351D01*
X175308674Y-66185352D01*
X175308672Y-66185354D01*
X175282661Y-66221155D01*
X175192976Y-66344594D01*
X175103617Y-66519970D01*
X175042790Y-66707173D01*
X175012000Y-66901577D01*
X175012000Y-67098422D01*
X175042790Y-67292826D01*
X175103617Y-67480029D01*
X175154162Y-67579228D01*
X175192976Y-67655405D01*
X175308672Y-67814646D01*
X175447854Y-67953828D01*
X175607095Y-68069524D01*
X175727757Y-68131004D01*
X175783713Y-68159515D01*
X175834509Y-68207489D01*
X175851304Y-68275310D01*
X175828767Y-68341445D01*
X175783713Y-68380485D01*
X175607094Y-68470476D01*
X175522685Y-68531804D01*
X175447854Y-68586172D01*
X175447852Y-68586174D01*
X175447851Y-68586174D01*
X175308674Y-68725351D01*
X175308674Y-68725352D01*
X175308672Y-68725354D01*
X175295042Y-68744114D01*
X175192976Y-68884594D01*
X175103617Y-69059970D01*
X175042790Y-69247173D01*
X175012000Y-69441577D01*
X175012000Y-69638422D01*
X175042790Y-69832826D01*
X175103617Y-70020029D01*
X175184537Y-70178842D01*
X175192976Y-70195405D01*
X175308672Y-70354646D01*
X175447854Y-70493828D01*
X175607095Y-70609524D01*
X175730492Y-70672397D01*
X175783713Y-70699515D01*
X175834509Y-70747489D01*
X175851304Y-70815310D01*
X175828767Y-70881445D01*
X175783713Y-70920485D01*
X175607094Y-71010476D01*
X175516241Y-71076485D01*
X175447854Y-71126172D01*
X175447852Y-71126174D01*
X175447851Y-71126174D01*
X175308674Y-71265351D01*
X175308674Y-71265352D01*
X175308672Y-71265354D01*
X175258985Y-71333741D01*
X175192976Y-71424594D01*
X175103617Y-71599970D01*
X175042790Y-71787173D01*
X175012000Y-71981577D01*
X175012000Y-72178422D01*
X175042790Y-72372826D01*
X175103617Y-72560029D01*
X175191332Y-72732179D01*
X175192976Y-72735405D01*
X175308672Y-72894646D01*
X175447854Y-73033828D01*
X175607095Y-73149524D01*
X175689955Y-73191743D01*
X175782470Y-73238882D01*
X175782472Y-73238882D01*
X175782475Y-73238884D01*
X175882817Y-73271487D01*
X175969673Y-73299709D01*
X176164078Y-73330500D01*
X176164083Y-73330500D01*
X176360922Y-73330500D01*
X176555326Y-73299709D01*
X176592935Y-73287489D01*
X176742525Y-73238884D01*
X176917905Y-73149524D01*
X177077146Y-73033828D01*
X177216328Y-72894646D01*
X177332024Y-72735405D01*
X177421384Y-72560025D01*
X177482209Y-72372826D01*
X177490447Y-72320814D01*
X177513000Y-72178422D01*
X177513000Y-71981577D01*
X177482209Y-71787173D01*
X177423933Y-71607820D01*
X177421384Y-71599975D01*
X177421382Y-71599972D01*
X177421382Y-71599970D01*
X177341969Y-71444114D01*
X177332024Y-71424595D01*
X177216328Y-71265354D01*
X177077146Y-71126172D01*
X176997525Y-71068324D01*
X176917903Y-71010474D01*
X176741287Y-70920485D01*
X176690490Y-70872511D01*
X176673695Y-70804690D01*
X176696232Y-70738555D01*
X176741287Y-70699515D01*
X176917903Y-70609525D01*
X176917902Y-70609525D01*
X176917905Y-70609524D01*
X177077146Y-70493828D01*
X177216328Y-70354646D01*
X177332024Y-70195405D01*
X177421384Y-70020025D01*
X177482209Y-69832826D01*
X177486724Y-69804322D01*
X177513000Y-69638422D01*
X177513000Y-69441577D01*
X177482209Y-69247173D01*
X177423933Y-69067820D01*
X177421384Y-69059975D01*
X177421382Y-69059972D01*
X177421382Y-69059970D01*
X177332023Y-68884594D01*
X177327533Y-68878414D01*
X177216328Y-68725354D01*
X177077146Y-68586172D01*
X176997525Y-68528324D01*
X176917903Y-68470474D01*
X176741287Y-68380485D01*
X176690490Y-68332511D01*
X176673695Y-68264690D01*
X176696232Y-68198555D01*
X176741287Y-68159515D01*
X176917903Y-68069525D01*
X176917902Y-68069525D01*
X176917905Y-68069524D01*
X177077146Y-67953828D01*
X177216328Y-67814646D01*
X177332024Y-67655405D01*
X177421384Y-67480025D01*
X177482209Y-67292826D01*
X177485866Y-67269735D01*
X177513000Y-67098422D01*
X177513000Y-66901577D01*
X177482209Y-66707173D01*
X177453987Y-66620317D01*
X177421384Y-66519975D01*
X177421382Y-66519972D01*
X177421382Y-66519970D01*
X177360509Y-66400500D01*
X177332024Y-66344595D01*
X177216328Y-66185354D01*
X177077146Y-66046172D01*
X176977232Y-65973580D01*
X176917903Y-65930474D01*
X176741287Y-65840485D01*
X176690490Y-65792511D01*
X176673695Y-65724690D01*
X176696232Y-65658555D01*
X176741287Y-65619515D01*
X176917903Y-65529525D01*
X176917902Y-65529525D01*
X176917905Y-65529524D01*
X177077146Y-65413828D01*
X177216328Y-65274646D01*
X177332024Y-65115405D01*
X177421384Y-64940025D01*
X177482209Y-64752826D01*
X177489890Y-64704328D01*
X177513000Y-64558422D01*
X177513000Y-64361577D01*
X177482209Y-64167173D01*
X177430943Y-64009394D01*
X177421384Y-63979975D01*
X177421382Y-63979972D01*
X177421382Y-63979970D01*
X177345480Y-63831004D01*
X177332024Y-63804595D01*
X177216328Y-63645354D01*
X177077146Y-63506172D01*
X176956269Y-63418349D01*
X176917903Y-63390474D01*
X176741287Y-63300485D01*
X176690490Y-63252511D01*
X176673695Y-63184690D01*
X176696232Y-63118555D01*
X176741287Y-63079515D01*
X176917903Y-62989525D01*
X176917902Y-62989525D01*
X176917905Y-62989524D01*
X177077146Y-62873828D01*
X177216328Y-62734646D01*
X177332024Y-62575405D01*
X177421384Y-62400025D01*
X177482209Y-62212826D01*
X177491227Y-62155888D01*
X177513000Y-62018422D01*
X177513000Y-61821577D01*
X177482209Y-61627173D01*
X177423435Y-61446287D01*
X177421384Y-61439975D01*
X177421382Y-61439972D01*
X177421382Y-61439970D01*
X177332023Y-61264594D01*
X177216328Y-61105354D01*
X177077146Y-60966172D01*
X176917905Y-60850476D01*
X176861209Y-60821588D01*
X176742529Y-60761117D01*
X176555326Y-60700290D01*
X176360922Y-60669500D01*
X176360917Y-60669500D01*
X176164083Y-60669500D01*
X176164078Y-60669500D01*
X175969673Y-60700290D01*
X175782470Y-60761117D01*
X175607094Y-60850476D01*
X175568731Y-60878349D01*
X175447854Y-60966172D01*
X175447852Y-60966174D01*
X175447851Y-60966174D01*
X175308674Y-61105351D01*
X175308674Y-61105352D01*
X175308672Y-61105354D01*
X175258985Y-61173741D01*
X175192976Y-61264594D01*
X175103617Y-61439970D01*
X175042790Y-61627173D01*
X175012000Y-61821577D01*
X113993000Y-61821577D01*
X113962209Y-61627173D01*
X113903435Y-61446287D01*
X113901384Y-61439975D01*
X113901382Y-61439972D01*
X113901382Y-61439970D01*
X113812023Y-61264594D01*
X113696328Y-61105354D01*
X113557146Y-60966172D01*
X113436269Y-60878349D01*
X113397903Y-60850474D01*
X113221287Y-60760485D01*
X113170490Y-60712511D01*
X113153695Y-60644690D01*
X113176232Y-60578555D01*
X113221287Y-60539515D01*
X113397903Y-60449525D01*
X113397902Y-60449525D01*
X113397905Y-60449524D01*
X113557146Y-60333828D01*
X113696328Y-60194646D01*
X113812024Y-60035405D01*
X113901384Y-59860025D01*
X113962209Y-59672826D01*
X113993000Y-59478422D01*
X113993000Y-59281577D01*
X113962209Y-59087173D01*
X113914586Y-58940606D01*
X113901384Y-58899975D01*
X113901382Y-58899972D01*
X113901382Y-58899970D01*
X113812023Y-58724594D01*
X113696328Y-58565354D01*
X113557146Y-58426172D01*
X113403192Y-58314317D01*
X113360528Y-58258988D01*
X113354549Y-58189374D01*
X113387155Y-58127579D01*
X113447994Y-58093222D01*
X113476079Y-58090000D01*
X113540328Y-58090000D01*
X113540344Y-58089999D01*
X113599872Y-58083598D01*
X113599879Y-58083596D01*
X113734586Y-58033354D01*
X113734593Y-58033350D01*
X113849687Y-57947190D01*
X113849690Y-57947187D01*
X113935850Y-57832093D01*
X113935854Y-57832086D01*
X113986096Y-57697379D01*
X113986098Y-57697372D01*
X113992499Y-57637844D01*
X113992500Y-57637827D01*
X113992500Y-57090000D01*
X113175512Y-57090000D01*
X113208425Y-57032993D01*
X113242500Y-56905826D01*
X113242500Y-56774174D01*
X113208425Y-56647007D01*
X113175512Y-56590000D01*
X113992500Y-56590000D01*
X113992500Y-56042172D01*
X113992499Y-56042155D01*
X113986098Y-55982627D01*
X113986096Y-55982620D01*
X113935854Y-55847913D01*
X113935850Y-55847906D01*
X113849690Y-55732812D01*
X113849687Y-55732809D01*
X113734593Y-55646649D01*
X113734586Y-55646645D01*
X113599879Y-55596403D01*
X113599872Y-55596401D01*
X113540344Y-55590000D01*
X112992500Y-55590000D01*
X112992500Y-56406988D01*
X112935493Y-56374075D01*
X112808326Y-56340000D01*
X112676674Y-56340000D01*
X112549507Y-56374075D01*
X112492500Y-56406988D01*
X112492500Y-55590000D01*
X111944655Y-55590000D01*
X111885127Y-55596401D01*
X111885120Y-55596403D01*
X111750413Y-55646645D01*
X111750406Y-55646649D01*
X111635312Y-55732809D01*
X111635309Y-55732812D01*
X111549149Y-55847906D01*
X111549145Y-55847913D01*
X111498903Y-55982620D01*
X111498901Y-55982627D01*
X111492500Y-56042155D01*
X111492500Y-56590000D01*
X112309488Y-56590000D01*
X112276575Y-56647007D01*
X112242500Y-56774174D01*
X112242500Y-56905826D01*
X112276575Y-57032993D01*
X112309488Y-57090000D01*
X111492500Y-57090000D01*
X111492500Y-57637844D01*
X111498901Y-57697372D01*
X111498903Y-57697379D01*
X111549145Y-57832086D01*
X111549149Y-57832093D01*
X111635309Y-57947187D01*
X111635312Y-57947190D01*
X111750406Y-58033350D01*
X111750413Y-58033354D01*
X111885120Y-58083596D01*
X111885127Y-58083598D01*
X111944655Y-58089999D01*
X111944672Y-58090000D01*
X112008921Y-58090000D01*
X112075960Y-58109685D01*
X112121715Y-58162489D01*
X112131659Y-58231647D01*
X112102634Y-58295203D01*
X112081807Y-58314317D01*
X111927854Y-58426172D01*
X111927852Y-58426174D01*
X111927851Y-58426174D01*
X111788674Y-58565351D01*
X111788674Y-58565352D01*
X111788672Y-58565354D01*
X111740974Y-58631004D01*
X111672976Y-58724594D01*
X111583617Y-58899970D01*
X111522790Y-59087173D01*
X111492000Y-59281577D01*
X107428525Y-59281577D01*
X107482246Y-59116243D01*
X107515500Y-58906287D01*
X107515500Y-58693713D01*
X107482246Y-58483757D01*
X107416557Y-58281588D01*
X107320051Y-58092184D01*
X107320049Y-58092181D01*
X107320048Y-58092179D01*
X107195109Y-57920213D01*
X107044786Y-57769890D01*
X106872820Y-57644951D01*
X106872115Y-57644591D01*
X106864054Y-57640485D01*
X106813259Y-57592512D01*
X106796463Y-57524692D01*
X106818999Y-57458556D01*
X106864054Y-57419515D01*
X106872816Y-57415051D01*
X106976116Y-57340000D01*
X107044786Y-57290109D01*
X107044788Y-57290106D01*
X107044792Y-57290104D01*
X107195104Y-57139792D01*
X107195106Y-57139788D01*
X107195109Y-57139786D01*
X107320048Y-56967820D01*
X107320047Y-56967820D01*
X107320051Y-56967816D01*
X107416557Y-56778412D01*
X107482246Y-56576243D01*
X107515500Y-56366287D01*
X107515500Y-56153713D01*
X107482246Y-55943757D01*
X107416557Y-55741588D01*
X107320051Y-55552184D01*
X107320049Y-55552181D01*
X107320048Y-55552179D01*
X107195109Y-55380213D01*
X107044786Y-55229890D01*
X106872817Y-55104949D01*
X106863504Y-55100204D01*
X106812707Y-55052230D01*
X106795912Y-54984409D01*
X106818449Y-54918274D01*
X106863507Y-54879232D01*
X106872555Y-54874622D01*
X106926716Y-54835270D01*
X106926717Y-54835270D01*
X106294408Y-54202962D01*
X106357993Y-54185925D01*
X106472007Y-54120099D01*
X106565099Y-54027007D01*
X106630925Y-53912993D01*
X106647962Y-53849408D01*
X107280270Y-54481717D01*
X107280270Y-54481716D01*
X107289513Y-54468995D01*
X108899499Y-54468995D01*
X108926418Y-54604322D01*
X108926421Y-54604332D01*
X108979221Y-54731804D01*
X108979228Y-54731817D01*
X109055885Y-54846541D01*
X109055888Y-54846545D01*
X109153454Y-54944111D01*
X109153458Y-54944114D01*
X109268182Y-55020771D01*
X109268195Y-55020778D01*
X109365697Y-55061164D01*
X109395672Y-55073580D01*
X109395676Y-55073580D01*
X109395677Y-55073581D01*
X109531004Y-55100500D01*
X109531007Y-55100500D01*
X109668995Y-55100500D01*
X109760041Y-55082389D01*
X109804328Y-55073580D01*
X109931811Y-55020775D01*
X110046542Y-54944114D01*
X110144114Y-54846542D01*
X110220775Y-54731811D01*
X110227224Y-54716243D01*
X110267746Y-54618412D01*
X110273580Y-54604328D01*
X110297969Y-54481717D01*
X110300500Y-54468995D01*
X110300500Y-54331004D01*
X110273581Y-54195677D01*
X110273580Y-54195676D01*
X110273580Y-54195672D01*
X110269543Y-54185925D01*
X110220778Y-54068195D01*
X110220771Y-54068182D01*
X110144114Y-53953458D01*
X110144111Y-53953454D01*
X110046545Y-53855888D01*
X110046541Y-53855885D01*
X109931817Y-53779228D01*
X109931804Y-53779221D01*
X109804332Y-53726421D01*
X109804322Y-53726418D01*
X109668995Y-53699500D01*
X109668993Y-53699500D01*
X109531007Y-53699500D01*
X109531005Y-53699500D01*
X109395677Y-53726418D01*
X109395667Y-53726421D01*
X109268195Y-53779221D01*
X109268182Y-53779228D01*
X109153458Y-53855885D01*
X109153454Y-53855888D01*
X109055888Y-53953454D01*
X109055885Y-53953458D01*
X108979228Y-54068182D01*
X108979221Y-54068195D01*
X108926421Y-54195667D01*
X108926418Y-54195677D01*
X108899500Y-54331004D01*
X108899500Y-54331007D01*
X108899500Y-54468993D01*
X108899500Y-54468995D01*
X108899499Y-54468995D01*
X107289513Y-54468995D01*
X107319622Y-54427554D01*
X107400604Y-54268620D01*
X107400605Y-54268618D01*
X107416094Y-54238219D01*
X107481757Y-54036130D01*
X107481757Y-54036127D01*
X107515000Y-53826246D01*
X107515000Y-53613753D01*
X107481757Y-53403872D01*
X107481757Y-53403869D01*
X107416095Y-53201782D01*
X107319624Y-53012449D01*
X107280270Y-52958282D01*
X107280269Y-52958282D01*
X106647962Y-53590590D01*
X106630925Y-53527007D01*
X106565099Y-53412993D01*
X106472007Y-53319901D01*
X106357993Y-53254075D01*
X106294409Y-53237037D01*
X106926716Y-52604728D01*
X106872550Y-52565375D01*
X106683217Y-52468904D01*
X106481129Y-52403242D01*
X106271246Y-52370000D01*
X106058754Y-52370000D01*
X105848872Y-52403242D01*
X105848869Y-52403242D01*
X105646782Y-52468904D01*
X105457439Y-52565380D01*
X105403282Y-52604727D01*
X105403282Y-52604728D01*
X106035591Y-53237037D01*
X105972007Y-53254075D01*
X105857993Y-53319901D01*
X105764901Y-53412993D01*
X105699075Y-53527007D01*
X105682037Y-53590591D01*
X105012642Y-52921196D01*
X104979319Y-52860609D01*
X104940527Y-52687364D01*
X104918354Y-52627913D01*
X104918350Y-52627906D01*
X104832190Y-52512812D01*
X104832187Y-52512809D01*
X104717093Y-52426649D01*
X104717086Y-52426645D01*
X104582379Y-52376403D01*
X104582372Y-52376401D01*
X104522844Y-52370000D01*
X103875000Y-52370000D01*
X103875000Y-53286988D01*
X103817993Y-53254075D01*
X103690826Y-53220000D01*
X103559174Y-53220000D01*
X103432007Y-53254075D01*
X103375000Y-53286988D01*
X103375000Y-52370000D01*
X102727155Y-52370000D01*
X102667627Y-52376401D01*
X102667620Y-52376403D01*
X102532913Y-52426645D01*
X102532906Y-52426649D01*
X102417812Y-52512809D01*
X102417809Y-52512812D01*
X102331649Y-52627906D01*
X102331645Y-52627913D01*
X102281403Y-52762620D01*
X102281401Y-52762627D01*
X102275000Y-52822155D01*
X102275000Y-53470000D01*
X103191988Y-53470000D01*
X103159075Y-53527007D01*
X103125000Y-53654174D01*
X103125000Y-53785826D01*
X103159075Y-53912993D01*
X103191988Y-53970000D01*
X102275000Y-53970000D01*
X102275000Y-54617844D01*
X102281401Y-54677372D01*
X102281403Y-54677379D01*
X102331645Y-54812086D01*
X102331649Y-54812093D01*
X102417809Y-54927187D01*
X102417812Y-54927190D01*
X102532906Y-55013350D01*
X102532913Y-55013354D01*
X102664470Y-55062422D01*
X102720404Y-55104293D01*
X102744821Y-55169758D01*
X102729969Y-55238031D01*
X102708819Y-55266285D01*
X102594889Y-55380215D01*
X102469951Y-55552179D01*
X102373444Y-55741585D01*
X102307753Y-55943760D01*
X102274500Y-56153713D01*
X65800500Y-56153713D01*
X65800500Y-53502155D01*
X76640000Y-53502155D01*
X76640000Y-54150000D01*
X77556988Y-54150000D01*
X77524075Y-54207007D01*
X77490000Y-54334174D01*
X77490000Y-54465826D01*
X77524075Y-54592993D01*
X77556988Y-54650000D01*
X76640000Y-54650000D01*
X76640000Y-55297844D01*
X76646401Y-55357372D01*
X76646403Y-55357379D01*
X76696645Y-55492086D01*
X76696649Y-55492093D01*
X76782809Y-55607187D01*
X76782812Y-55607190D01*
X76897906Y-55693350D01*
X76897913Y-55693354D01*
X77032620Y-55743596D01*
X77032627Y-55743598D01*
X77092155Y-55749999D01*
X77092172Y-55750000D01*
X77740000Y-55750000D01*
X77740000Y-54833012D01*
X77797007Y-54865925D01*
X77924174Y-54900000D01*
X78055826Y-54900000D01*
X78182993Y-54865925D01*
X78240000Y-54833012D01*
X78240000Y-55750000D01*
X78887828Y-55750000D01*
X78887844Y-55749999D01*
X78947372Y-55743598D01*
X78947379Y-55743596D01*
X79082086Y-55693354D01*
X79082093Y-55693350D01*
X79197187Y-55607190D01*
X79197190Y-55607187D01*
X79283350Y-55492093D01*
X79283354Y-55492086D01*
X79332422Y-55360529D01*
X79374293Y-55304595D01*
X79439757Y-55280178D01*
X79508030Y-55295030D01*
X79536285Y-55316181D01*
X79650213Y-55430109D01*
X79822179Y-55555048D01*
X79822181Y-55555049D01*
X79822184Y-55555051D01*
X80011588Y-55651557D01*
X80213757Y-55717246D01*
X80423713Y-55750500D01*
X80423714Y-55750500D01*
X80636286Y-55750500D01*
X80636287Y-55750500D01*
X80846243Y-55717246D01*
X81048412Y-55651557D01*
X81237816Y-55555051D01*
X81324471Y-55492093D01*
X81409786Y-55430109D01*
X81409788Y-55430106D01*
X81409792Y-55430104D01*
X81560104Y-55279792D01*
X81560106Y-55279788D01*
X81560109Y-55279786D01*
X81685048Y-55107820D01*
X81685047Y-55107820D01*
X81685051Y-55107816D01*
X81689514Y-55099054D01*
X81737488Y-55048259D01*
X81805308Y-55031463D01*
X81871444Y-55053999D01*
X81910484Y-55099054D01*
X81913154Y-55104293D01*
X81914951Y-55107820D01*
X82039890Y-55279786D01*
X82190213Y-55430109D01*
X82362179Y-55555048D01*
X82362181Y-55555049D01*
X82362184Y-55555051D01*
X82551588Y-55651557D01*
X82753757Y-55717246D01*
X82963713Y-55750500D01*
X82963714Y-55750500D01*
X83176286Y-55750500D01*
X83176287Y-55750500D01*
X83386243Y-55717246D01*
X83588412Y-55651557D01*
X83777816Y-55555051D01*
X83864471Y-55492093D01*
X83949786Y-55430109D01*
X83949788Y-55430106D01*
X83949792Y-55430104D01*
X84100104Y-55279792D01*
X84100106Y-55279788D01*
X84100109Y-55279786D01*
X84225048Y-55107820D01*
X84225047Y-55107820D01*
X84225051Y-55107816D01*
X84229514Y-55099054D01*
X84277488Y-55048259D01*
X84345308Y-55031463D01*
X84411444Y-55053999D01*
X84450484Y-55099054D01*
X84453154Y-55104293D01*
X84454951Y-55107820D01*
X84579890Y-55279786D01*
X84730213Y-55430109D01*
X84902179Y-55555048D01*
X84902181Y-55555049D01*
X84902184Y-55555051D01*
X85091588Y-55651557D01*
X85293757Y-55717246D01*
X85503713Y-55750500D01*
X85503714Y-55750500D01*
X85716286Y-55750500D01*
X85716287Y-55750500D01*
X85926243Y-55717246D01*
X86128412Y-55651557D01*
X86317816Y-55555051D01*
X86404471Y-55492093D01*
X86489786Y-55430109D01*
X86489788Y-55430106D01*
X86489792Y-55430104D01*
X86640104Y-55279792D01*
X86640106Y-55279788D01*
X86640109Y-55279786D01*
X86765048Y-55107820D01*
X86765047Y-55107820D01*
X86765051Y-55107816D01*
X86861557Y-54918412D01*
X86927246Y-54716243D01*
X86960500Y-54506287D01*
X86960500Y-54293713D01*
X86927246Y-54083757D01*
X86897989Y-53993713D01*
X88749500Y-53993713D01*
X88749500Y-54206287D01*
X88782754Y-54416243D01*
X88848258Y-54617844D01*
X88848444Y-54618414D01*
X88944951Y-54807820D01*
X89069890Y-54979786D01*
X89220213Y-55130109D01*
X89392179Y-55255048D01*
X89392181Y-55255049D01*
X89392184Y-55255051D01*
X89581588Y-55351557D01*
X89783757Y-55417246D01*
X89993713Y-55450500D01*
X89993714Y-55450500D01*
X90206286Y-55450500D01*
X90206287Y-55450500D01*
X90416243Y-55417246D01*
X90618412Y-55351557D01*
X90807816Y-55255051D01*
X90894478Y-55192088D01*
X90979786Y-55130109D01*
X90979788Y-55130106D01*
X90979792Y-55130104D01*
X91130104Y-54979792D01*
X91130106Y-54979788D01*
X91130109Y-54979786D01*
X91255048Y-54807820D01*
X91255047Y-54807820D01*
X91255051Y-54807816D01*
X91259514Y-54799054D01*
X91307488Y-54748259D01*
X91375308Y-54731463D01*
X91441444Y-54753999D01*
X91480486Y-54799056D01*
X91484951Y-54807820D01*
X91609890Y-54979786D01*
X91760213Y-55130109D01*
X91932179Y-55255048D01*
X91932181Y-55255049D01*
X91932184Y-55255051D01*
X92121588Y-55351557D01*
X92323757Y-55417246D01*
X92533713Y-55450500D01*
X92533714Y-55450500D01*
X92746286Y-55450500D01*
X92746287Y-55450500D01*
X92956243Y-55417246D01*
X93158412Y-55351557D01*
X93347816Y-55255051D01*
X93434478Y-55192088D01*
X93519786Y-55130109D01*
X93519788Y-55130106D01*
X93519792Y-55130104D01*
X93670104Y-54979792D01*
X93670106Y-54979788D01*
X93670109Y-54979786D01*
X93795048Y-54807820D01*
X93795047Y-54807820D01*
X93795051Y-54807816D01*
X93799514Y-54799054D01*
X93847488Y-54748259D01*
X93915308Y-54731463D01*
X93981444Y-54753999D01*
X94020486Y-54799056D01*
X94024951Y-54807820D01*
X94149890Y-54979786D01*
X94300213Y-55130109D01*
X94472179Y-55255048D01*
X94472181Y-55255049D01*
X94472184Y-55255051D01*
X94661588Y-55351557D01*
X94863757Y-55417246D01*
X95073713Y-55450500D01*
X95073714Y-55450500D01*
X95286286Y-55450500D01*
X95286287Y-55450500D01*
X95496243Y-55417246D01*
X95698412Y-55351557D01*
X95887816Y-55255051D01*
X95974478Y-55192088D01*
X96059784Y-55130110D01*
X96059784Y-55130109D01*
X96059792Y-55130104D01*
X96173717Y-55016178D01*
X96235036Y-54982696D01*
X96304728Y-54987680D01*
X96360662Y-55029551D01*
X96377577Y-55060528D01*
X96426646Y-55192088D01*
X96426649Y-55192093D01*
X96512809Y-55307187D01*
X96512812Y-55307190D01*
X96627906Y-55393350D01*
X96627913Y-55393354D01*
X96762620Y-55443596D01*
X96762627Y-55443598D01*
X96822155Y-55449999D01*
X96822172Y-55450000D01*
X97470000Y-55450000D01*
X97470000Y-54533012D01*
X97527007Y-54565925D01*
X97654174Y-54600000D01*
X97785826Y-54600000D01*
X97912993Y-54565925D01*
X97970000Y-54533012D01*
X97970000Y-55450000D01*
X98617828Y-55450000D01*
X98617844Y-55449999D01*
X98677372Y-55443598D01*
X98677379Y-55443596D01*
X98812086Y-55393354D01*
X98812093Y-55393350D01*
X98927187Y-55307190D01*
X98927190Y-55307187D01*
X99013350Y-55192093D01*
X99013354Y-55192086D01*
X99063596Y-55057379D01*
X99063598Y-55057372D01*
X99069999Y-54997844D01*
X99070000Y-54997827D01*
X99070000Y-54350000D01*
X98153012Y-54350000D01*
X98185925Y-54292993D01*
X98220000Y-54165826D01*
X98220000Y-54034174D01*
X98185925Y-53907007D01*
X98153012Y-53850000D01*
X99070000Y-53850000D01*
X99070000Y-53202172D01*
X99069999Y-53202155D01*
X99063598Y-53142627D01*
X99063596Y-53142620D01*
X99013354Y-53007913D01*
X99013350Y-53007906D01*
X98927452Y-52893162D01*
X98927451Y-52893161D01*
X98927188Y-52892810D01*
X98927187Y-52892809D01*
X98812093Y-52806649D01*
X98812086Y-52806645D01*
X98677379Y-52756403D01*
X98677372Y-52756401D01*
X98617844Y-52750000D01*
X97970000Y-52750000D01*
X97970000Y-53666988D01*
X97912993Y-53634075D01*
X97785826Y-53600000D01*
X97654174Y-53600000D01*
X97527007Y-53634075D01*
X97470000Y-53666988D01*
X97470000Y-52750000D01*
X96822155Y-52750000D01*
X96762627Y-52756401D01*
X96762620Y-52756403D01*
X96627913Y-52806645D01*
X96627906Y-52806649D01*
X96512812Y-52892809D01*
X96512809Y-52892812D01*
X96426649Y-53007906D01*
X96426646Y-53007912D01*
X96377577Y-53139471D01*
X96335705Y-53195404D01*
X96270241Y-53219821D01*
X96201968Y-53204969D01*
X96173714Y-53183818D01*
X96059786Y-53069890D01*
X95887820Y-52944951D01*
X95698414Y-52848444D01*
X95698413Y-52848443D01*
X95698412Y-52848443D01*
X95496243Y-52782754D01*
X95496241Y-52782753D01*
X95496240Y-52782753D01*
X95334957Y-52757208D01*
X95286287Y-52749500D01*
X95073713Y-52749500D01*
X95025042Y-52757208D01*
X94863760Y-52782753D01*
X94661585Y-52848444D01*
X94472179Y-52944951D01*
X94300213Y-53069890D01*
X94149890Y-53220213D01*
X94024949Y-53392182D01*
X94020484Y-53400946D01*
X93972509Y-53451742D01*
X93904688Y-53468536D01*
X93838553Y-53445998D01*
X93799516Y-53400946D01*
X93795050Y-53392182D01*
X93670109Y-53220213D01*
X93519786Y-53069890D01*
X93347820Y-52944951D01*
X93158414Y-52848444D01*
X93158413Y-52848443D01*
X93158412Y-52848443D01*
X92956243Y-52782754D01*
X92956241Y-52782753D01*
X92956240Y-52782753D01*
X92794957Y-52757208D01*
X92746287Y-52749500D01*
X92533713Y-52749500D01*
X92485042Y-52757208D01*
X92323760Y-52782753D01*
X92121585Y-52848444D01*
X91932179Y-52944951D01*
X91760213Y-53069890D01*
X91609890Y-53220213D01*
X91484949Y-53392182D01*
X91480484Y-53400946D01*
X91432509Y-53451742D01*
X91364688Y-53468536D01*
X91298553Y-53445998D01*
X91259516Y-53400946D01*
X91255050Y-53392182D01*
X91130109Y-53220213D01*
X90979786Y-53069890D01*
X90807820Y-52944951D01*
X90618414Y-52848444D01*
X90618413Y-52848443D01*
X90618412Y-52848443D01*
X90416243Y-52782754D01*
X90416241Y-52782753D01*
X90416240Y-52782753D01*
X90254957Y-52757208D01*
X90206287Y-52749500D01*
X89993713Y-52749500D01*
X89945042Y-52757208D01*
X89783760Y-52782753D01*
X89581585Y-52848444D01*
X89392179Y-52944951D01*
X89220213Y-53069890D01*
X89069890Y-53220213D01*
X88944951Y-53392179D01*
X88848444Y-53581585D01*
X88782753Y-53783760D01*
X88758946Y-53934075D01*
X88749500Y-53993713D01*
X86897989Y-53993713D01*
X86861557Y-53881588D01*
X86765051Y-53692184D01*
X86765049Y-53692181D01*
X86765048Y-53692179D01*
X86640109Y-53520213D01*
X86489794Y-53369898D01*
X86489788Y-53369893D01*
X86411615Y-53313097D01*
X86368949Y-53257767D01*
X86360500Y-53212779D01*
X86360500Y-50621153D01*
X89299500Y-50621153D01*
X89299500Y-50778846D01*
X89330261Y-50933489D01*
X89330264Y-50933501D01*
X89390602Y-51079172D01*
X89390609Y-51079185D01*
X89478210Y-51210288D01*
X89478213Y-51210292D01*
X89589707Y-51321786D01*
X89589711Y-51321789D01*
X89720814Y-51409390D01*
X89720827Y-51409397D01*
X89866498Y-51469735D01*
X89866503Y-51469737D01*
X90021153Y-51500499D01*
X90021156Y-51500500D01*
X90021158Y-51500500D01*
X90178844Y-51500500D01*
X90178845Y-51500499D01*
X90333497Y-51469737D01*
X90451592Y-51420821D01*
X90479172Y-51409397D01*
X90479172Y-51409396D01*
X90479179Y-51409394D01*
X90610289Y-51321789D01*
X90721789Y-51210289D01*
X90809394Y-51079179D01*
X90869737Y-50933497D01*
X90900500Y-50778842D01*
X90900500Y-50621158D01*
X90900500Y-50621155D01*
X90900499Y-50621153D01*
X90891103Y-50573917D01*
X90869737Y-50466503D01*
X90852995Y-50426083D01*
X90809397Y-50320827D01*
X90809390Y-50320814D01*
X90721789Y-50189711D01*
X90721786Y-50189707D01*
X90610292Y-50078213D01*
X90610288Y-50078210D01*
X90479181Y-49990607D01*
X90479172Y-49990602D01*
X90333501Y-49930264D01*
X90333489Y-49930261D01*
X90320680Y-49927713D01*
X90178845Y-49899500D01*
X90178842Y-49899500D01*
X90021158Y-49899500D01*
X90021155Y-49899500D01*
X89866510Y-49930261D01*
X89866498Y-49930264D01*
X89720827Y-49990602D01*
X89720819Y-49990607D01*
X89589711Y-50078210D01*
X89589707Y-50078213D01*
X89478213Y-50189707D01*
X89478210Y-50189711D01*
X89390609Y-50320814D01*
X89390602Y-50320827D01*
X89330264Y-50466498D01*
X89330261Y-50466510D01*
X89299500Y-50621153D01*
X86360500Y-50621153D01*
X86360500Y-50436079D01*
X86331659Y-50291092D01*
X86331658Y-50291091D01*
X86331658Y-50291087D01*
X86289667Y-50189711D01*
X86275087Y-50154511D01*
X86275080Y-50154498D01*
X86192951Y-50031584D01*
X86192948Y-50031580D01*
X86155504Y-49994137D01*
X86151973Y-49990606D01*
X86078416Y-49917048D01*
X86015348Y-49874908D01*
X86009871Y-49870249D01*
X85994500Y-49846804D01*
X85976522Y-49825292D01*
X85975603Y-49817981D01*
X85971563Y-49811818D01*
X85971542Y-49809568D01*
X111742000Y-49809568D01*
X111742000Y-50090431D01*
X111773442Y-50369494D01*
X111773445Y-50369512D01*
X111835939Y-50643317D01*
X111835943Y-50643329D01*
X111928700Y-50908411D01*
X112050553Y-51161442D01*
X112050555Y-51161445D01*
X112199977Y-51399248D01*
X112375084Y-51618825D01*
X112573675Y-51817416D01*
X112793252Y-51992523D01*
X113031055Y-52141945D01*
X113284092Y-52263801D01*
X113416956Y-52310292D01*
X113549170Y-52356556D01*
X113549182Y-52356560D01*
X113822991Y-52419055D01*
X113822997Y-52419055D01*
X113823005Y-52419057D01*
X114009047Y-52440018D01*
X114102069Y-52450499D01*
X114102072Y-52450500D01*
X114102075Y-52450500D01*
X114382928Y-52450500D01*
X114382929Y-52450499D01*
X114525555Y-52434429D01*
X114661994Y-52419057D01*
X114661999Y-52419056D01*
X114662009Y-52419055D01*
X114935818Y-52356560D01*
X115200908Y-52263801D01*
X115453945Y-52141945D01*
X115691748Y-51992523D01*
X115911325Y-51817416D01*
X116109916Y-51618825D01*
X116285023Y-51399248D01*
X116434445Y-51161445D01*
X116556301Y-50908408D01*
X116649060Y-50643318D01*
X116711555Y-50369509D01*
X116720391Y-50291092D01*
X116736906Y-50144509D01*
X116743000Y-50090425D01*
X116743000Y-49809575D01*
X116742999Y-49809568D01*
X172942000Y-49809568D01*
X172942000Y-50090431D01*
X172973442Y-50369494D01*
X172973445Y-50369512D01*
X173035939Y-50643317D01*
X173035943Y-50643329D01*
X173128700Y-50908411D01*
X173250553Y-51161442D01*
X173250555Y-51161445D01*
X173399977Y-51399248D01*
X173575084Y-51618825D01*
X173773675Y-51817416D01*
X173993252Y-51992523D01*
X174231055Y-52141945D01*
X174484092Y-52263801D01*
X174616956Y-52310292D01*
X174749170Y-52356556D01*
X174749182Y-52356560D01*
X175022991Y-52419055D01*
X175022997Y-52419055D01*
X175023005Y-52419057D01*
X175209047Y-52440018D01*
X175302069Y-52450499D01*
X175302072Y-52450500D01*
X175302075Y-52450500D01*
X175582928Y-52450500D01*
X175582929Y-52450499D01*
X175725555Y-52434429D01*
X175861994Y-52419057D01*
X175861999Y-52419056D01*
X175862009Y-52419055D01*
X176135818Y-52356560D01*
X176400908Y-52263801D01*
X176653945Y-52141945D01*
X176891748Y-51992523D01*
X177111325Y-51817416D01*
X177309916Y-51618825D01*
X177485023Y-51399248D01*
X177634445Y-51161445D01*
X177756301Y-50908408D01*
X177849060Y-50643318D01*
X177911555Y-50369509D01*
X177920391Y-50291092D01*
X177936906Y-50144509D01*
X177943000Y-50090425D01*
X177943000Y-49809575D01*
X177932518Y-49716547D01*
X177911557Y-49530505D01*
X177911554Y-49530487D01*
X177849060Y-49256682D01*
X177849056Y-49256670D01*
X177757730Y-48995677D01*
X177756301Y-48991592D01*
X177634445Y-48738555D01*
X177485023Y-48500752D01*
X177309916Y-48281175D01*
X177111325Y-48082584D01*
X176891748Y-47907477D01*
X176653945Y-47758055D01*
X176653942Y-47758053D01*
X176400911Y-47636200D01*
X176135829Y-47543443D01*
X176135817Y-47543439D01*
X175862012Y-47480945D01*
X175861994Y-47480942D01*
X175582931Y-47449500D01*
X175582925Y-47449500D01*
X175302075Y-47449500D01*
X175302068Y-47449500D01*
X175023005Y-47480942D01*
X175022987Y-47480945D01*
X174749182Y-47543439D01*
X174749170Y-47543443D01*
X174484088Y-47636200D01*
X174231057Y-47758053D01*
X173993253Y-47907476D01*
X173773675Y-48082583D01*
X173575083Y-48281175D01*
X173399976Y-48500753D01*
X173250553Y-48738557D01*
X173128700Y-48991588D01*
X173035943Y-49256670D01*
X173035939Y-49256682D01*
X172973445Y-49530487D01*
X172973442Y-49530505D01*
X172942000Y-49809568D01*
X116742999Y-49809568D01*
X116732518Y-49716547D01*
X116711557Y-49530505D01*
X116711554Y-49530487D01*
X116649060Y-49256682D01*
X116649056Y-49256670D01*
X116557730Y-48995677D01*
X116556301Y-48991592D01*
X116434445Y-48738555D01*
X116285023Y-48500752D01*
X116109916Y-48281175D01*
X115911325Y-48082584D01*
X115691748Y-47907477D01*
X115453945Y-47758055D01*
X115453942Y-47758053D01*
X115200911Y-47636200D01*
X114935829Y-47543443D01*
X114935817Y-47543439D01*
X114662012Y-47480945D01*
X114661994Y-47480942D01*
X114382931Y-47449500D01*
X114382925Y-47449500D01*
X114102075Y-47449500D01*
X114102068Y-47449500D01*
X113823005Y-47480942D01*
X113822987Y-47480945D01*
X113549182Y-47543439D01*
X113549170Y-47543443D01*
X113284088Y-47636200D01*
X113031057Y-47758053D01*
X112793253Y-47907476D01*
X112573675Y-48082583D01*
X112375083Y-48281175D01*
X112199976Y-48500753D01*
X112050553Y-48738557D01*
X111928700Y-48991588D01*
X111835943Y-49256670D01*
X111835939Y-49256682D01*
X111773445Y-49530487D01*
X111773442Y-49530505D01*
X111742000Y-49809568D01*
X85971542Y-49809568D01*
X85971307Y-49783786D01*
X85967813Y-49755967D01*
X85970994Y-49749318D01*
X85970927Y-49741951D01*
X85985866Y-49718231D01*
X85997967Y-49692940D01*
X86002537Y-49688119D01*
X86044111Y-49646545D01*
X86044114Y-49646542D01*
X86120775Y-49531811D01*
X86121324Y-49530487D01*
X86173578Y-49404332D01*
X86173580Y-49404328D01*
X86200500Y-49268993D01*
X86200500Y-49131007D01*
X86200500Y-49131004D01*
X86173581Y-48995677D01*
X86173580Y-48995676D01*
X86173580Y-48995672D01*
X86171888Y-48991588D01*
X86120778Y-48868195D01*
X86120771Y-48868182D01*
X86044114Y-48753458D01*
X86044111Y-48753454D01*
X85946545Y-48655888D01*
X85946541Y-48655885D01*
X85831817Y-48579228D01*
X85831804Y-48579221D01*
X85704332Y-48526421D01*
X85704322Y-48526418D01*
X85568995Y-48499500D01*
X85568993Y-48499500D01*
X85431007Y-48499500D01*
X85431005Y-48499500D01*
X85295677Y-48526418D01*
X85295667Y-48526421D01*
X85168195Y-48579221D01*
X85168182Y-48579228D01*
X85053458Y-48655885D01*
X85053454Y-48655888D01*
X84955888Y-48753454D01*
X84955885Y-48753458D01*
X84879228Y-48868182D01*
X84879221Y-48868195D01*
X84826421Y-48995667D01*
X84826418Y-48995677D01*
X84799500Y-49131004D01*
X84799500Y-49131007D01*
X84799500Y-49268993D01*
X84799500Y-49268995D01*
X84799499Y-49268995D01*
X84826418Y-49404322D01*
X84826421Y-49404332D01*
X84879221Y-49531804D01*
X84879228Y-49531817D01*
X84955885Y-49646541D01*
X84955888Y-49646545D01*
X85053454Y-49744111D01*
X85053459Y-49744115D01*
X85072330Y-49756724D01*
X85117136Y-49810335D01*
X85125845Y-49879660D01*
X85095691Y-49942688D01*
X85091123Y-49947508D01*
X85017050Y-50021581D01*
X84934918Y-50144502D01*
X84934914Y-50144509D01*
X84878342Y-50281087D01*
X84878340Y-50281093D01*
X84849500Y-50426080D01*
X84849500Y-50573918D01*
X84857117Y-50612208D01*
X84859500Y-50636401D01*
X84859500Y-53212779D01*
X84839815Y-53279818D01*
X84808385Y-53313097D01*
X84730211Y-53369893D01*
X84730205Y-53369898D01*
X84579890Y-53520213D01*
X84454949Y-53692182D01*
X84450484Y-53700946D01*
X84402509Y-53751742D01*
X84334688Y-53768536D01*
X84268553Y-53745998D01*
X84229516Y-53700946D01*
X84225050Y-53692182D01*
X84100109Y-53520213D01*
X83949786Y-53369890D01*
X83777820Y-53244951D01*
X83588414Y-53148444D01*
X83588413Y-53148443D01*
X83588412Y-53148443D01*
X83386243Y-53082754D01*
X83386241Y-53082753D01*
X83386240Y-53082753D01*
X83224957Y-53057208D01*
X83176287Y-53049500D01*
X82963713Y-53049500D01*
X82915042Y-53057208D01*
X82753760Y-53082753D01*
X82551585Y-53148444D01*
X82362179Y-53244951D01*
X82190213Y-53369890D01*
X82039890Y-53520213D01*
X81914949Y-53692182D01*
X81910484Y-53700946D01*
X81862509Y-53751742D01*
X81794688Y-53768536D01*
X81728553Y-53745998D01*
X81689516Y-53700946D01*
X81685050Y-53692182D01*
X81560109Y-53520213D01*
X81409786Y-53369890D01*
X81237820Y-53244951D01*
X81048414Y-53148444D01*
X81048413Y-53148443D01*
X81048412Y-53148443D01*
X80846243Y-53082754D01*
X80846241Y-53082753D01*
X80846240Y-53082753D01*
X80684957Y-53057208D01*
X80636287Y-53049500D01*
X80423713Y-53049500D01*
X80375042Y-53057208D01*
X80213760Y-53082753D01*
X80011585Y-53148444D01*
X79822179Y-53244951D01*
X79650215Y-53369889D01*
X79536285Y-53483819D01*
X79474962Y-53517303D01*
X79405270Y-53512319D01*
X79349337Y-53470447D01*
X79332422Y-53439470D01*
X79283354Y-53307913D01*
X79283350Y-53307906D01*
X79197190Y-53192812D01*
X79197187Y-53192809D01*
X79082093Y-53106649D01*
X79082086Y-53106645D01*
X78947379Y-53056403D01*
X78947372Y-53056401D01*
X78887844Y-53050000D01*
X78240000Y-53050000D01*
X78240000Y-53966988D01*
X78182993Y-53934075D01*
X78055826Y-53900000D01*
X77924174Y-53900000D01*
X77797007Y-53934075D01*
X77740000Y-53966988D01*
X77740000Y-53050000D01*
X77092155Y-53050000D01*
X77032627Y-53056401D01*
X77032620Y-53056403D01*
X76897913Y-53106645D01*
X76897906Y-53106649D01*
X76782812Y-53192809D01*
X76782809Y-53192812D01*
X76696649Y-53307906D01*
X76696645Y-53307913D01*
X76646403Y-53442620D01*
X76646401Y-53442627D01*
X76640000Y-53502155D01*
X65800500Y-53502155D01*
X65800500Y-51721153D01*
X79499500Y-51721153D01*
X79499500Y-51878846D01*
X79530261Y-52033489D01*
X79530264Y-52033501D01*
X79590602Y-52179172D01*
X79590609Y-52179185D01*
X79678210Y-52310288D01*
X79678213Y-52310292D01*
X79789707Y-52421786D01*
X79789711Y-52421789D01*
X79920814Y-52509390D01*
X79920827Y-52509397D01*
X80055972Y-52565375D01*
X80066503Y-52569737D01*
X80221153Y-52600499D01*
X80221156Y-52600500D01*
X80221158Y-52600500D01*
X80378844Y-52600500D01*
X80378845Y-52600499D01*
X80533497Y-52569737D01*
X80670927Y-52512812D01*
X80679172Y-52509397D01*
X80679172Y-52509396D01*
X80679179Y-52509394D01*
X80810289Y-52421789D01*
X80921789Y-52310289D01*
X81009394Y-52179179D01*
X81069737Y-52033497D01*
X81100500Y-51878842D01*
X81100500Y-51721158D01*
X81100500Y-51721155D01*
X81100499Y-51721153D01*
X81069737Y-51566503D01*
X81042398Y-51500500D01*
X81009397Y-51420827D01*
X81009390Y-51420814D01*
X80921789Y-51289711D01*
X80921786Y-51289707D01*
X80810292Y-51178213D01*
X80810288Y-51178210D01*
X80679185Y-51090609D01*
X80679172Y-51090602D01*
X80533501Y-51030264D01*
X80533489Y-51030261D01*
X80378845Y-50999500D01*
X80378842Y-50999500D01*
X80221158Y-50999500D01*
X80221155Y-50999500D01*
X80066510Y-51030261D01*
X80066498Y-51030264D01*
X79920827Y-51090602D01*
X79920814Y-51090609D01*
X79789711Y-51178210D01*
X79789707Y-51178213D01*
X79678213Y-51289707D01*
X79678210Y-51289711D01*
X79590609Y-51420814D01*
X79590602Y-51420827D01*
X79530264Y-51566498D01*
X79530261Y-51566510D01*
X79499500Y-51721153D01*
X65800500Y-51721153D01*
X65800500Y-50368995D01*
X74699499Y-50368995D01*
X74726418Y-50504322D01*
X74726421Y-50504332D01*
X74779221Y-50631804D01*
X74779228Y-50631817D01*
X74855885Y-50746541D01*
X74855888Y-50746545D01*
X74953454Y-50844111D01*
X74953458Y-50844114D01*
X75068182Y-50920771D01*
X75068195Y-50920778D01*
X75195667Y-50973578D01*
X75195672Y-50973580D01*
X75195676Y-50973580D01*
X75195677Y-50973581D01*
X75331004Y-51000500D01*
X75331007Y-51000500D01*
X75468995Y-51000500D01*
X75560041Y-50982389D01*
X75604328Y-50973580D01*
X75731811Y-50920775D01*
X75846542Y-50844114D01*
X75944114Y-50746542D01*
X76020775Y-50631811D01*
X76073580Y-50504328D01*
X76100397Y-50369512D01*
X76100500Y-50368995D01*
X76100500Y-50231004D01*
X76073581Y-50095677D01*
X76073580Y-50095676D01*
X76073580Y-50095672D01*
X76071409Y-50090431D01*
X76020778Y-49968195D01*
X76020771Y-49968182D01*
X75944114Y-49853458D01*
X75944111Y-49853454D01*
X75846545Y-49755888D01*
X75846541Y-49755885D01*
X75731817Y-49679228D01*
X75731804Y-49679221D01*
X75604332Y-49626421D01*
X75604322Y-49626418D01*
X75468995Y-49599500D01*
X75468993Y-49599500D01*
X75331007Y-49599500D01*
X75331005Y-49599500D01*
X75195677Y-49626418D01*
X75195667Y-49626421D01*
X75068195Y-49679221D01*
X75068182Y-49679228D01*
X74953458Y-49755885D01*
X74953454Y-49755888D01*
X74855888Y-49853454D01*
X74855885Y-49853458D01*
X74779228Y-49968182D01*
X74779221Y-49968195D01*
X74726421Y-50095667D01*
X74726418Y-50095677D01*
X74699500Y-50231004D01*
X74699500Y-50231007D01*
X74699500Y-50368993D01*
X74699500Y-50368995D01*
X74699499Y-50368995D01*
X65800500Y-50368995D01*
X65800500Y-44625044D01*
X65820185Y-44558005D01*
X65872989Y-44512250D01*
X65924606Y-44501044D01*
X179275611Y-44599954D01*
G37*
%TD.AperFunction*%
%TD*%
M02*
