%TF.GenerationSoftware,KiCad,Pcbnew,9.0.4*%
%TF.CreationDate,2025-11-14T09:22:59+05:30*%
%TF.ProjectId,stm32f446re,73746d33-3266-4343-9436-72652e6b6963,rev?*%
%TF.SameCoordinates,Original*%
%TF.FileFunction,Copper,L1,Top*%
%TF.FilePolarity,Positive*%
%FSLAX46Y46*%
G04 Gerber Fmt 4.6, Leading zero omitted, Abs format (unit mm)*
G04 Created by KiCad (PCBNEW 9.0.4) date 2025-11-14 09:23:00*
%MOMM*%
%LPD*%
G01*
G04 APERTURE LIST*
G04 Aperture macros list*
%AMRoundRect*
0 Rectangle with rounded corners*
0 $1 Rounding radius*
0 $2 $3 $4 $5 $6 $7 $8 $9 X,Y pos of 4 corners*
0 Add a 4 corners polygon primitive as box body*
4,1,4,$2,$3,$4,$5,$6,$7,$8,$9,$2,$3,0*
0 Add four circle primitives for the rounded corners*
1,1,$1+$1,$2,$3*
1,1,$1+$1,$4,$5*
1,1,$1+$1,$6,$7*
1,1,$1+$1,$8,$9*
0 Add four rect primitives between the rounded corners*
20,1,$1+$1,$2,$3,$4,$5,0*
20,1,$1+$1,$4,$5,$6,$7,0*
20,1,$1+$1,$6,$7,$8,$9,0*
20,1,$1+$1,$8,$9,$2,$3,0*%
G04 Aperture macros list end*
%TA.AperFunction,SMDPad,CuDef*%
%ADD10RoundRect,0.140000X0.140000X0.170000X-0.140000X0.170000X-0.140000X-0.170000X0.140000X-0.170000X0*%
%TD*%
%TA.AperFunction,SMDPad,CuDef*%
%ADD11RoundRect,0.135000X0.135000X0.185000X-0.135000X0.185000X-0.135000X-0.185000X0.135000X-0.185000X0*%
%TD*%
%TA.AperFunction,SMDPad,CuDef*%
%ADD12RoundRect,0.225000X-0.250000X0.225000X-0.250000X-0.225000X0.250000X-0.225000X0.250000X0.225000X0*%
%TD*%
%TA.AperFunction,SMDPad,CuDef*%
%ADD13RoundRect,0.250000X0.475000X-0.250000X0.475000X0.250000X-0.475000X0.250000X-0.475000X-0.250000X0*%
%TD*%
%TA.AperFunction,SMDPad,CuDef*%
%ADD14RoundRect,0.140000X-0.170000X0.140000X-0.170000X-0.140000X0.170000X-0.140000X0.170000X0.140000X0*%
%TD*%
%TA.AperFunction,ComponentPad*%
%ADD15R,1.700000X1.700000*%
%TD*%
%TA.AperFunction,ComponentPad*%
%ADD16C,1.700000*%
%TD*%
%TA.AperFunction,SMDPad,CuDef*%
%ADD17RoundRect,0.375000X0.375000X-0.625000X0.375000X0.625000X-0.375000X0.625000X-0.375000X-0.625000X0*%
%TD*%
%TA.AperFunction,SMDPad,CuDef*%
%ADD18RoundRect,0.500000X1.400000X-0.500000X1.400000X0.500000X-1.400000X0.500000X-1.400000X-0.500000X0*%
%TD*%
%TA.AperFunction,SMDPad,CuDef*%
%ADD19RoundRect,0.218750X0.218750X0.256250X-0.218750X0.256250X-0.218750X-0.256250X0.218750X-0.256250X0*%
%TD*%
%TA.AperFunction,SMDPad,CuDef*%
%ADD20RoundRect,0.140000X0.170000X-0.140000X0.170000X0.140000X-0.170000X0.140000X-0.170000X-0.140000X0*%
%TD*%
%TA.AperFunction,SMDPad,CuDef*%
%ADD21RoundRect,0.135000X-0.135000X-0.185000X0.135000X-0.185000X0.135000X0.185000X-0.135000X0.185000X0*%
%TD*%
%TA.AperFunction,SMDPad,CuDef*%
%ADD22RoundRect,0.225000X-0.225000X-0.250000X0.225000X-0.250000X0.225000X0.250000X-0.225000X0.250000X0*%
%TD*%
%TA.AperFunction,SMDPad,CuDef*%
%ADD23RoundRect,0.150000X-0.150000X-0.425000X0.150000X-0.425000X0.150000X0.425000X-0.150000X0.425000X0*%
%TD*%
%TA.AperFunction,SMDPad,CuDef*%
%ADD24RoundRect,0.075000X-0.075000X-0.500000X0.075000X-0.500000X0.075000X0.500000X-0.075000X0.500000X0*%
%TD*%
%TA.AperFunction,HeatsinkPad*%
%ADD25O,1.000000X2.100000*%
%TD*%
%TA.AperFunction,HeatsinkPad*%
%ADD26O,1.000000X1.800000*%
%TD*%
%TA.AperFunction,SMDPad,CuDef*%
%ADD27RoundRect,0.218750X0.256250X-0.218750X0.256250X0.218750X-0.256250X0.218750X-0.256250X-0.218750X0*%
%TD*%
%TA.AperFunction,SMDPad,CuDef*%
%ADD28RoundRect,0.135000X-0.185000X0.135000X-0.185000X-0.135000X0.185000X-0.135000X0.185000X0.135000X0*%
%TD*%
%TA.AperFunction,SMDPad,CuDef*%
%ADD29RoundRect,0.135000X0.185000X-0.135000X0.185000X0.135000X-0.185000X0.135000X-0.185000X-0.135000X0*%
%TD*%
%TA.AperFunction,SMDPad,CuDef*%
%ADD30RoundRect,0.100000X0.300000X0.100000X-0.300000X0.100000X-0.300000X-0.100000X0.300000X-0.100000X0*%
%TD*%
%TA.AperFunction,HeatsinkPad*%
%ADD31R,1.500000X2.400000*%
%TD*%
%TA.AperFunction,SMDPad,CuDef*%
%ADD32RoundRect,0.225000X0.250000X-0.225000X0.250000X0.225000X-0.250000X0.225000X-0.250000X-0.225000X0*%
%TD*%
%TA.AperFunction,ComponentPad*%
%ADD33C,4.000000*%
%TD*%
%TA.AperFunction,ComponentPad*%
%ADD34R,1.500000X1.500000*%
%TD*%
%TA.AperFunction,ComponentPad*%
%ADD35C,1.500000*%
%TD*%
%TA.AperFunction,SMDPad,CuDef*%
%ADD36RoundRect,0.218750X-0.218750X-0.256250X0.218750X-0.256250X0.218750X0.256250X-0.218750X0.256250X0*%
%TD*%
%TA.AperFunction,SMDPad,CuDef*%
%ADD37RoundRect,0.140000X-0.140000X-0.170000X0.140000X-0.170000X0.140000X0.170000X-0.140000X0.170000X0*%
%TD*%
%TA.AperFunction,SMDPad,CuDef*%
%ADD38RoundRect,0.150000X0.150000X-0.512500X0.150000X0.512500X-0.150000X0.512500X-0.150000X-0.512500X0*%
%TD*%
%TA.AperFunction,SMDPad,CuDef*%
%ADD39RoundRect,0.147500X-0.147500X-0.172500X0.147500X-0.172500X0.147500X0.172500X-0.147500X0.172500X0*%
%TD*%
%TA.AperFunction,SMDPad,CuDef*%
%ADD40RoundRect,0.200000X-0.200000X-0.800000X0.200000X-0.800000X0.200000X0.800000X-0.200000X0.800000X0*%
%TD*%
%TA.AperFunction,SMDPad,CuDef*%
%ADD41RoundRect,0.250000X0.250000X0.475000X-0.250000X0.475000X-0.250000X-0.475000X0.250000X-0.475000X0*%
%TD*%
%TA.AperFunction,SMDPad,CuDef*%
%ADD42RoundRect,0.075000X-0.700000X-0.075000X0.700000X-0.075000X0.700000X0.075000X-0.700000X0.075000X0*%
%TD*%
%TA.AperFunction,SMDPad,CuDef*%
%ADD43RoundRect,0.075000X-0.075000X-0.700000X0.075000X-0.700000X0.075000X0.700000X-0.075000X0.700000X0*%
%TD*%
%TA.AperFunction,SMDPad,CuDef*%
%ADD44RoundRect,0.250000X0.450000X0.350000X-0.450000X0.350000X-0.450000X-0.350000X0.450000X-0.350000X0*%
%TD*%
%TA.AperFunction,ViaPad*%
%ADD45C,0.400000*%
%TD*%
%TA.AperFunction,ViaPad*%
%ADD46C,0.600000*%
%TD*%
%TA.AperFunction,Conductor*%
%ADD47C,0.500000*%
%TD*%
%TA.AperFunction,Conductor*%
%ADD48C,0.300000*%
%TD*%
%TA.AperFunction,Conductor*%
%ADD49C,0.200000*%
%TD*%
%TA.AperFunction,Conductor*%
%ADD50C,0.400000*%
%TD*%
G04 APERTURE END LIST*
D10*
%TO.P,C2,1*%
%TO.N,+3.3V*%
X81580000Y-74100000D03*
%TO.P,C2,2*%
%TO.N,GND*%
X80620000Y-74100000D03*
%TD*%
D11*
%TO.P,R4,1*%
%TO.N,+3.3V*%
X84910000Y-57000000D03*
%TO.P,R4,2*%
%TO.N,/I2C1_SCL*%
X83890000Y-57000000D03*
%TD*%
D12*
%TO.P,C5,1*%
%TO.N,+3.3V*%
X94000000Y-62225000D03*
%TO.P,C5,2*%
%TO.N,GND*%
X94000000Y-63775000D03*
%TD*%
D13*
%TO.P,C10,1*%
%TO.N,+3.3V*%
X78400000Y-81350000D03*
%TO.P,C10,2*%
%TO.N,GND*%
X78400000Y-79450000D03*
%TD*%
D14*
%TO.P,C14,1*%
%TO.N,+3.3V*%
X78100000Y-49320000D03*
%TO.P,C14,2*%
%TO.N,GND*%
X78100000Y-50280000D03*
%TD*%
D15*
%TO.P,J3,1,Pin_1*%
%TO.N,+3.3V*%
X77990000Y-54400000D03*
D16*
%TO.P,J3,2,Pin_2*%
%TO.N,/I2C1_SDA*%
X80530000Y-54400000D03*
%TO.P,J3,3,Pin_3*%
%TO.N,/I2C1_SCL*%
X83070000Y-54400000D03*
%TO.P,J3,4,Pin_4*%
%TO.N,GND*%
X85610000Y-54400000D03*
%TD*%
D17*
%TO.P,U2,1,ADJ*%
%TO.N,GND*%
X81700000Y-86950000D03*
%TO.P,U2,2,VO*%
%TO.N,+3.3V*%
X84000000Y-86950000D03*
D18*
X84000000Y-80650000D03*
D17*
%TO.P,U2,3,VI*%
%TO.N,VBUS*%
X86300000Y-86950000D03*
%TD*%
D15*
%TO.P,J5,1,Pin_1*%
%TO.N,+3.3V*%
X103700000Y-75980000D03*
D16*
%TO.P,J5,2,Pin_2*%
%TO.N,/USART6_TX*%
X103700000Y-73440000D03*
%TO.P,J5,3,Pin_3*%
%TO.N,/USART6_RX*%
X103700000Y-70900000D03*
%TO.P,J5,4,Pin_4*%
%TO.N,GND*%
X103700000Y-68360000D03*
%TD*%
D19*
%TO.P,FB1,1*%
%TO.N,+3.3V*%
X75387500Y-72400000D03*
%TO.P,FB1,2*%
X73812500Y-72400000D03*
%TD*%
D20*
%TO.P,C6,1*%
%TO.N,+3.3V*%
X76500000Y-69580000D03*
%TO.P,C6,2*%
%TO.N,GND*%
X76500000Y-68620000D03*
%TD*%
D21*
%TO.P,R7,1*%
%TO.N,+3.3V*%
X70290000Y-72300000D03*
%TO.P,R7,2*%
%TO.N,/RESET*%
X71310000Y-72300000D03*
%TD*%
D22*
%TO.P,C9,1*%
%TO.N,+3.3V*%
X77325000Y-73200000D03*
%TO.P,C9,2*%
%TO.N,GND*%
X78875000Y-73200000D03*
%TD*%
D15*
%TO.P,J4,1,Pin_1*%
%TO.N,+3.3V*%
X103625000Y-53720000D03*
D16*
%TO.P,J4,2,Pin_2*%
X106165000Y-53720000D03*
%TO.P,J4,3,Pin_3*%
%TO.N,/SPI3_CS1*%
X103625000Y-56260000D03*
%TO.P,J4,4,Pin_4*%
%TO.N,/SPI3_MOSI*%
X106165000Y-56260000D03*
%TO.P,J4,5,Pin_5*%
%TO.N,unconnected-(J4-Pin_5-Pad5)*%
X103625000Y-58800000D03*
%TO.P,J4,6,Pin_6*%
%TO.N,/SPI3_MISO*%
X106165000Y-58800000D03*
%TO.P,J4,7,Pin_7*%
%TO.N,unconnected-(J4-Pin_7-Pad7)*%
X103625000Y-61340000D03*
%TO.P,J4,8,Pin_8*%
%TO.N,/SPI3_CLK*%
X106165000Y-61340000D03*
%TO.P,J4,9,Pin_9*%
%TO.N,GND*%
X103625000Y-63880000D03*
%TO.P,J4,10,Pin_10*%
X106165000Y-63880000D03*
%TD*%
D23*
%TO.P,J1,A1,GND*%
%TO.N,GND*%
X95400000Y-82810000D03*
%TO.P,J1,A4,VBUS*%
%TO.N,Net-(F1-Pad2)*%
X96200000Y-82810000D03*
D24*
%TO.P,J1,A5,CC1*%
%TO.N,Net-(J1-CC1)*%
X97350000Y-82810000D03*
%TO.P,J1,A6,D+*%
%TO.N,Net-(J1-D+-PadA6)*%
X98350000Y-82810000D03*
%TO.P,J1,A7,D-*%
%TO.N,Net-(J1-D--PadA7)*%
X98850000Y-82810000D03*
%TO.P,J1,A8,SBU1*%
%TO.N,unconnected-(J1-SBU1-PadA8)*%
X99850000Y-82810000D03*
D23*
%TO.P,J1,A9,VBUS*%
%TO.N,Net-(F1-Pad2)*%
X101000000Y-82810000D03*
%TO.P,J1,A12,GND*%
%TO.N,GND*%
X101800000Y-82810000D03*
%TO.P,J1,B1,GND*%
X101800000Y-82810000D03*
%TO.P,J1,B4,VBUS*%
%TO.N,Net-(F1-Pad2)*%
X101000000Y-82810000D03*
D24*
%TO.P,J1,B5,CC2*%
%TO.N,Net-(J1-CC2)*%
X100350000Y-82810000D03*
%TO.P,J1,B6,D+*%
%TO.N,Net-(J1-D+-PadA6)*%
X99350000Y-82810000D03*
%TO.P,J1,B7,D-*%
%TO.N,Net-(J1-D--PadA7)*%
X97850000Y-82810000D03*
%TO.P,J1,B8,SBU2*%
%TO.N,unconnected-(J1-SBU2-PadB8)*%
X96850000Y-82810000D03*
D23*
%TO.P,J1,B9,VBUS*%
%TO.N,Net-(F1-Pad2)*%
X96200000Y-82810000D03*
%TO.P,J1,B12,GND*%
%TO.N,GND*%
X95400000Y-82810000D03*
D25*
%TO.P,J1,S1,SHIELD*%
%TO.N,unconnected-(J1-SHIELD-PadS1)*%
X94280000Y-83385000D03*
D26*
%TO.N,unconnected-(J1-SHIELD-PadS1)_3*%
X94280000Y-87565000D03*
D25*
%TO.N,unconnected-(J1-SHIELD-PadS1)_1*%
X102920000Y-83385000D03*
D26*
%TO.N,unconnected-(J1-SHIELD-PadS1)_2*%
X102920000Y-87565000D03*
%TD*%
D27*
%TO.P,D1,1,K*%
%TO.N,GND*%
X73000000Y-86677500D03*
%TO.P,D1,2,A*%
%TO.N,Net-(D1-A)*%
X73000000Y-85102500D03*
%TD*%
D28*
%TO.P,R1,1*%
%TO.N,+3.3V*%
X73000000Y-82280000D03*
%TO.P,R1,2*%
%TO.N,Net-(D1-A)*%
X73000000Y-83300000D03*
%TD*%
D14*
%TO.P,C12,1*%
%TO.N,/HSE_IN*%
X75900000Y-63520000D03*
%TO.P,C12,2*%
%TO.N,GND*%
X75900000Y-64480000D03*
%TD*%
D29*
%TO.P,R3,1*%
%TO.N,Net-(J1-CC1)*%
X108600000Y-83710000D03*
%TO.P,R3,2*%
%TO.N,GND*%
X108600000Y-82690000D03*
%TD*%
D21*
%TO.P,R5,1*%
%TO.N,+3.3V*%
X80690000Y-57000000D03*
%TO.P,R5,2*%
%TO.N,/I2C1_SDA*%
X81710000Y-57000000D03*
%TD*%
D30*
%TO.P,U4,1,SDA*%
%TO.N,/I2C1_SDA*%
X82850000Y-50200000D03*
%TO.P,U4,2,GND*%
%TO.N,GND*%
X82850000Y-49200000D03*
%TO.P,U4,3,NC*%
%TO.N,unconnected-(U4-NC-Pad3)*%
X82850000Y-48200000D03*
%TO.P,U4,4,NC*%
%TO.N,unconnected-(U4-NC-Pad4)*%
X79950000Y-48200000D03*
%TO.P,U4,5,VDD*%
%TO.N,+3.3V*%
X79950000Y-49200000D03*
%TO.P,U4,6,SCL*%
%TO.N,/I2C1_SCL*%
X79950000Y-50200000D03*
D31*
%TO.P,U4,7,PAD*%
%TO.N,unconnected-(U4-PAD-Pad7)*%
X81400000Y-49200000D03*
%TD*%
D32*
%TO.P,C7,1*%
%TO.N,VBUS*%
X90300000Y-87575000D03*
%TO.P,C7,2*%
%TO.N,GND*%
X90300000Y-86025000D03*
%TD*%
D33*
%TO.P,U5,*%
%TO.N,*%
X114242500Y-49950000D03*
X114242500Y-84050000D03*
X175442500Y-49950000D03*
X175442500Y-84050000D03*
D34*
%TO.P,U5,1,VCC*%
%TO.N,+3.3V*%
X112742500Y-56840000D03*
D35*
%TO.P,U5,2,GND*%
%TO.N,GND*%
X112742500Y-59380000D03*
%TO.P,U5,3,~{CS}*%
%TO.N,/SPI3_CS2*%
X112742500Y-61920000D03*
%TO.P,U5,4,RESET*%
%TO.N,/LCD_RESET*%
X112742500Y-64460000D03*
%TO.P,U5,5,D/~{C}*%
%TO.N,/LCD_DC*%
X112742500Y-67000000D03*
%TO.P,U5,6,MOSI*%
%TO.N,/SPI3_MOSI*%
X112742500Y-69540000D03*
%TO.P,U5,7,SCK*%
%TO.N,/SPI3_CLK*%
X112742500Y-72080000D03*
%TO.P,U5,8,LED*%
%TO.N,/TIM1_CH1*%
X112742500Y-74620000D03*
%TO.P,U5,9,MISO*%
%TO.N,/SPI3_MISO*%
X112742500Y-77160000D03*
%TO.P,U5,10,SD_CS*%
%TO.N,unconnected-(U5-SD_CS-Pad10)*%
X176262500Y-61920000D03*
%TO.P,U5,11,SD_MOSI*%
%TO.N,unconnected-(U5-SD_MOSI-Pad11)*%
X176262500Y-64460000D03*
%TO.P,U5,12,SD_MISO*%
%TO.N,unconnected-(U5-SD_MISO-Pad12)*%
X176262500Y-67000000D03*
%TO.P,U5,13,SD_SCK*%
%TO.N,unconnected-(U5-SD_SCK-Pad13)*%
X176262500Y-69540000D03*
%TO.P,U5,14,FLASH_CD*%
%TO.N,unconnected-(U5-FLASH_CD-Pad14)*%
X176262500Y-72080000D03*
%TD*%
D36*
%TO.P,FB2,1*%
%TO.N,+5V*%
X89512500Y-79900000D03*
%TO.P,FB2,2*%
%TO.N,Net-(F1-Pad1)*%
X91087500Y-79900000D03*
%TD*%
D37*
%TO.P,C3,1*%
%TO.N,+3.3V*%
X88120000Y-74000000D03*
%TO.P,C3,2*%
%TO.N,GND*%
X89080000Y-74000000D03*
%TD*%
D29*
%TO.P,R2,1*%
%TO.N,Net-(J1-CC2)*%
X106000000Y-83710000D03*
%TO.P,R2,2*%
%TO.N,GND*%
X106000000Y-82690000D03*
%TD*%
D14*
%TO.P,C4,1*%
%TO.N,+3.3V*%
X92000000Y-62620000D03*
%TO.P,C4,2*%
%TO.N,GND*%
X92000000Y-63580000D03*
%TD*%
D32*
%TO.P,C8,1*%
%TO.N,+3.3V*%
X74500000Y-70375000D03*
%TO.P,C8,2*%
%TO.N,GND*%
X74500000Y-68825000D03*
%TD*%
D21*
%TO.P,R6,1*%
%TO.N,GND*%
X80990000Y-58700000D03*
%TO.P,R6,2*%
%TO.N,Net-(U1-BOOT0)*%
X82010000Y-58700000D03*
%TD*%
D38*
%TO.P,U3,1,I/O1*%
%TO.N,Net-(J1-D--PadA7)*%
X97450000Y-79237500D03*
%TO.P,U3,2,GND*%
%TO.N,GND*%
X98400000Y-79237500D03*
%TO.P,U3,3,I/O2*%
%TO.N,Net-(J1-D+-PadA6)*%
X99350000Y-79237500D03*
%TO.P,U3,4,I/O2*%
%TO.N,/USB_D+*%
X99350000Y-76962500D03*
%TO.P,U3,5,VBUS*%
%TO.N,+5V*%
X98400000Y-76962500D03*
%TO.P,U3,6,I/O1*%
%TO.N,/USB_D-*%
X97450000Y-76962500D03*
%TD*%
D15*
%TO.P,J2,1,Pin_1*%
%TO.N,+3.3V*%
X97720000Y-54100000D03*
D16*
%TO.P,J2,2,Pin_2*%
%TO.N,/SWDIO*%
X95180000Y-54100000D03*
%TO.P,J2,3,Pin_3*%
%TO.N,/SWCLK*%
X92640000Y-54100000D03*
%TO.P,J2,4,Pin_4*%
%TO.N,GND*%
X90100000Y-54100000D03*
%TD*%
D39*
%TO.P,F1,1*%
%TO.N,Net-(F1-Pad1)*%
X92915000Y-79900000D03*
%TO.P,F1,2*%
%TO.N,Net-(F1-Pad2)*%
X93885000Y-79900000D03*
%TD*%
D40*
%TO.P,SW1,1,1*%
%TO.N,GND*%
X67800000Y-76000000D03*
%TO.P,SW1,2,2*%
%TO.N,/RESET*%
X72000000Y-76000000D03*
%TD*%
D22*
%TO.P,C16,1*%
%TO.N,GND*%
X85125000Y-74300000D03*
%TO.P,C16,2*%
%TO.N,Net-(U1-VCAP_1)*%
X86675000Y-74300000D03*
%TD*%
D41*
%TO.P,C11,1*%
%TO.N,+5V*%
X95450000Y-77000000D03*
%TO.P,C11,2*%
%TO.N,GND*%
X93550000Y-77000000D03*
%TD*%
D42*
%TO.P,U1,1,VBAT*%
%TO.N,+3.3V*%
X78525000Y-62650000D03*
%TO.P,U1,2,PC13*%
%TO.N,unconnected-(U1-PC13-Pad2)*%
X78525000Y-63150000D03*
%TO.P,U1,3,PC14*%
%TO.N,unconnected-(U1-PC14-Pad3)*%
X78525000Y-63650000D03*
%TO.P,U1,4,PC15*%
%TO.N,unconnected-(U1-PC15-Pad4)*%
X78525000Y-64150000D03*
%TO.P,U1,5,PH0*%
%TO.N,/HSE_IN*%
X78525000Y-64650000D03*
%TO.P,U1,6,PH1*%
%TO.N,/HSE_OUT*%
X78525000Y-65150000D03*
%TO.P,U1,7,NRST*%
%TO.N,/RESET*%
X78525000Y-65650000D03*
%TO.P,U1,8,PC0*%
%TO.N,unconnected-(U1-PC0-Pad8)*%
X78525000Y-66150000D03*
%TO.P,U1,9,PC1*%
%TO.N,unconnected-(U1-PC1-Pad9)*%
X78525000Y-66650000D03*
%TO.P,U1,10,PC2*%
%TO.N,unconnected-(U1-PC2-Pad10)*%
X78525000Y-67150000D03*
%TO.P,U1,11,PC3*%
%TO.N,unconnected-(U1-PC3-Pad11)*%
X78525000Y-67650000D03*
%TO.P,U1,12,VSSA*%
%TO.N,GND*%
X78525000Y-68150000D03*
%TO.P,U1,13,VDDA*%
%TO.N,+3.3V*%
X78525000Y-68650000D03*
%TO.P,U1,14,PA0*%
%TO.N,unconnected-(U1-PA0-Pad14)*%
X78525000Y-69150000D03*
%TO.P,U1,15,PA1*%
%TO.N,unconnected-(U1-PA1-Pad15)*%
X78525000Y-69650000D03*
%TO.P,U1,16,PA2*%
%TO.N,unconnected-(U1-PA2-Pad16)*%
X78525000Y-70150000D03*
D43*
%TO.P,U1,17,PA3*%
%TO.N,unconnected-(U1-PA3-Pad17)*%
X80450000Y-72075000D03*
%TO.P,U1,18,VSS*%
%TO.N,GND*%
X80950000Y-72075000D03*
%TO.P,U1,19,VDD*%
%TO.N,+3.3V*%
X81450000Y-72075000D03*
%TO.P,U1,20,PA4*%
%TO.N,unconnected-(U1-PA4-Pad20)*%
X81950000Y-72075000D03*
%TO.P,U1,21,PA5*%
%TO.N,unconnected-(U1-PA5-Pad21)*%
X82450000Y-72075000D03*
%TO.P,U1,22,PA6*%
%TO.N,unconnected-(U1-PA6-Pad22)*%
X82950000Y-72075000D03*
%TO.P,U1,23,PA7*%
%TO.N,unconnected-(U1-PA7-Pad23)*%
X83450000Y-72075000D03*
%TO.P,U1,24,PC4*%
%TO.N,/LCD_DC*%
X83950000Y-72075000D03*
%TO.P,U1,25,PC5*%
%TO.N,/LCD_RESET*%
X84450000Y-72075000D03*
%TO.P,U1,26,PB0*%
%TO.N,unconnected-(U1-PB0-Pad26)*%
X84950000Y-72075000D03*
%TO.P,U1,27,PB1*%
%TO.N,unconnected-(U1-PB1-Pad27)*%
X85450000Y-72075000D03*
%TO.P,U1,28,PB2*%
%TO.N,unconnected-(U1-PB2-Pad28)*%
X85950000Y-72075000D03*
%TO.P,U1,29,PB10*%
%TO.N,unconnected-(U1-PB10-Pad29)*%
X86450000Y-72075000D03*
%TO.P,U1,30,VCAP_1*%
%TO.N,Net-(U1-VCAP_1)*%
X86950000Y-72075000D03*
%TO.P,U1,31,VSS*%
%TO.N,GND*%
X87450000Y-72075000D03*
%TO.P,U1,32,VDD*%
%TO.N,+3.3V*%
X87950000Y-72075000D03*
D42*
%TO.P,U1,33,PB12*%
%TO.N,unconnected-(U1-PB12-Pad33)*%
X89875000Y-70150000D03*
%TO.P,U1,34,PB13*%
%TO.N,unconnected-(U1-PB13-Pad34)*%
X89875000Y-69650000D03*
%TO.P,U1,35,PB14*%
%TO.N,unconnected-(U1-PB14-Pad35)*%
X89875000Y-69150000D03*
%TO.P,U1,36,PB15*%
%TO.N,unconnected-(U1-PB15-Pad36)*%
X89875000Y-68650000D03*
%TO.P,U1,37,PC6*%
%TO.N,/USART6_TX*%
X89875000Y-68150000D03*
%TO.P,U1,38,PC7*%
%TO.N,/USART6_RX*%
X89875000Y-67650000D03*
%TO.P,U1,39,PC8*%
%TO.N,/SPI3_CS1*%
X89875000Y-67150000D03*
%TO.P,U1,40,PC9*%
%TO.N,/SPI3_CS2*%
X89875000Y-66650000D03*
%TO.P,U1,41,PA8*%
%TO.N,/TIM1_CH1*%
X89875000Y-66150000D03*
%TO.P,U1,42,PA9*%
%TO.N,unconnected-(U1-PA9-Pad42)*%
X89875000Y-65650000D03*
%TO.P,U1,43,PA10*%
%TO.N,unconnected-(U1-PA10-Pad43)*%
X89875000Y-65150000D03*
%TO.P,U1,44,PA11*%
%TO.N,/USB_D-*%
X89875000Y-64650000D03*
%TO.P,U1,45,PA12*%
%TO.N,/USB_D+*%
X89875000Y-64150000D03*
%TO.P,U1,46,PA13*%
%TO.N,/SWDIO*%
X89875000Y-63650000D03*
%TO.P,U1,47,VSS*%
%TO.N,GND*%
X89875000Y-63150000D03*
%TO.P,U1,48,VDD*%
%TO.N,+3.3V*%
X89875000Y-62650000D03*
D43*
%TO.P,U1,49,PA14*%
%TO.N,/SWCLK*%
X87950000Y-60725000D03*
%TO.P,U1,50,PA15*%
%TO.N,unconnected-(U1-PA15-Pad50)*%
X87450000Y-60725000D03*
%TO.P,U1,51,PC10*%
%TO.N,/SPI3_CLK*%
X86950000Y-60725000D03*
%TO.P,U1,52,PC11*%
%TO.N,/SPI3_MISO*%
X86450000Y-60725000D03*
%TO.P,U1,53,PC12*%
%TO.N,/SPI3_MOSI*%
X85950000Y-60725000D03*
%TO.P,U1,54,PD2*%
%TO.N,unconnected-(U1-PD2-Pad54)*%
X85450000Y-60725000D03*
%TO.P,U1,55,PB3*%
%TO.N,unconnected-(U1-PB3-Pad55)*%
X84950000Y-60725000D03*
%TO.P,U1,56,PB4*%
%TO.N,unconnected-(U1-PB4-Pad56)*%
X84450000Y-60725000D03*
%TO.P,U1,57,PB5*%
%TO.N,unconnected-(U1-PB5-Pad57)*%
X83950000Y-60725000D03*
%TO.P,U1,58,PB6*%
%TO.N,/I2C1_SCL*%
X83450000Y-60725000D03*
%TO.P,U1,59,PB7*%
%TO.N,/I2C1_SDA*%
X82950000Y-60725000D03*
%TO.P,U1,60,BOOT0*%
%TO.N,Net-(U1-BOOT0)*%
X82450000Y-60725000D03*
%TO.P,U1,61,PB8*%
%TO.N,unconnected-(U1-PB8-Pad61)*%
X81950000Y-60725000D03*
%TO.P,U1,62,PB9*%
%TO.N,unconnected-(U1-PB9-Pad62)*%
X81450000Y-60725000D03*
%TO.P,U1,63,VSS*%
%TO.N,GND*%
X80950000Y-60725000D03*
%TO.P,U1,64,VDD*%
%TO.N,+3.3V*%
X80450000Y-60725000D03*
%TD*%
D20*
%TO.P,C1,1*%
%TO.N,+3.3V*%
X76700000Y-62080000D03*
%TO.P,C1,2*%
%TO.N,GND*%
X76700000Y-61120000D03*
%TD*%
D44*
%TO.P,Y1,1,1*%
%TO.N,/HSE_IN*%
X72500000Y-63900000D03*
%TO.P,Y1,2,2*%
%TO.N,GND*%
X70300000Y-63900000D03*
%TO.P,Y1,3,3*%
%TO.N,/HSE_OUT*%
X70300000Y-65600000D03*
%TO.P,Y1,4,4*%
%TO.N,GND*%
X72500000Y-65600000D03*
%TD*%
D14*
%TO.P,C13,1*%
%TO.N,/HSE_OUT*%
X74900000Y-66120000D03*
%TO.P,C13,2*%
%TO.N,GND*%
X74900000Y-67080000D03*
%TD*%
D37*
%TO.P,C15,1*%
%TO.N,GND*%
X70520000Y-69600000D03*
%TO.P,C15,2*%
%TO.N,/RESET*%
X71480000Y-69600000D03*
%TD*%
D45*
%TO.N,GND*%
X92400000Y-81500000D03*
X78900000Y-58700000D03*
X76700000Y-59000000D03*
X81500000Y-62600000D03*
X74100000Y-65300000D03*
X95800000Y-78600000D03*
X110000000Y-81900000D03*
X81000000Y-70200000D03*
X85600000Y-50700000D03*
X85500000Y-49200000D03*
X66200000Y-76000000D03*
X67600000Y-63900000D03*
X79500000Y-75800000D03*
X80800000Y-68200000D03*
X78600000Y-87000000D03*
X99600000Y-63900000D03*
X74200000Y-64500000D03*
X75100000Y-79500000D03*
X70100000Y-86700000D03*
X87500000Y-70100000D03*
X90700000Y-77000000D03*
X95900000Y-62700000D03*
X89100000Y-72700000D03*
X99800000Y-65700000D03*
X90300000Y-83800000D03*
X109600000Y-54400000D03*
X75400000Y-50300000D03*
X72500000Y-70900000D03*
X77000000Y-67600000D03*
D46*
X90100000Y-50700000D03*
D45*
X73700000Y-67200000D03*
X102500000Y-81300000D03*
X88000000Y-63200000D03*
X69100000Y-69600000D03*
X85120000Y-75090000D03*
X78000000Y-71700000D03*
%TO.N,+3.3V*%
X109900000Y-51000000D03*
X74500000Y-62100000D03*
X81600000Y-75900000D03*
X110600000Y-54400000D03*
X73000000Y-54500000D03*
X69000000Y-72300000D03*
X84000000Y-78400000D03*
X75400000Y-49300000D03*
X108200000Y-79700000D03*
X96200000Y-61600000D03*
X78100000Y-57000000D03*
X76300000Y-75300000D03*
X73000000Y-79600000D03*
X85600000Y-58100000D03*
X78900000Y-59500000D03*
X80500000Y-62600000D03*
X75000000Y-81300000D03*
X88120000Y-74500000D03*
X97700000Y-50900000D03*
X73800000Y-75200000D03*
%TO.N,VBUS*%
X89200000Y-83700000D03*
X88200000Y-83700000D03*
%TO.N,+5V*%
X94100000Y-78700000D03*
X87700000Y-78400000D03*
X100800000Y-81000000D03*
%TO.N,Net-(F1-Pad2)*%
X99900000Y-81400000D03*
X97100000Y-81500000D03*
D46*
%TO.N,/SWDIO*%
X91200000Y-63300000D03*
%TO.N,/SWCLK*%
X91200000Y-59650000D03*
%TO.N,/I2C1_SCL*%
X80300000Y-51800000D03*
%TO.N,/SPI3_CS1*%
X93300000Y-66300000D03*
%TO.N,/USART6_RX*%
X94800000Y-67700000D03*
%TO.N,/USART6_TX*%
X94600000Y-68500000D03*
%TO.N,/TIM1_CH1*%
X97300000Y-72700000D03*
%TO.N,/LCD_DC*%
X94600000Y-71200000D03*
%TO.N,/LCD_RESET*%
X94600000Y-70100000D03*
%TO.N,/SPI3_CS2*%
X91990380Y-66500000D03*
%TD*%
D47*
%TO.N,GND*%
X85610000Y-50710000D02*
X85600000Y-50700000D01*
D48*
X87450000Y-72075000D02*
X87450000Y-70150000D01*
D47*
X96276000Y-78124000D02*
X95800000Y-78600000D01*
X76500000Y-68620000D02*
X76500000Y-68100000D01*
X103625000Y-63880000D02*
X99620000Y-63880000D01*
X67800000Y-76000000D02*
X66200000Y-76000000D01*
X82850000Y-49200000D02*
X85500000Y-49200000D01*
X98400000Y-79237500D02*
X98400000Y-78670900D01*
X78100000Y-50280000D02*
X75420000Y-50280000D01*
X73725000Y-68825000D02*
X73700000Y-68800000D01*
D48*
X89875000Y-63150000D02*
X88050000Y-63150000D01*
D47*
X85610000Y-54400000D02*
X85610000Y-50710000D01*
X80990000Y-58700000D02*
X78900000Y-58700000D01*
X92000000Y-63580000D02*
X93180000Y-63580000D01*
X80200000Y-74100000D02*
X80100000Y-74200000D01*
X74220000Y-64480000D02*
X74200000Y-64500000D01*
X74500000Y-68825000D02*
X73725000Y-68825000D01*
X101040000Y-65700000D02*
X99800000Y-65700000D01*
X89080000Y-72720000D02*
X89100000Y-72700000D01*
X75150000Y-79450000D02*
X75100000Y-79500000D01*
X78875000Y-73200000D02*
X78875000Y-72575000D01*
X90300000Y-86025000D02*
X90300000Y-83800000D01*
X109600000Y-56237500D02*
X109600000Y-54400000D01*
X112742500Y-59380000D02*
X109600000Y-56237500D01*
X72500000Y-70000000D02*
X72500000Y-70900000D01*
X94000000Y-63775000D02*
X94325000Y-63775000D01*
X93375000Y-63775000D02*
X94000000Y-63775000D01*
X93805000Y-63580000D02*
X94000000Y-63775000D01*
X73800000Y-65600000D02*
X74100000Y-65300000D01*
X74900000Y-67080000D02*
X74780000Y-67200000D01*
X93550000Y-77000000D02*
X90700000Y-77000000D01*
X98400000Y-78670900D02*
X97853100Y-78124000D01*
X70520000Y-69600000D02*
X69100000Y-69600000D01*
X97853100Y-78124000D02*
X96276000Y-78124000D01*
X70300000Y-63900000D02*
X67600000Y-63900000D01*
X95400000Y-82235001D02*
X94664999Y-81500000D01*
X95400000Y-62700000D02*
X95900000Y-62700000D01*
X101800000Y-82810000D02*
X101800000Y-82000000D01*
D48*
X80750000Y-68150000D02*
X80800000Y-68200000D01*
D47*
X106165000Y-63880000D02*
X103625000Y-63880000D01*
X81700000Y-86950000D02*
X78650000Y-86950000D01*
X94325000Y-63775000D02*
X95400000Y-62700000D01*
X78400000Y-79450000D02*
X75150000Y-79450000D01*
D48*
X80950000Y-60725000D02*
X80950000Y-62050000D01*
D47*
X93180000Y-63580000D02*
X93375000Y-63775000D01*
X75900000Y-64480000D02*
X74220000Y-64480000D01*
X85125000Y-75085000D02*
X85120000Y-75090000D01*
X94664999Y-81500000D02*
X92400000Y-81500000D01*
X79500000Y-74800000D02*
X79500000Y-75800000D01*
X76700000Y-61120000D02*
X76700000Y-59000000D01*
D48*
X88050000Y-63150000D02*
X88000000Y-63200000D01*
D47*
X78875000Y-72575000D02*
X78000000Y-71700000D01*
X74780000Y-67200000D02*
X73700000Y-67200000D01*
X85125000Y-74300000D02*
X85125000Y-74324000D01*
X101800000Y-82000000D02*
X102500000Y-81300000D01*
X95400000Y-82810000D02*
X95400000Y-82235001D01*
X78650000Y-86950000D02*
X78600000Y-87000000D01*
X85125000Y-74300000D02*
X85125000Y-75085000D01*
X103700000Y-68360000D02*
X101040000Y-65700000D01*
X109210000Y-82690000D02*
X110000000Y-81900000D01*
X106000000Y-82690000D02*
X109210000Y-82690000D01*
X70122500Y-86677500D02*
X70100000Y-86700000D01*
D48*
X78525000Y-68150000D02*
X80750000Y-68150000D01*
D47*
X99620000Y-63880000D02*
X99600000Y-63900000D01*
X75420000Y-50280000D02*
X75400000Y-50300000D01*
D48*
X80950000Y-72075000D02*
X80950000Y-70250000D01*
X80950000Y-62050000D02*
X81500000Y-62600000D01*
D47*
X73000000Y-86677500D02*
X70122500Y-86677500D01*
D48*
X80950000Y-70250000D02*
X81000000Y-70200000D01*
D47*
X80100000Y-74200000D02*
X79500000Y-74800000D01*
X76500000Y-68100000D02*
X77000000Y-67600000D01*
X90100000Y-54100000D02*
X90100000Y-50700000D01*
X72500000Y-65600000D02*
X73800000Y-65600000D01*
X80620000Y-74100000D02*
X80200000Y-74100000D01*
D48*
X87450000Y-70150000D02*
X87500000Y-70100000D01*
D47*
X73700000Y-68800000D02*
X72500000Y-70000000D01*
X89080000Y-74000000D02*
X89080000Y-72720000D01*
%TO.N,+3.3V*%
X79100000Y-80650000D02*
X78400000Y-81350000D01*
X108200000Y-78400000D02*
X108200000Y-79700000D01*
X94000000Y-62225000D02*
X92395000Y-62225000D01*
X92395000Y-62225000D02*
X92000000Y-62620000D01*
X105900000Y-76100000D02*
X108200000Y-78400000D01*
D48*
X74520000Y-62080000D02*
X74500000Y-62100000D01*
D47*
X78400000Y-81350000D02*
X75050000Y-81350000D01*
D49*
X91970000Y-62650000D02*
X92000000Y-62620000D01*
D47*
X77325000Y-73200000D02*
X76187500Y-73200000D01*
X73812500Y-72400000D02*
X73812500Y-70862500D01*
D48*
X80450000Y-60725000D02*
X80450000Y-59750000D01*
X87950000Y-72850000D02*
X88120000Y-73020000D01*
D47*
X74500000Y-70175000D02*
X75905000Y-70175000D01*
D48*
X78525000Y-62650000D02*
X77270000Y-62650000D01*
D47*
X106165000Y-53720000D02*
X108480000Y-53720000D01*
X84000000Y-80650000D02*
X79100000Y-80650000D01*
D48*
X81450000Y-73050000D02*
X81600000Y-73200000D01*
D50*
X79950000Y-49200000D02*
X79200000Y-49200000D01*
D47*
X97720000Y-54100000D02*
X97720000Y-50920000D01*
X84910000Y-57410000D02*
X85600000Y-58100000D01*
X110600000Y-56000000D02*
X110600000Y-54400000D01*
D48*
X76715466Y-69580000D02*
X77645466Y-68650000D01*
D47*
X77325000Y-73200000D02*
X77325000Y-74275000D01*
X94575000Y-62225000D02*
X95200000Y-61600000D01*
D48*
X77270000Y-62650000D02*
X76700000Y-62080000D01*
X77645466Y-68650000D02*
X78525000Y-68650000D01*
X81580000Y-73220000D02*
X81580000Y-74100000D01*
D47*
X103700000Y-75980000D02*
X105780000Y-75980000D01*
X73100000Y-54400000D02*
X73000000Y-54500000D01*
D49*
X81580000Y-75880000D02*
X81600000Y-75900000D01*
D47*
X77990000Y-54400000D02*
X73100000Y-54400000D01*
X84910000Y-57000000D02*
X84910000Y-57410000D01*
X77325000Y-74275000D02*
X76300000Y-75300000D01*
X108500000Y-53700000D02*
X109900000Y-52300000D01*
X108480000Y-53720000D02*
X108500000Y-53700000D01*
D49*
X89875000Y-62650000D02*
X91970000Y-62650000D01*
D47*
X94000000Y-62225000D02*
X94575000Y-62225000D01*
X80690000Y-57000000D02*
X78100000Y-57000000D01*
X111440000Y-56840000D02*
X110600000Y-56000000D01*
D49*
X81580000Y-74100000D02*
X81450000Y-73970000D01*
D48*
X88120000Y-74000000D02*
X88120000Y-74500000D01*
D47*
X109900000Y-52300000D02*
X109900000Y-51000000D01*
X75050000Y-81350000D02*
X75000000Y-81300000D01*
X70290000Y-72300000D02*
X69000000Y-72300000D01*
X75420000Y-49320000D02*
X75400000Y-49300000D01*
X105780000Y-75980000D02*
X105900000Y-76100000D01*
X73812500Y-75187500D02*
X73800000Y-75200000D01*
D48*
X76700000Y-62080000D02*
X74520000Y-62080000D01*
D49*
X89905000Y-62620000D02*
X89875000Y-62650000D01*
D47*
X76187500Y-73200000D02*
X75387500Y-72400000D01*
X75905000Y-70175000D02*
X76500000Y-69580000D01*
X84000000Y-80650000D02*
X84000000Y-78400000D01*
D48*
X80450000Y-59750000D02*
X80200000Y-59500000D01*
X87950000Y-72075000D02*
X87950000Y-72850000D01*
X80450000Y-62650000D02*
X80500000Y-62600000D01*
D49*
X81580000Y-74100000D02*
X81580000Y-75880000D01*
D47*
X73812500Y-70862500D02*
X74500000Y-70175000D01*
D48*
X78525000Y-62650000D02*
X80450000Y-62650000D01*
D47*
X112742500Y-56840000D02*
X111440000Y-56840000D01*
X73812500Y-72400000D02*
X73812500Y-75187500D01*
X73000000Y-82280000D02*
X73000000Y-79600000D01*
X103625000Y-53720000D02*
X106165000Y-53720000D01*
D48*
X88120000Y-73020000D02*
X88120000Y-74000000D01*
D50*
X79200000Y-49200000D02*
X79080000Y-49320000D01*
D48*
X81600000Y-73200000D02*
X81580000Y-73220000D01*
D47*
X75387500Y-72400000D02*
X73812500Y-72400000D01*
X84000000Y-86950000D02*
X84000000Y-80650000D01*
X78100000Y-49320000D02*
X75420000Y-49320000D01*
X95200000Y-61600000D02*
X96200000Y-61600000D01*
X97720000Y-50920000D02*
X97700000Y-50900000D01*
D48*
X80200000Y-59500000D02*
X78900000Y-59500000D01*
D50*
X79080000Y-49320000D02*
X78100000Y-49320000D01*
D48*
X76500000Y-69580000D02*
X76715466Y-69580000D01*
X81450000Y-72075000D02*
X81450000Y-73050000D01*
D47*
%TO.N,VBUS*%
X86300000Y-86950000D02*
X86300000Y-86800000D01*
X90300000Y-87575000D02*
X90075000Y-87575000D01*
X90075000Y-87575000D02*
X89200000Y-86700000D01*
X88000000Y-85100000D02*
X88200000Y-84900000D01*
X86300000Y-86800000D02*
X88000000Y-85100000D01*
X86300000Y-86950000D02*
X86300000Y-86400000D01*
X89200000Y-86700000D02*
X89200000Y-83700000D01*
X88200000Y-84900000D02*
X88200000Y-83700000D01*
%TO.N,+5V*%
X98400000Y-76962500D02*
X98400000Y-77624999D01*
X88500000Y-79900000D02*
X88400000Y-79800000D01*
X99753100Y-78124000D02*
X100800000Y-79170900D01*
X95450000Y-77000000D02*
X95450000Y-77350000D01*
X88400000Y-79800000D02*
X87700000Y-79100000D01*
X89512500Y-79900000D02*
X88500000Y-79900000D01*
X98400000Y-77624999D02*
X98899001Y-78124000D01*
X87700000Y-79100000D02*
X87700000Y-78400000D01*
X100800000Y-79170900D02*
X100800000Y-81000000D01*
X98899001Y-78124000D02*
X99753100Y-78124000D01*
X95450000Y-77350000D02*
X94100000Y-78700000D01*
D48*
%TO.N,/HSE_IN*%
X76515466Y-63520000D02*
X75900000Y-63520000D01*
X72500000Y-63900000D02*
X72880000Y-63520000D01*
X72880000Y-63520000D02*
X75900000Y-63520000D01*
X78525000Y-64650000D02*
X77645466Y-64650000D01*
X77645466Y-64650000D02*
X76515466Y-63520000D01*
%TO.N,/HSE_OUT*%
X70300000Y-65600000D02*
X71251000Y-66551000D01*
X74159001Y-66551000D02*
X74590001Y-66120000D01*
X71251000Y-66551000D02*
X74159001Y-66551000D01*
X75870000Y-65150000D02*
X78525000Y-65150000D01*
X74590001Y-66120000D02*
X74900000Y-66120000D01*
X74900000Y-66120000D02*
X75870000Y-65150000D01*
%TO.N,/RESET*%
X78525000Y-65650000D02*
X77550000Y-65650000D01*
X71480000Y-72130000D02*
X71310000Y-72300000D01*
X75376000Y-67824000D02*
X73256000Y-67824000D01*
X71480000Y-69600000D02*
X71480000Y-72130000D01*
X77550000Y-65650000D02*
X75376000Y-67824000D01*
X73256000Y-67824000D02*
X71480000Y-69600000D01*
X71310000Y-72300000D02*
X71310000Y-75310000D01*
X71310000Y-75310000D02*
X72000000Y-76000000D01*
%TO.N,Net-(U1-VCAP_1)*%
X86675000Y-73525000D02*
X86675000Y-74300000D01*
X86950000Y-73250000D02*
X86675000Y-73525000D01*
X86950000Y-72075000D02*
X86950000Y-73250000D01*
D50*
%TO.N,Net-(D1-A)*%
X73000000Y-83300000D02*
X73000000Y-85102500D01*
D47*
%TO.N,Net-(F1-Pad1)*%
X92915000Y-79900000D02*
X91087500Y-79900000D01*
D50*
%TO.N,Net-(F1-Pad2)*%
X97100000Y-81500000D02*
X96909756Y-81500000D01*
X95000000Y-79900000D02*
X96200000Y-81100000D01*
X96909756Y-81500000D02*
X96200000Y-82209756D01*
X93885000Y-79900000D02*
X95000000Y-79900000D01*
X96200000Y-81100000D02*
X96200000Y-82810000D01*
X96200000Y-82209756D02*
X96200000Y-82810000D01*
X100190244Y-81400000D02*
X99900000Y-81400000D01*
X101000000Y-82209756D02*
X100190244Y-81400000D01*
X101000000Y-82810000D02*
X101000000Y-82209756D01*
D48*
%TO.N,Net-(J1-CC1)*%
X107500000Y-86100000D02*
X108600000Y-85000000D01*
X98500000Y-86100000D02*
X107500000Y-86100000D01*
X97350000Y-82810000D02*
X97350000Y-84950000D01*
X108600000Y-85000000D02*
X108600000Y-83710000D01*
X97350000Y-84950000D02*
X98500000Y-86100000D01*
%TO.N,Net-(J1-D--PadA7)*%
X98800000Y-83900000D02*
X98850000Y-83850000D01*
X97900000Y-83900000D02*
X98800000Y-83900000D01*
X97850000Y-83850000D02*
X97900000Y-83900000D01*
X97850000Y-82810000D02*
X97850000Y-83850000D01*
X97900000Y-81400000D02*
X97850000Y-81450000D01*
X98850000Y-83850000D02*
X98850000Y-82810000D01*
X97450000Y-79237500D02*
X97450000Y-80950000D01*
X97450000Y-80950000D02*
X97900000Y-81400000D01*
X97850000Y-81450000D02*
X97850000Y-82810000D01*
%TO.N,Net-(J1-CC2)*%
X106000000Y-83710000D02*
X106000000Y-84800000D01*
X100350000Y-84950000D02*
X100900000Y-85500000D01*
X100900000Y-85500000D02*
X105300000Y-85500000D01*
X100350000Y-82810000D02*
X100350000Y-84950000D01*
X105300000Y-85500000D02*
X106000000Y-84800000D01*
%TO.N,Net-(J1-D+-PadA6)*%
X98596466Y-81884000D02*
X98540233Y-81940233D01*
X99184000Y-81884000D02*
X98596466Y-81884000D01*
X99300000Y-81300000D02*
X99350000Y-81250000D01*
X98350000Y-82810000D02*
X98350000Y-82130466D01*
X99350000Y-82050000D02*
X99184000Y-81884000D01*
X99350000Y-81250000D02*
X99350000Y-79237500D01*
X99180466Y-81300000D02*
X99300000Y-81300000D01*
X98350000Y-82130466D02*
X98540233Y-81940233D01*
X98540233Y-81940233D02*
X99180466Y-81300000D01*
X99350000Y-82810000D02*
X99350000Y-82050000D01*
%TO.N,/SWDIO*%
X89875000Y-63650000D02*
X90850000Y-63650000D01*
X90850000Y-63650000D02*
X91200000Y-63300000D01*
%TO.N,/SWCLK*%
X87950000Y-60725000D02*
X87950000Y-59850000D01*
X88200000Y-59600000D02*
X91150000Y-59600000D01*
X91150000Y-59600000D02*
X91200000Y-59650000D01*
X87950000Y-59850000D02*
X88200000Y-59600000D01*
%TO.N,/I2C1_SCL*%
X83300000Y-54630000D02*
X83070000Y-54400000D01*
X79950000Y-51450000D02*
X80000000Y-51500000D01*
X83900000Y-57800000D02*
X83900000Y-56300000D01*
X83300000Y-55700000D02*
X83300000Y-54630000D01*
X80000000Y-51500000D02*
X80300000Y-51800000D01*
X79950000Y-50200000D02*
X79950000Y-51450000D01*
X83450000Y-58250000D02*
X83900000Y-57800000D01*
X83900000Y-56300000D02*
X83300000Y-55700000D01*
X83450000Y-60725000D02*
X83450000Y-58250000D01*
%TO.N,/I2C1_SDA*%
X81800000Y-57800000D02*
X81800000Y-55670000D01*
X82950000Y-60725000D02*
X82950000Y-58550000D01*
X81800000Y-55670000D02*
X80530000Y-54400000D01*
X80530000Y-52520000D02*
X80530000Y-54400000D01*
X82200000Y-57800000D02*
X81800000Y-57800000D01*
X82850000Y-50200000D02*
X80530000Y-52520000D01*
X82950000Y-58550000D02*
X82200000Y-57800000D01*
%TO.N,/SPI3_CLK*%
X104964000Y-62541000D02*
X106165000Y-61340000D01*
X110361000Y-78261000D02*
X113839000Y-78261000D01*
X106165000Y-61340000D02*
X108100000Y-63275000D01*
X87500000Y-59000000D02*
X99586529Y-59000000D01*
X108100000Y-63275000D02*
X108100000Y-76000000D01*
X99586529Y-59000000D02*
X103127529Y-62541000D01*
X103127529Y-62541000D02*
X104964000Y-62541000D01*
X113800000Y-72200000D02*
X112862500Y-72200000D01*
X113800000Y-72300000D02*
X113800000Y-72200000D01*
X114900000Y-73400000D02*
X113800000Y-72300000D01*
X112862500Y-72200000D02*
X112742500Y-72080000D01*
X108100000Y-76000000D02*
X110361000Y-78261000D01*
X86950000Y-59550000D02*
X87500000Y-59000000D01*
X86950000Y-60725000D02*
X86950000Y-59550000D01*
X114900000Y-77200000D02*
X114900000Y-73400000D01*
X113839000Y-78261000D02*
X114900000Y-77200000D01*
%TO.N,/SPI3_CS1*%
X92450000Y-67150000D02*
X93300000Y-66300000D01*
X89875000Y-67150000D02*
X92450000Y-67150000D01*
%TO.N,/SPI3_MISO*%
X108900000Y-75600000D02*
X110500000Y-77200000D01*
X103101000Y-60001000D02*
X101300000Y-58200000D01*
X86450000Y-59158520D02*
X86450000Y-60725000D01*
X108900000Y-61535000D02*
X108900000Y-75600000D01*
X101300000Y-58200000D02*
X87408520Y-58200000D01*
X110500000Y-77200000D02*
X110540000Y-77160000D01*
X106165000Y-58800000D02*
X108900000Y-61535000D01*
X110540000Y-77160000D02*
X112742500Y-77160000D01*
X87408520Y-58200000D02*
X86450000Y-59158520D01*
X106165000Y-58800000D02*
X104964000Y-60001000D01*
X104964000Y-60001000D02*
X103101000Y-60001000D01*
%TO.N,/SPI3_MOSI*%
X111100000Y-69600000D02*
X111160000Y-69540000D01*
X107700000Y-56200000D02*
X109600000Y-58100000D01*
X109700000Y-68200000D02*
X111100000Y-69600000D01*
X85950000Y-60725000D02*
X85950000Y-58950000D01*
X107640000Y-56260000D02*
X107700000Y-56200000D01*
X104964000Y-57461000D02*
X106165000Y-56260000D01*
X85950000Y-58950000D02*
X87439000Y-57461000D01*
X109600000Y-68200000D02*
X109700000Y-68200000D01*
X87439000Y-57461000D02*
X104964000Y-57461000D01*
X109600000Y-58100000D02*
X109600000Y-68200000D01*
X111160000Y-69540000D02*
X112742500Y-69540000D01*
X106165000Y-56260000D02*
X107640000Y-56260000D01*
%TO.N,/USART6_RX*%
X94750000Y-67650000D02*
X94800000Y-67700000D01*
X89875000Y-67650000D02*
X94750000Y-67650000D01*
%TO.N,/USART6_TX*%
X94250000Y-68150000D02*
X94600000Y-68500000D01*
X89875000Y-68150000D02*
X94250000Y-68150000D01*
%TO.N,Net-(U1-BOOT0)*%
X82010000Y-58700000D02*
X82010000Y-59405466D01*
X82450000Y-60725000D02*
X82450000Y-59845466D01*
X82010000Y-59405466D02*
X82450000Y-59845466D01*
%TO.N,/TIM1_CH1*%
X88850000Y-66150000D02*
X89875000Y-66150000D01*
X97300000Y-72700000D02*
X97300000Y-71300000D01*
X94251000Y-69449000D02*
X92500000Y-71200000D01*
X97300000Y-71300000D02*
X95449000Y-69449000D01*
X88100000Y-69800000D02*
X88100000Y-66900000D01*
X92500000Y-71200000D02*
X89500000Y-71200000D01*
X88100000Y-66900000D02*
X88850000Y-66150000D01*
X89500000Y-71200000D02*
X88100000Y-69800000D01*
X95449000Y-69449000D02*
X94251000Y-69449000D01*
%TO.N,/LCD_DC*%
X83300000Y-73800000D02*
X83200000Y-73900000D01*
X84200000Y-76500000D02*
X84500000Y-76500000D01*
X83200000Y-75500000D02*
X84200000Y-76500000D01*
X94500000Y-71200000D02*
X94600000Y-71200000D01*
X83950000Y-72075000D02*
X83950000Y-73150000D01*
X89200000Y-76500000D02*
X94500000Y-71200000D01*
X83200000Y-73900000D02*
X83200000Y-75500000D01*
X83950000Y-73150000D02*
X83300000Y-73800000D01*
X84500000Y-76500000D02*
X89200000Y-76500000D01*
D49*
%TO.N,/USB_D+*%
X91037501Y-64150000D02*
X89875000Y-64150000D01*
X91062501Y-64175000D02*
X91037501Y-64150000D01*
X92893198Y-64175000D02*
X91062501Y-64175000D01*
X99350000Y-75968749D02*
X98625000Y-75243749D01*
X98625000Y-75243749D02*
X98625000Y-69906802D01*
X98625000Y-69906802D02*
X92893198Y-64175000D01*
X99350000Y-76962500D02*
X99350000Y-75968749D01*
D48*
%TO.N,/LCD_RESET*%
X88900000Y-75700000D02*
X85500000Y-75700000D01*
X85500000Y-75700000D02*
X84500000Y-75700000D01*
X94600000Y-70100000D02*
X94500000Y-70100000D01*
X84100000Y-73800000D02*
X84450000Y-73450000D01*
X84500000Y-75700000D02*
X84100000Y-75300000D01*
X94500000Y-70100000D02*
X88900000Y-75700000D01*
X84450000Y-73450000D02*
X84450000Y-72075000D01*
X84100000Y-75300000D02*
X84100000Y-73800000D01*
%TO.N,/SPI3_CS2*%
X89875000Y-66650000D02*
X91840380Y-66650000D01*
X91840380Y-66650000D02*
X91990380Y-66500000D01*
D49*
%TO.N,/USB_D-*%
X97450000Y-76962500D02*
X97450000Y-75968749D01*
X97450000Y-75968749D02*
X98175000Y-75243749D01*
X92706802Y-64625000D02*
X91062501Y-64625000D01*
X91062501Y-64625000D02*
X91037501Y-64650000D01*
X91037501Y-64650000D02*
X89875000Y-64650000D01*
X98175000Y-70093198D02*
X92706802Y-64625000D01*
X98175000Y-75243749D02*
X98175000Y-70093198D01*
%TD*%
M02*
