%TF.GenerationSoftware,KiCad,Pcbnew,9.0.4*%
%TF.CreationDate,2025-11-14T09:23:00+05:30*%
%TF.ProjectId,stm32f446re,73746d33-3266-4343-9436-72652e6b6963,rev?*%
%TF.SameCoordinates,Original*%
%TF.FileFunction,Legend,Top*%
%TF.FilePolarity,Positive*%
%FSLAX46Y46*%
G04 Gerber Fmt 4.6, Leading zero omitted, Abs format (unit mm)*
G04 Created by KiCad (PCBNEW 9.0.4) date 2025-11-14 09:23:00*
%MOMM*%
%LPD*%
G01*
G04 APERTURE LIST*
%ADD10C,0.087500*%
%ADD11C,0.150000*%
%ADD12C,0.100000*%
%ADD13C,0.125000*%
%ADD14C,0.120000*%
G04 APERTURE END LIST*
D10*
X80983333Y-75512616D02*
X80950000Y-75545950D01*
X80950000Y-75545950D02*
X80850000Y-75579283D01*
X80850000Y-75579283D02*
X80783333Y-75579283D01*
X80783333Y-75579283D02*
X80683333Y-75545950D01*
X80683333Y-75545950D02*
X80616667Y-75479283D01*
X80616667Y-75479283D02*
X80583333Y-75412616D01*
X80583333Y-75412616D02*
X80550000Y-75279283D01*
X80550000Y-75279283D02*
X80550000Y-75179283D01*
X80550000Y-75179283D02*
X80583333Y-75045950D01*
X80583333Y-75045950D02*
X80616667Y-74979283D01*
X80616667Y-74979283D02*
X80683333Y-74912616D01*
X80683333Y-74912616D02*
X80783333Y-74879283D01*
X80783333Y-74879283D02*
X80850000Y-74879283D01*
X80850000Y-74879283D02*
X80950000Y-74912616D01*
X80950000Y-74912616D02*
X80983333Y-74945950D01*
X81250000Y-74945950D02*
X81283333Y-74912616D01*
X81283333Y-74912616D02*
X81350000Y-74879283D01*
X81350000Y-74879283D02*
X81516667Y-74879283D01*
X81516667Y-74879283D02*
X81583333Y-74912616D01*
X81583333Y-74912616D02*
X81616667Y-74945950D01*
X81616667Y-74945950D02*
X81650000Y-75012616D01*
X81650000Y-75012616D02*
X81650000Y-75079283D01*
X81650000Y-75079283D02*
X81616667Y-75179283D01*
X81616667Y-75179283D02*
X81216667Y-75579283D01*
X81216667Y-75579283D02*
X81650000Y-75579283D01*
X86219283Y-57016666D02*
X85885950Y-57249999D01*
X86219283Y-57416666D02*
X85519283Y-57416666D01*
X85519283Y-57416666D02*
X85519283Y-57149999D01*
X85519283Y-57149999D02*
X85552616Y-57083333D01*
X85552616Y-57083333D02*
X85585950Y-57049999D01*
X85585950Y-57049999D02*
X85652616Y-57016666D01*
X85652616Y-57016666D02*
X85752616Y-57016666D01*
X85752616Y-57016666D02*
X85819283Y-57049999D01*
X85819283Y-57049999D02*
X85852616Y-57083333D01*
X85852616Y-57083333D02*
X85885950Y-57149999D01*
X85885950Y-57149999D02*
X85885950Y-57416666D01*
X85752616Y-56416666D02*
X86219283Y-56416666D01*
X85485950Y-56583333D02*
X85985950Y-56749999D01*
X85985950Y-56749999D02*
X85985950Y-56316666D01*
D11*
X93733333Y-61259580D02*
X93685714Y-61307200D01*
X93685714Y-61307200D02*
X93542857Y-61354819D01*
X93542857Y-61354819D02*
X93447619Y-61354819D01*
X93447619Y-61354819D02*
X93304762Y-61307200D01*
X93304762Y-61307200D02*
X93209524Y-61211961D01*
X93209524Y-61211961D02*
X93161905Y-61116723D01*
X93161905Y-61116723D02*
X93114286Y-60926247D01*
X93114286Y-60926247D02*
X93114286Y-60783390D01*
X93114286Y-60783390D02*
X93161905Y-60592914D01*
X93161905Y-60592914D02*
X93209524Y-60497676D01*
X93209524Y-60497676D02*
X93304762Y-60402438D01*
X93304762Y-60402438D02*
X93447619Y-60354819D01*
X93447619Y-60354819D02*
X93542857Y-60354819D01*
X93542857Y-60354819D02*
X93685714Y-60402438D01*
X93685714Y-60402438D02*
X93733333Y-60450057D01*
X94638095Y-60354819D02*
X94161905Y-60354819D01*
X94161905Y-60354819D02*
X94114286Y-60831009D01*
X94114286Y-60831009D02*
X94161905Y-60783390D01*
X94161905Y-60783390D02*
X94257143Y-60735771D01*
X94257143Y-60735771D02*
X94495238Y-60735771D01*
X94495238Y-60735771D02*
X94590476Y-60783390D01*
X94590476Y-60783390D02*
X94638095Y-60831009D01*
X94638095Y-60831009D02*
X94685714Y-60926247D01*
X94685714Y-60926247D02*
X94685714Y-61164342D01*
X94685714Y-61164342D02*
X94638095Y-61259580D01*
X94638095Y-61259580D02*
X94590476Y-61307200D01*
X94590476Y-61307200D02*
X94495238Y-61354819D01*
X94495238Y-61354819D02*
X94257143Y-61354819D01*
X94257143Y-61354819D02*
X94161905Y-61307200D01*
X94161905Y-61307200D02*
X94114286Y-61259580D01*
X77857142Y-78259580D02*
X77809523Y-78307200D01*
X77809523Y-78307200D02*
X77666666Y-78354819D01*
X77666666Y-78354819D02*
X77571428Y-78354819D01*
X77571428Y-78354819D02*
X77428571Y-78307200D01*
X77428571Y-78307200D02*
X77333333Y-78211961D01*
X77333333Y-78211961D02*
X77285714Y-78116723D01*
X77285714Y-78116723D02*
X77238095Y-77926247D01*
X77238095Y-77926247D02*
X77238095Y-77783390D01*
X77238095Y-77783390D02*
X77285714Y-77592914D01*
X77285714Y-77592914D02*
X77333333Y-77497676D01*
X77333333Y-77497676D02*
X77428571Y-77402438D01*
X77428571Y-77402438D02*
X77571428Y-77354819D01*
X77571428Y-77354819D02*
X77666666Y-77354819D01*
X77666666Y-77354819D02*
X77809523Y-77402438D01*
X77809523Y-77402438D02*
X77857142Y-77450057D01*
X78809523Y-78354819D02*
X78238095Y-78354819D01*
X78523809Y-78354819D02*
X78523809Y-77354819D01*
X78523809Y-77354819D02*
X78428571Y-77497676D01*
X78428571Y-77497676D02*
X78333333Y-77592914D01*
X78333333Y-77592914D02*
X78238095Y-77640533D01*
X79428571Y-77354819D02*
X79523809Y-77354819D01*
X79523809Y-77354819D02*
X79619047Y-77402438D01*
X79619047Y-77402438D02*
X79666666Y-77450057D01*
X79666666Y-77450057D02*
X79714285Y-77545295D01*
X79714285Y-77545295D02*
X79761904Y-77735771D01*
X79761904Y-77735771D02*
X79761904Y-77973866D01*
X79761904Y-77973866D02*
X79714285Y-78164342D01*
X79714285Y-78164342D02*
X79666666Y-78259580D01*
X79666666Y-78259580D02*
X79619047Y-78307200D01*
X79619047Y-78307200D02*
X79523809Y-78354819D01*
X79523809Y-78354819D02*
X79428571Y-78354819D01*
X79428571Y-78354819D02*
X79333333Y-78307200D01*
X79333333Y-78307200D02*
X79285714Y-78259580D01*
X79285714Y-78259580D02*
X79238095Y-78164342D01*
X79238095Y-78164342D02*
X79190476Y-77973866D01*
X79190476Y-77973866D02*
X79190476Y-77735771D01*
X79190476Y-77735771D02*
X79238095Y-77545295D01*
X79238095Y-77545295D02*
X79285714Y-77450057D01*
X79285714Y-77450057D02*
X79333333Y-77402438D01*
X79333333Y-77402438D02*
X79428571Y-77354819D01*
D10*
X77352616Y-50150000D02*
X77385950Y-50183333D01*
X77385950Y-50183333D02*
X77419283Y-50283333D01*
X77419283Y-50283333D02*
X77419283Y-50350000D01*
X77419283Y-50350000D02*
X77385950Y-50450000D01*
X77385950Y-50450000D02*
X77319283Y-50516667D01*
X77319283Y-50516667D02*
X77252616Y-50550000D01*
X77252616Y-50550000D02*
X77119283Y-50583333D01*
X77119283Y-50583333D02*
X77019283Y-50583333D01*
X77019283Y-50583333D02*
X76885950Y-50550000D01*
X76885950Y-50550000D02*
X76819283Y-50516667D01*
X76819283Y-50516667D02*
X76752616Y-50450000D01*
X76752616Y-50450000D02*
X76719283Y-50350000D01*
X76719283Y-50350000D02*
X76719283Y-50283333D01*
X76719283Y-50283333D02*
X76752616Y-50183333D01*
X76752616Y-50183333D02*
X76785950Y-50150000D01*
X77419283Y-49483333D02*
X77419283Y-49883333D01*
X77419283Y-49683333D02*
X76719283Y-49683333D01*
X76719283Y-49683333D02*
X76819283Y-49750000D01*
X76819283Y-49750000D02*
X76885950Y-49816667D01*
X76885950Y-49816667D02*
X76919283Y-49883333D01*
X76952616Y-48883333D02*
X77419283Y-48883333D01*
X76685950Y-49050000D02*
X77185950Y-49216666D01*
X77185950Y-49216666D02*
X77185950Y-48783333D01*
D11*
X76566666Y-51354819D02*
X76566666Y-52069104D01*
X76566666Y-52069104D02*
X76519047Y-52211961D01*
X76519047Y-52211961D02*
X76423809Y-52307200D01*
X76423809Y-52307200D02*
X76280952Y-52354819D01*
X76280952Y-52354819D02*
X76185714Y-52354819D01*
X76947619Y-51354819D02*
X77566666Y-51354819D01*
X77566666Y-51354819D02*
X77233333Y-51735771D01*
X77233333Y-51735771D02*
X77376190Y-51735771D01*
X77376190Y-51735771D02*
X77471428Y-51783390D01*
X77471428Y-51783390D02*
X77519047Y-51831009D01*
X77519047Y-51831009D02*
X77566666Y-51926247D01*
X77566666Y-51926247D02*
X77566666Y-52164342D01*
X77566666Y-52164342D02*
X77519047Y-52259580D01*
X77519047Y-52259580D02*
X77471428Y-52307200D01*
X77471428Y-52307200D02*
X77376190Y-52354819D01*
X77376190Y-52354819D02*
X77090476Y-52354819D01*
X77090476Y-52354819D02*
X76995238Y-52307200D01*
X76995238Y-52307200D02*
X76947619Y-52259580D01*
X78954819Y-84561904D02*
X79764342Y-84561904D01*
X79764342Y-84561904D02*
X79859580Y-84514285D01*
X79859580Y-84514285D02*
X79907200Y-84466666D01*
X79907200Y-84466666D02*
X79954819Y-84371428D01*
X79954819Y-84371428D02*
X79954819Y-84180952D01*
X79954819Y-84180952D02*
X79907200Y-84085714D01*
X79907200Y-84085714D02*
X79859580Y-84038095D01*
X79859580Y-84038095D02*
X79764342Y-83990476D01*
X79764342Y-83990476D02*
X78954819Y-83990476D01*
X79050057Y-83561904D02*
X79002438Y-83514285D01*
X79002438Y-83514285D02*
X78954819Y-83419047D01*
X78954819Y-83419047D02*
X78954819Y-83180952D01*
X78954819Y-83180952D02*
X79002438Y-83085714D01*
X79002438Y-83085714D02*
X79050057Y-83038095D01*
X79050057Y-83038095D02*
X79145295Y-82990476D01*
X79145295Y-82990476D02*
X79240533Y-82990476D01*
X79240533Y-82990476D02*
X79383390Y-83038095D01*
X79383390Y-83038095D02*
X79954819Y-83609523D01*
X79954819Y-83609523D02*
X79954819Y-82990476D01*
X103366666Y-77814819D02*
X103366666Y-78529104D01*
X103366666Y-78529104D02*
X103319047Y-78671961D01*
X103319047Y-78671961D02*
X103223809Y-78767200D01*
X103223809Y-78767200D02*
X103080952Y-78814819D01*
X103080952Y-78814819D02*
X102985714Y-78814819D01*
X104319047Y-77814819D02*
X103842857Y-77814819D01*
X103842857Y-77814819D02*
X103795238Y-78291009D01*
X103795238Y-78291009D02*
X103842857Y-78243390D01*
X103842857Y-78243390D02*
X103938095Y-78195771D01*
X103938095Y-78195771D02*
X104176190Y-78195771D01*
X104176190Y-78195771D02*
X104271428Y-78243390D01*
X104271428Y-78243390D02*
X104319047Y-78291009D01*
X104319047Y-78291009D02*
X104366666Y-78386247D01*
X104366666Y-78386247D02*
X104366666Y-78624342D01*
X104366666Y-78624342D02*
X104319047Y-78719580D01*
X104319047Y-78719580D02*
X104271428Y-78767200D01*
X104271428Y-78767200D02*
X104176190Y-78814819D01*
X104176190Y-78814819D02*
X103938095Y-78814819D01*
X103938095Y-78814819D02*
X103842857Y-78767200D01*
X103842857Y-78767200D02*
X103795238Y-78719580D01*
X73766666Y-73761009D02*
X73433333Y-73761009D01*
X73433333Y-74284819D02*
X73433333Y-73284819D01*
X73433333Y-73284819D02*
X73909523Y-73284819D01*
X74623809Y-73761009D02*
X74766666Y-73808628D01*
X74766666Y-73808628D02*
X74814285Y-73856247D01*
X74814285Y-73856247D02*
X74861904Y-73951485D01*
X74861904Y-73951485D02*
X74861904Y-74094342D01*
X74861904Y-74094342D02*
X74814285Y-74189580D01*
X74814285Y-74189580D02*
X74766666Y-74237200D01*
X74766666Y-74237200D02*
X74671428Y-74284819D01*
X74671428Y-74284819D02*
X74290476Y-74284819D01*
X74290476Y-74284819D02*
X74290476Y-73284819D01*
X74290476Y-73284819D02*
X74623809Y-73284819D01*
X74623809Y-73284819D02*
X74719047Y-73332438D01*
X74719047Y-73332438D02*
X74766666Y-73380057D01*
X74766666Y-73380057D02*
X74814285Y-73475295D01*
X74814285Y-73475295D02*
X74814285Y-73570533D01*
X74814285Y-73570533D02*
X74766666Y-73665771D01*
X74766666Y-73665771D02*
X74719047Y-73713390D01*
X74719047Y-73713390D02*
X74623809Y-73761009D01*
X74623809Y-73761009D02*
X74290476Y-73761009D01*
X75814285Y-74284819D02*
X75242857Y-74284819D01*
X75528571Y-74284819D02*
X75528571Y-73284819D01*
X75528571Y-73284819D02*
X75433333Y-73427676D01*
X75433333Y-73427676D02*
X75338095Y-73522914D01*
X75338095Y-73522914D02*
X75242857Y-73570533D01*
D10*
X76283333Y-71052616D02*
X76250000Y-71085950D01*
X76250000Y-71085950D02*
X76150000Y-71119283D01*
X76150000Y-71119283D02*
X76083333Y-71119283D01*
X76083333Y-71119283D02*
X75983333Y-71085950D01*
X75983333Y-71085950D02*
X75916667Y-71019283D01*
X75916667Y-71019283D02*
X75883333Y-70952616D01*
X75883333Y-70952616D02*
X75850000Y-70819283D01*
X75850000Y-70819283D02*
X75850000Y-70719283D01*
X75850000Y-70719283D02*
X75883333Y-70585950D01*
X75883333Y-70585950D02*
X75916667Y-70519283D01*
X75916667Y-70519283D02*
X75983333Y-70452616D01*
X75983333Y-70452616D02*
X76083333Y-70419283D01*
X76083333Y-70419283D02*
X76150000Y-70419283D01*
X76150000Y-70419283D02*
X76250000Y-70452616D01*
X76250000Y-70452616D02*
X76283333Y-70485950D01*
X76883333Y-70419283D02*
X76750000Y-70419283D01*
X76750000Y-70419283D02*
X76683333Y-70452616D01*
X76683333Y-70452616D02*
X76650000Y-70485950D01*
X76650000Y-70485950D02*
X76583333Y-70585950D01*
X76583333Y-70585950D02*
X76550000Y-70719283D01*
X76550000Y-70719283D02*
X76550000Y-70985950D01*
X76550000Y-70985950D02*
X76583333Y-71052616D01*
X76583333Y-71052616D02*
X76616667Y-71085950D01*
X76616667Y-71085950D02*
X76683333Y-71119283D01*
X76683333Y-71119283D02*
X76816667Y-71119283D01*
X76816667Y-71119283D02*
X76883333Y-71085950D01*
X76883333Y-71085950D02*
X76916667Y-71052616D01*
X76916667Y-71052616D02*
X76950000Y-70985950D01*
X76950000Y-70985950D02*
X76950000Y-70819283D01*
X76950000Y-70819283D02*
X76916667Y-70752616D01*
X76916667Y-70752616D02*
X76883333Y-70719283D01*
X76883333Y-70719283D02*
X76816667Y-70685950D01*
X76816667Y-70685950D02*
X76683333Y-70685950D01*
X76683333Y-70685950D02*
X76616667Y-70719283D01*
X76616667Y-70719283D02*
X76583333Y-70752616D01*
X76583333Y-70752616D02*
X76550000Y-70819283D01*
X70683333Y-71449283D02*
X70450000Y-71115950D01*
X70283333Y-71449283D02*
X70283333Y-70749283D01*
X70283333Y-70749283D02*
X70550000Y-70749283D01*
X70550000Y-70749283D02*
X70616667Y-70782616D01*
X70616667Y-70782616D02*
X70650000Y-70815950D01*
X70650000Y-70815950D02*
X70683333Y-70882616D01*
X70683333Y-70882616D02*
X70683333Y-70982616D01*
X70683333Y-70982616D02*
X70650000Y-71049283D01*
X70650000Y-71049283D02*
X70616667Y-71082616D01*
X70616667Y-71082616D02*
X70550000Y-71115950D01*
X70550000Y-71115950D02*
X70283333Y-71115950D01*
X70916667Y-70749283D02*
X71383333Y-70749283D01*
X71383333Y-70749283D02*
X71083333Y-71449283D01*
D11*
X77933333Y-74959580D02*
X77885714Y-75007200D01*
X77885714Y-75007200D02*
X77742857Y-75054819D01*
X77742857Y-75054819D02*
X77647619Y-75054819D01*
X77647619Y-75054819D02*
X77504762Y-75007200D01*
X77504762Y-75007200D02*
X77409524Y-74911961D01*
X77409524Y-74911961D02*
X77361905Y-74816723D01*
X77361905Y-74816723D02*
X77314286Y-74626247D01*
X77314286Y-74626247D02*
X77314286Y-74483390D01*
X77314286Y-74483390D02*
X77361905Y-74292914D01*
X77361905Y-74292914D02*
X77409524Y-74197676D01*
X77409524Y-74197676D02*
X77504762Y-74102438D01*
X77504762Y-74102438D02*
X77647619Y-74054819D01*
X77647619Y-74054819D02*
X77742857Y-74054819D01*
X77742857Y-74054819D02*
X77885714Y-74102438D01*
X77885714Y-74102438D02*
X77933333Y-74150057D01*
X78409524Y-75054819D02*
X78600000Y-75054819D01*
X78600000Y-75054819D02*
X78695238Y-75007200D01*
X78695238Y-75007200D02*
X78742857Y-74959580D01*
X78742857Y-74959580D02*
X78838095Y-74816723D01*
X78838095Y-74816723D02*
X78885714Y-74626247D01*
X78885714Y-74626247D02*
X78885714Y-74245295D01*
X78885714Y-74245295D02*
X78838095Y-74150057D01*
X78838095Y-74150057D02*
X78790476Y-74102438D01*
X78790476Y-74102438D02*
X78695238Y-74054819D01*
X78695238Y-74054819D02*
X78504762Y-74054819D01*
X78504762Y-74054819D02*
X78409524Y-74102438D01*
X78409524Y-74102438D02*
X78361905Y-74150057D01*
X78361905Y-74150057D02*
X78314286Y-74245295D01*
X78314286Y-74245295D02*
X78314286Y-74483390D01*
X78314286Y-74483390D02*
X78361905Y-74578628D01*
X78361905Y-74578628D02*
X78409524Y-74626247D01*
X78409524Y-74626247D02*
X78504762Y-74673866D01*
X78504762Y-74673866D02*
X78695238Y-74673866D01*
X78695238Y-74673866D02*
X78790476Y-74626247D01*
X78790476Y-74626247D02*
X78838095Y-74578628D01*
X78838095Y-74578628D02*
X78885714Y-74483390D01*
X104561666Y-50794819D02*
X104561666Y-51509104D01*
X104561666Y-51509104D02*
X104514047Y-51651961D01*
X104514047Y-51651961D02*
X104418809Y-51747200D01*
X104418809Y-51747200D02*
X104275952Y-51794819D01*
X104275952Y-51794819D02*
X104180714Y-51794819D01*
X105466428Y-51128152D02*
X105466428Y-51794819D01*
X105228333Y-50747200D02*
X104990238Y-51461485D01*
X104990238Y-51461485D02*
X105609285Y-51461485D01*
X98266666Y-80444819D02*
X98266666Y-81159104D01*
X98266666Y-81159104D02*
X98219047Y-81301961D01*
X98219047Y-81301961D02*
X98123809Y-81397200D01*
X98123809Y-81397200D02*
X97980952Y-81444819D01*
X97980952Y-81444819D02*
X97885714Y-81444819D01*
X99266666Y-81444819D02*
X98695238Y-81444819D01*
X98980952Y-81444819D02*
X98980952Y-80444819D01*
X98980952Y-80444819D02*
X98885714Y-80587676D01*
X98885714Y-80587676D02*
X98790476Y-80682914D01*
X98790476Y-80682914D02*
X98695238Y-80730533D01*
X74954819Y-86628094D02*
X73954819Y-86628094D01*
X73954819Y-86628094D02*
X73954819Y-86389999D01*
X73954819Y-86389999D02*
X74002438Y-86247142D01*
X74002438Y-86247142D02*
X74097676Y-86151904D01*
X74097676Y-86151904D02*
X74192914Y-86104285D01*
X74192914Y-86104285D02*
X74383390Y-86056666D01*
X74383390Y-86056666D02*
X74526247Y-86056666D01*
X74526247Y-86056666D02*
X74716723Y-86104285D01*
X74716723Y-86104285D02*
X74811961Y-86151904D01*
X74811961Y-86151904D02*
X74907200Y-86247142D01*
X74907200Y-86247142D02*
X74954819Y-86389999D01*
X74954819Y-86389999D02*
X74954819Y-86628094D01*
X74954819Y-85104285D02*
X74954819Y-85675713D01*
X74954819Y-85389999D02*
X73954819Y-85389999D01*
X73954819Y-85389999D02*
X74097676Y-85485237D01*
X74097676Y-85485237D02*
X74192914Y-85580475D01*
X74192914Y-85580475D02*
X74240533Y-85675713D01*
X74624819Y-82956666D02*
X74148628Y-83289999D01*
X74624819Y-83528094D02*
X73624819Y-83528094D01*
X73624819Y-83528094D02*
X73624819Y-83147142D01*
X73624819Y-83147142D02*
X73672438Y-83051904D01*
X73672438Y-83051904D02*
X73720057Y-83004285D01*
X73720057Y-83004285D02*
X73815295Y-82956666D01*
X73815295Y-82956666D02*
X73958152Y-82956666D01*
X73958152Y-82956666D02*
X74053390Y-83004285D01*
X74053390Y-83004285D02*
X74101009Y-83051904D01*
X74101009Y-83051904D02*
X74148628Y-83147142D01*
X74148628Y-83147142D02*
X74148628Y-83528094D01*
X74624819Y-82004285D02*
X74624819Y-82575713D01*
X74624819Y-82289999D02*
X73624819Y-82289999D01*
X73624819Y-82289999D02*
X73767676Y-82385237D01*
X73767676Y-82385237D02*
X73862914Y-82480475D01*
X73862914Y-82480475D02*
X73910533Y-82575713D01*
D10*
X75152616Y-64450000D02*
X75185950Y-64483333D01*
X75185950Y-64483333D02*
X75219283Y-64583333D01*
X75219283Y-64583333D02*
X75219283Y-64650000D01*
X75219283Y-64650000D02*
X75185950Y-64750000D01*
X75185950Y-64750000D02*
X75119283Y-64816667D01*
X75119283Y-64816667D02*
X75052616Y-64850000D01*
X75052616Y-64850000D02*
X74919283Y-64883333D01*
X74919283Y-64883333D02*
X74819283Y-64883333D01*
X74819283Y-64883333D02*
X74685950Y-64850000D01*
X74685950Y-64850000D02*
X74619283Y-64816667D01*
X74619283Y-64816667D02*
X74552616Y-64750000D01*
X74552616Y-64750000D02*
X74519283Y-64650000D01*
X74519283Y-64650000D02*
X74519283Y-64583333D01*
X74519283Y-64583333D02*
X74552616Y-64483333D01*
X74552616Y-64483333D02*
X74585950Y-64450000D01*
X75219283Y-63783333D02*
X75219283Y-64183333D01*
X75219283Y-63983333D02*
X74519283Y-63983333D01*
X74519283Y-63983333D02*
X74619283Y-64050000D01*
X74619283Y-64050000D02*
X74685950Y-64116667D01*
X74685950Y-64116667D02*
X74719283Y-64183333D01*
X74585950Y-63516666D02*
X74552616Y-63483333D01*
X74552616Y-63483333D02*
X74519283Y-63416666D01*
X74519283Y-63416666D02*
X74519283Y-63250000D01*
X74519283Y-63250000D02*
X74552616Y-63183333D01*
X74552616Y-63183333D02*
X74585950Y-63150000D01*
X74585950Y-63150000D02*
X74652616Y-63116666D01*
X74652616Y-63116666D02*
X74719283Y-63116666D01*
X74719283Y-63116666D02*
X74819283Y-63150000D01*
X74819283Y-63150000D02*
X75219283Y-63550000D01*
X75219283Y-63550000D02*
X75219283Y-63116666D01*
X108483333Y-82119283D02*
X108250000Y-81785950D01*
X108083333Y-82119283D02*
X108083333Y-81419283D01*
X108083333Y-81419283D02*
X108350000Y-81419283D01*
X108350000Y-81419283D02*
X108416667Y-81452616D01*
X108416667Y-81452616D02*
X108450000Y-81485950D01*
X108450000Y-81485950D02*
X108483333Y-81552616D01*
X108483333Y-81552616D02*
X108483333Y-81652616D01*
X108483333Y-81652616D02*
X108450000Y-81719283D01*
X108450000Y-81719283D02*
X108416667Y-81752616D01*
X108416667Y-81752616D02*
X108350000Y-81785950D01*
X108350000Y-81785950D02*
X108083333Y-81785950D01*
X108716667Y-81419283D02*
X109150000Y-81419283D01*
X109150000Y-81419283D02*
X108916667Y-81685950D01*
X108916667Y-81685950D02*
X109016667Y-81685950D01*
X109016667Y-81685950D02*
X109083333Y-81719283D01*
X109083333Y-81719283D02*
X109116667Y-81752616D01*
X109116667Y-81752616D02*
X109150000Y-81819283D01*
X109150000Y-81819283D02*
X109150000Y-81985950D01*
X109150000Y-81985950D02*
X109116667Y-82052616D01*
X109116667Y-82052616D02*
X109083333Y-82085950D01*
X109083333Y-82085950D02*
X109016667Y-82119283D01*
X109016667Y-82119283D02*
X108816667Y-82119283D01*
X108816667Y-82119283D02*
X108750000Y-82085950D01*
X108750000Y-82085950D02*
X108716667Y-82052616D01*
X83019283Y-57116666D02*
X82685950Y-57349999D01*
X83019283Y-57516666D02*
X82319283Y-57516666D01*
X82319283Y-57516666D02*
X82319283Y-57249999D01*
X82319283Y-57249999D02*
X82352616Y-57183333D01*
X82352616Y-57183333D02*
X82385950Y-57149999D01*
X82385950Y-57149999D02*
X82452616Y-57116666D01*
X82452616Y-57116666D02*
X82552616Y-57116666D01*
X82552616Y-57116666D02*
X82619283Y-57149999D01*
X82619283Y-57149999D02*
X82652616Y-57183333D01*
X82652616Y-57183333D02*
X82685950Y-57249999D01*
X82685950Y-57249999D02*
X82685950Y-57516666D01*
X82319283Y-56483333D02*
X82319283Y-56816666D01*
X82319283Y-56816666D02*
X82652616Y-56849999D01*
X82652616Y-56849999D02*
X82619283Y-56816666D01*
X82619283Y-56816666D02*
X82585950Y-56749999D01*
X82585950Y-56749999D02*
X82585950Y-56583333D01*
X82585950Y-56583333D02*
X82619283Y-56516666D01*
X82619283Y-56516666D02*
X82652616Y-56483333D01*
X82652616Y-56483333D02*
X82719283Y-56449999D01*
X82719283Y-56449999D02*
X82885950Y-56449999D01*
X82885950Y-56449999D02*
X82952616Y-56483333D01*
X82952616Y-56483333D02*
X82985950Y-56516666D01*
X82985950Y-56516666D02*
X83019283Y-56583333D01*
X83019283Y-56583333D02*
X83019283Y-56749999D01*
X83019283Y-56749999D02*
X82985950Y-56816666D01*
X82985950Y-56816666D02*
X82952616Y-56849999D01*
D11*
X80638095Y-51104819D02*
X80638095Y-51914342D01*
X80638095Y-51914342D02*
X80685714Y-52009580D01*
X80685714Y-52009580D02*
X80733333Y-52057200D01*
X80733333Y-52057200D02*
X80828571Y-52104819D01*
X80828571Y-52104819D02*
X81019047Y-52104819D01*
X81019047Y-52104819D02*
X81114285Y-52057200D01*
X81114285Y-52057200D02*
X81161904Y-52009580D01*
X81161904Y-52009580D02*
X81209523Y-51914342D01*
X81209523Y-51914342D02*
X81209523Y-51104819D01*
X82114285Y-51438152D02*
X82114285Y-52104819D01*
X81876190Y-51057200D02*
X81638095Y-51771485D01*
X81638095Y-51771485D02*
X82257142Y-51771485D01*
X90133333Y-84959580D02*
X90085714Y-85007200D01*
X90085714Y-85007200D02*
X89942857Y-85054819D01*
X89942857Y-85054819D02*
X89847619Y-85054819D01*
X89847619Y-85054819D02*
X89704762Y-85007200D01*
X89704762Y-85007200D02*
X89609524Y-84911961D01*
X89609524Y-84911961D02*
X89561905Y-84816723D01*
X89561905Y-84816723D02*
X89514286Y-84626247D01*
X89514286Y-84626247D02*
X89514286Y-84483390D01*
X89514286Y-84483390D02*
X89561905Y-84292914D01*
X89561905Y-84292914D02*
X89609524Y-84197676D01*
X89609524Y-84197676D02*
X89704762Y-84102438D01*
X89704762Y-84102438D02*
X89847619Y-84054819D01*
X89847619Y-84054819D02*
X89942857Y-84054819D01*
X89942857Y-84054819D02*
X90085714Y-84102438D01*
X90085714Y-84102438D02*
X90133333Y-84150057D01*
X90466667Y-84054819D02*
X91133333Y-84054819D01*
X91133333Y-84054819D02*
X90704762Y-85054819D01*
X112038095Y-45354819D02*
X112038095Y-46164342D01*
X112038095Y-46164342D02*
X112085714Y-46259580D01*
X112085714Y-46259580D02*
X112133333Y-46307200D01*
X112133333Y-46307200D02*
X112228571Y-46354819D01*
X112228571Y-46354819D02*
X112419047Y-46354819D01*
X112419047Y-46354819D02*
X112514285Y-46307200D01*
X112514285Y-46307200D02*
X112561904Y-46259580D01*
X112561904Y-46259580D02*
X112609523Y-46164342D01*
X112609523Y-46164342D02*
X112609523Y-45354819D01*
X113561904Y-45354819D02*
X113085714Y-45354819D01*
X113085714Y-45354819D02*
X113038095Y-45831009D01*
X113038095Y-45831009D02*
X113085714Y-45783390D01*
X113085714Y-45783390D02*
X113180952Y-45735771D01*
X113180952Y-45735771D02*
X113419047Y-45735771D01*
X113419047Y-45735771D02*
X113514285Y-45783390D01*
X113514285Y-45783390D02*
X113561904Y-45831009D01*
X113561904Y-45831009D02*
X113609523Y-45926247D01*
X113609523Y-45926247D02*
X113609523Y-46164342D01*
X113609523Y-46164342D02*
X113561904Y-46259580D01*
X113561904Y-46259580D02*
X113514285Y-46307200D01*
X113514285Y-46307200D02*
X113419047Y-46354819D01*
X113419047Y-46354819D02*
X113180952Y-46354819D01*
X113180952Y-46354819D02*
X113085714Y-46307200D01*
X113085714Y-46307200D02*
X113038095Y-46259580D01*
D12*
X89633333Y-78415847D02*
X89366667Y-78415847D01*
X89366667Y-78834895D02*
X89366667Y-78034895D01*
X89366667Y-78034895D02*
X89747619Y-78034895D01*
X90319047Y-78415847D02*
X90433333Y-78453942D01*
X90433333Y-78453942D02*
X90471428Y-78492038D01*
X90471428Y-78492038D02*
X90509524Y-78568228D01*
X90509524Y-78568228D02*
X90509524Y-78682514D01*
X90509524Y-78682514D02*
X90471428Y-78758704D01*
X90471428Y-78758704D02*
X90433333Y-78796800D01*
X90433333Y-78796800D02*
X90357143Y-78834895D01*
X90357143Y-78834895D02*
X90052381Y-78834895D01*
X90052381Y-78834895D02*
X90052381Y-78034895D01*
X90052381Y-78034895D02*
X90319047Y-78034895D01*
X90319047Y-78034895D02*
X90395238Y-78072990D01*
X90395238Y-78072990D02*
X90433333Y-78111085D01*
X90433333Y-78111085D02*
X90471428Y-78187276D01*
X90471428Y-78187276D02*
X90471428Y-78263466D01*
X90471428Y-78263466D02*
X90433333Y-78339657D01*
X90433333Y-78339657D02*
X90395238Y-78377752D01*
X90395238Y-78377752D02*
X90319047Y-78415847D01*
X90319047Y-78415847D02*
X90052381Y-78415847D01*
X90814285Y-78111085D02*
X90852381Y-78072990D01*
X90852381Y-78072990D02*
X90928571Y-78034895D01*
X90928571Y-78034895D02*
X91119047Y-78034895D01*
X91119047Y-78034895D02*
X91195238Y-78072990D01*
X91195238Y-78072990D02*
X91233333Y-78111085D01*
X91233333Y-78111085D02*
X91271428Y-78187276D01*
X91271428Y-78187276D02*
X91271428Y-78263466D01*
X91271428Y-78263466D02*
X91233333Y-78377752D01*
X91233333Y-78377752D02*
X90776190Y-78834895D01*
X90776190Y-78834895D02*
X91271428Y-78834895D01*
D10*
X88583333Y-75352616D02*
X88550000Y-75385950D01*
X88550000Y-75385950D02*
X88450000Y-75419283D01*
X88450000Y-75419283D02*
X88383333Y-75419283D01*
X88383333Y-75419283D02*
X88283333Y-75385950D01*
X88283333Y-75385950D02*
X88216667Y-75319283D01*
X88216667Y-75319283D02*
X88183333Y-75252616D01*
X88183333Y-75252616D02*
X88150000Y-75119283D01*
X88150000Y-75119283D02*
X88150000Y-75019283D01*
X88150000Y-75019283D02*
X88183333Y-74885950D01*
X88183333Y-74885950D02*
X88216667Y-74819283D01*
X88216667Y-74819283D02*
X88283333Y-74752616D01*
X88283333Y-74752616D02*
X88383333Y-74719283D01*
X88383333Y-74719283D02*
X88450000Y-74719283D01*
X88450000Y-74719283D02*
X88550000Y-74752616D01*
X88550000Y-74752616D02*
X88583333Y-74785950D01*
X88816667Y-74719283D02*
X89250000Y-74719283D01*
X89250000Y-74719283D02*
X89016667Y-74985950D01*
X89016667Y-74985950D02*
X89116667Y-74985950D01*
X89116667Y-74985950D02*
X89183333Y-75019283D01*
X89183333Y-75019283D02*
X89216667Y-75052616D01*
X89216667Y-75052616D02*
X89250000Y-75119283D01*
X89250000Y-75119283D02*
X89250000Y-75285950D01*
X89250000Y-75285950D02*
X89216667Y-75352616D01*
X89216667Y-75352616D02*
X89183333Y-75385950D01*
X89183333Y-75385950D02*
X89116667Y-75419283D01*
X89116667Y-75419283D02*
X88916667Y-75419283D01*
X88916667Y-75419283D02*
X88850000Y-75385950D01*
X88850000Y-75385950D02*
X88816667Y-75352616D01*
X105883333Y-82119283D02*
X105650000Y-81785950D01*
X105483333Y-82119283D02*
X105483333Y-81419283D01*
X105483333Y-81419283D02*
X105750000Y-81419283D01*
X105750000Y-81419283D02*
X105816667Y-81452616D01*
X105816667Y-81452616D02*
X105850000Y-81485950D01*
X105850000Y-81485950D02*
X105883333Y-81552616D01*
X105883333Y-81552616D02*
X105883333Y-81652616D01*
X105883333Y-81652616D02*
X105850000Y-81719283D01*
X105850000Y-81719283D02*
X105816667Y-81752616D01*
X105816667Y-81752616D02*
X105750000Y-81785950D01*
X105750000Y-81785950D02*
X105483333Y-81785950D01*
X106150000Y-81485950D02*
X106183333Y-81452616D01*
X106183333Y-81452616D02*
X106250000Y-81419283D01*
X106250000Y-81419283D02*
X106416667Y-81419283D01*
X106416667Y-81419283D02*
X106483333Y-81452616D01*
X106483333Y-81452616D02*
X106516667Y-81485950D01*
X106516667Y-81485950D02*
X106550000Y-81552616D01*
X106550000Y-81552616D02*
X106550000Y-81619283D01*
X106550000Y-81619283D02*
X106516667Y-81719283D01*
X106516667Y-81719283D02*
X106116667Y-82119283D01*
X106116667Y-82119283D02*
X106550000Y-82119283D01*
X91783333Y-61852616D02*
X91750000Y-61885950D01*
X91750000Y-61885950D02*
X91650000Y-61919283D01*
X91650000Y-61919283D02*
X91583333Y-61919283D01*
X91583333Y-61919283D02*
X91483333Y-61885950D01*
X91483333Y-61885950D02*
X91416667Y-61819283D01*
X91416667Y-61819283D02*
X91383333Y-61752616D01*
X91383333Y-61752616D02*
X91350000Y-61619283D01*
X91350000Y-61619283D02*
X91350000Y-61519283D01*
X91350000Y-61519283D02*
X91383333Y-61385950D01*
X91383333Y-61385950D02*
X91416667Y-61319283D01*
X91416667Y-61319283D02*
X91483333Y-61252616D01*
X91483333Y-61252616D02*
X91583333Y-61219283D01*
X91583333Y-61219283D02*
X91650000Y-61219283D01*
X91650000Y-61219283D02*
X91750000Y-61252616D01*
X91750000Y-61252616D02*
X91783333Y-61285950D01*
X92383333Y-61452616D02*
X92383333Y-61919283D01*
X92216667Y-61185950D02*
X92050000Y-61685950D01*
X92050000Y-61685950D02*
X92483333Y-61685950D01*
D11*
X73459580Y-69766666D02*
X73507200Y-69814285D01*
X73507200Y-69814285D02*
X73554819Y-69957142D01*
X73554819Y-69957142D02*
X73554819Y-70052380D01*
X73554819Y-70052380D02*
X73507200Y-70195237D01*
X73507200Y-70195237D02*
X73411961Y-70290475D01*
X73411961Y-70290475D02*
X73316723Y-70338094D01*
X73316723Y-70338094D02*
X73126247Y-70385713D01*
X73126247Y-70385713D02*
X72983390Y-70385713D01*
X72983390Y-70385713D02*
X72792914Y-70338094D01*
X72792914Y-70338094D02*
X72697676Y-70290475D01*
X72697676Y-70290475D02*
X72602438Y-70195237D01*
X72602438Y-70195237D02*
X72554819Y-70052380D01*
X72554819Y-70052380D02*
X72554819Y-69957142D01*
X72554819Y-69957142D02*
X72602438Y-69814285D01*
X72602438Y-69814285D02*
X72650057Y-69766666D01*
X72983390Y-69195237D02*
X72935771Y-69290475D01*
X72935771Y-69290475D02*
X72888152Y-69338094D01*
X72888152Y-69338094D02*
X72792914Y-69385713D01*
X72792914Y-69385713D02*
X72745295Y-69385713D01*
X72745295Y-69385713D02*
X72650057Y-69338094D01*
X72650057Y-69338094D02*
X72602438Y-69290475D01*
X72602438Y-69290475D02*
X72554819Y-69195237D01*
X72554819Y-69195237D02*
X72554819Y-69004761D01*
X72554819Y-69004761D02*
X72602438Y-68909523D01*
X72602438Y-68909523D02*
X72650057Y-68861904D01*
X72650057Y-68861904D02*
X72745295Y-68814285D01*
X72745295Y-68814285D02*
X72792914Y-68814285D01*
X72792914Y-68814285D02*
X72888152Y-68861904D01*
X72888152Y-68861904D02*
X72935771Y-68909523D01*
X72935771Y-68909523D02*
X72983390Y-69004761D01*
X72983390Y-69004761D02*
X72983390Y-69195237D01*
X72983390Y-69195237D02*
X73031009Y-69290475D01*
X73031009Y-69290475D02*
X73078628Y-69338094D01*
X73078628Y-69338094D02*
X73173866Y-69385713D01*
X73173866Y-69385713D02*
X73364342Y-69385713D01*
X73364342Y-69385713D02*
X73459580Y-69338094D01*
X73459580Y-69338094D02*
X73507200Y-69290475D01*
X73507200Y-69290475D02*
X73554819Y-69195237D01*
X73554819Y-69195237D02*
X73554819Y-69004761D01*
X73554819Y-69004761D02*
X73507200Y-68909523D01*
X73507200Y-68909523D02*
X73459580Y-68861904D01*
X73459580Y-68861904D02*
X73364342Y-68814285D01*
X73364342Y-68814285D02*
X73173866Y-68814285D01*
X73173866Y-68814285D02*
X73078628Y-68861904D01*
X73078628Y-68861904D02*
X73031009Y-68909523D01*
X73031009Y-68909523D02*
X72983390Y-69004761D01*
D10*
X80419283Y-59016666D02*
X80085950Y-59249999D01*
X80419283Y-59416666D02*
X79719283Y-59416666D01*
X79719283Y-59416666D02*
X79719283Y-59149999D01*
X79719283Y-59149999D02*
X79752616Y-59083333D01*
X79752616Y-59083333D02*
X79785950Y-59049999D01*
X79785950Y-59049999D02*
X79852616Y-59016666D01*
X79852616Y-59016666D02*
X79952616Y-59016666D01*
X79952616Y-59016666D02*
X80019283Y-59049999D01*
X80019283Y-59049999D02*
X80052616Y-59083333D01*
X80052616Y-59083333D02*
X80085950Y-59149999D01*
X80085950Y-59149999D02*
X80085950Y-59416666D01*
X79719283Y-58416666D02*
X79719283Y-58549999D01*
X79719283Y-58549999D02*
X79752616Y-58616666D01*
X79752616Y-58616666D02*
X79785950Y-58649999D01*
X79785950Y-58649999D02*
X79885950Y-58716666D01*
X79885950Y-58716666D02*
X80019283Y-58749999D01*
X80019283Y-58749999D02*
X80285950Y-58749999D01*
X80285950Y-58749999D02*
X80352616Y-58716666D01*
X80352616Y-58716666D02*
X80385950Y-58683333D01*
X80385950Y-58683333D02*
X80419283Y-58616666D01*
X80419283Y-58616666D02*
X80419283Y-58483333D01*
X80419283Y-58483333D02*
X80385950Y-58416666D01*
X80385950Y-58416666D02*
X80352616Y-58383333D01*
X80352616Y-58383333D02*
X80285950Y-58349999D01*
X80285950Y-58349999D02*
X80119283Y-58349999D01*
X80119283Y-58349999D02*
X80052616Y-58383333D01*
X80052616Y-58383333D02*
X80019283Y-58416666D01*
X80019283Y-58416666D02*
X79985950Y-58483333D01*
X79985950Y-58483333D02*
X79985950Y-58616666D01*
X79985950Y-58616666D02*
X80019283Y-58683333D01*
X80019283Y-58683333D02*
X80052616Y-58716666D01*
X80052616Y-58716666D02*
X80119283Y-58749999D01*
D11*
X95254819Y-79961904D02*
X96064342Y-79961904D01*
X96064342Y-79961904D02*
X96159580Y-79914285D01*
X96159580Y-79914285D02*
X96207200Y-79866666D01*
X96207200Y-79866666D02*
X96254819Y-79771428D01*
X96254819Y-79771428D02*
X96254819Y-79580952D01*
X96254819Y-79580952D02*
X96207200Y-79485714D01*
X96207200Y-79485714D02*
X96159580Y-79438095D01*
X96159580Y-79438095D02*
X96064342Y-79390476D01*
X96064342Y-79390476D02*
X95254819Y-79390476D01*
X95254819Y-79009523D02*
X95254819Y-78390476D01*
X95254819Y-78390476D02*
X95635771Y-78723809D01*
X95635771Y-78723809D02*
X95635771Y-78580952D01*
X95635771Y-78580952D02*
X95683390Y-78485714D01*
X95683390Y-78485714D02*
X95731009Y-78438095D01*
X95731009Y-78438095D02*
X95826247Y-78390476D01*
X95826247Y-78390476D02*
X96064342Y-78390476D01*
X96064342Y-78390476D02*
X96159580Y-78438095D01*
X96159580Y-78438095D02*
X96207200Y-78485714D01*
X96207200Y-78485714D02*
X96254819Y-78580952D01*
X96254819Y-78580952D02*
X96254819Y-78866666D01*
X96254819Y-78866666D02*
X96207200Y-78961904D01*
X96207200Y-78961904D02*
X96159580Y-79009523D01*
X88866666Y-51054819D02*
X88866666Y-51769104D01*
X88866666Y-51769104D02*
X88819047Y-51911961D01*
X88819047Y-51911961D02*
X88723809Y-52007200D01*
X88723809Y-52007200D02*
X88580952Y-52054819D01*
X88580952Y-52054819D02*
X88485714Y-52054819D01*
X89295238Y-51150057D02*
X89342857Y-51102438D01*
X89342857Y-51102438D02*
X89438095Y-51054819D01*
X89438095Y-51054819D02*
X89676190Y-51054819D01*
X89676190Y-51054819D02*
X89771428Y-51102438D01*
X89771428Y-51102438D02*
X89819047Y-51150057D01*
X89819047Y-51150057D02*
X89866666Y-51245295D01*
X89866666Y-51245295D02*
X89866666Y-51340533D01*
X89866666Y-51340533D02*
X89819047Y-51483390D01*
X89819047Y-51483390D02*
X89247619Y-52054819D01*
X89247619Y-52054819D02*
X89866666Y-52054819D01*
D12*
X93133333Y-78745847D02*
X92866667Y-78745847D01*
X92866667Y-79164895D02*
X92866667Y-78364895D01*
X92866667Y-78364895D02*
X93247619Y-78364895D01*
X93971428Y-79164895D02*
X93514285Y-79164895D01*
X93742857Y-79164895D02*
X93742857Y-78364895D01*
X93742857Y-78364895D02*
X93666666Y-78479180D01*
X93666666Y-78479180D02*
X93590476Y-78555371D01*
X93590476Y-78555371D02*
X93514285Y-78593466D01*
D11*
X68566667Y-78707200D02*
X68709524Y-78754819D01*
X68709524Y-78754819D02*
X68947619Y-78754819D01*
X68947619Y-78754819D02*
X69042857Y-78707200D01*
X69042857Y-78707200D02*
X69090476Y-78659580D01*
X69090476Y-78659580D02*
X69138095Y-78564342D01*
X69138095Y-78564342D02*
X69138095Y-78469104D01*
X69138095Y-78469104D02*
X69090476Y-78373866D01*
X69090476Y-78373866D02*
X69042857Y-78326247D01*
X69042857Y-78326247D02*
X68947619Y-78278628D01*
X68947619Y-78278628D02*
X68757143Y-78231009D01*
X68757143Y-78231009D02*
X68661905Y-78183390D01*
X68661905Y-78183390D02*
X68614286Y-78135771D01*
X68614286Y-78135771D02*
X68566667Y-78040533D01*
X68566667Y-78040533D02*
X68566667Y-77945295D01*
X68566667Y-77945295D02*
X68614286Y-77850057D01*
X68614286Y-77850057D02*
X68661905Y-77802438D01*
X68661905Y-77802438D02*
X68757143Y-77754819D01*
X68757143Y-77754819D02*
X68995238Y-77754819D01*
X68995238Y-77754819D02*
X69138095Y-77802438D01*
X69471429Y-77754819D02*
X69709524Y-78754819D01*
X69709524Y-78754819D02*
X69900000Y-78040533D01*
X69900000Y-78040533D02*
X70090476Y-78754819D01*
X70090476Y-78754819D02*
X70328572Y-77754819D01*
X71233333Y-78754819D02*
X70661905Y-78754819D01*
X70947619Y-78754819D02*
X70947619Y-77754819D01*
X70947619Y-77754819D02*
X70852381Y-77897676D01*
X70852381Y-77897676D02*
X70757143Y-77992914D01*
X70757143Y-77992914D02*
X70661905Y-78040533D01*
X85257142Y-76559580D02*
X85209523Y-76607200D01*
X85209523Y-76607200D02*
X85066666Y-76654819D01*
X85066666Y-76654819D02*
X84971428Y-76654819D01*
X84971428Y-76654819D02*
X84828571Y-76607200D01*
X84828571Y-76607200D02*
X84733333Y-76511961D01*
X84733333Y-76511961D02*
X84685714Y-76416723D01*
X84685714Y-76416723D02*
X84638095Y-76226247D01*
X84638095Y-76226247D02*
X84638095Y-76083390D01*
X84638095Y-76083390D02*
X84685714Y-75892914D01*
X84685714Y-75892914D02*
X84733333Y-75797676D01*
X84733333Y-75797676D02*
X84828571Y-75702438D01*
X84828571Y-75702438D02*
X84971428Y-75654819D01*
X84971428Y-75654819D02*
X85066666Y-75654819D01*
X85066666Y-75654819D02*
X85209523Y-75702438D01*
X85209523Y-75702438D02*
X85257142Y-75750057D01*
X86209523Y-76654819D02*
X85638095Y-76654819D01*
X85923809Y-76654819D02*
X85923809Y-75654819D01*
X85923809Y-75654819D02*
X85828571Y-75797676D01*
X85828571Y-75797676D02*
X85733333Y-75892914D01*
X85733333Y-75892914D02*
X85638095Y-75940533D01*
X87066666Y-75654819D02*
X86876190Y-75654819D01*
X86876190Y-75654819D02*
X86780952Y-75702438D01*
X86780952Y-75702438D02*
X86733333Y-75750057D01*
X86733333Y-75750057D02*
X86638095Y-75892914D01*
X86638095Y-75892914D02*
X86590476Y-76083390D01*
X86590476Y-76083390D02*
X86590476Y-76464342D01*
X86590476Y-76464342D02*
X86638095Y-76559580D01*
X86638095Y-76559580D02*
X86685714Y-76607200D01*
X86685714Y-76607200D02*
X86780952Y-76654819D01*
X86780952Y-76654819D02*
X86971428Y-76654819D01*
X86971428Y-76654819D02*
X87066666Y-76607200D01*
X87066666Y-76607200D02*
X87114285Y-76559580D01*
X87114285Y-76559580D02*
X87161904Y-76464342D01*
X87161904Y-76464342D02*
X87161904Y-76226247D01*
X87161904Y-76226247D02*
X87114285Y-76131009D01*
X87114285Y-76131009D02*
X87066666Y-76083390D01*
X87066666Y-76083390D02*
X86971428Y-76035771D01*
X86971428Y-76035771D02*
X86780952Y-76035771D01*
X86780952Y-76035771D02*
X86685714Y-76083390D01*
X86685714Y-76083390D02*
X86638095Y-76131009D01*
X86638095Y-76131009D02*
X86590476Y-76226247D01*
D13*
X93857142Y-75660880D02*
X93809523Y-75708500D01*
X93809523Y-75708500D02*
X93666666Y-75756119D01*
X93666666Y-75756119D02*
X93571428Y-75756119D01*
X93571428Y-75756119D02*
X93428571Y-75708500D01*
X93428571Y-75708500D02*
X93333333Y-75613261D01*
X93333333Y-75613261D02*
X93285714Y-75518023D01*
X93285714Y-75518023D02*
X93238095Y-75327547D01*
X93238095Y-75327547D02*
X93238095Y-75184690D01*
X93238095Y-75184690D02*
X93285714Y-74994214D01*
X93285714Y-74994214D02*
X93333333Y-74898976D01*
X93333333Y-74898976D02*
X93428571Y-74803738D01*
X93428571Y-74803738D02*
X93571428Y-74756119D01*
X93571428Y-74756119D02*
X93666666Y-74756119D01*
X93666666Y-74756119D02*
X93809523Y-74803738D01*
X93809523Y-74803738D02*
X93857142Y-74851357D01*
X94809523Y-75756119D02*
X94238095Y-75756119D01*
X94523809Y-75756119D02*
X94523809Y-74756119D01*
X94523809Y-74756119D02*
X94428571Y-74898976D01*
X94428571Y-74898976D02*
X94333333Y-74994214D01*
X94333333Y-74994214D02*
X94238095Y-75041833D01*
X95761904Y-75756119D02*
X95190476Y-75756119D01*
X95476190Y-75756119D02*
X95476190Y-74756119D01*
X95476190Y-74756119D02*
X95380952Y-74898976D01*
X95380952Y-74898976D02*
X95285714Y-74994214D01*
X95285714Y-74994214D02*
X95190476Y-75041833D01*
D11*
X83438095Y-58454819D02*
X83438095Y-59264342D01*
X83438095Y-59264342D02*
X83485714Y-59359580D01*
X83485714Y-59359580D02*
X83533333Y-59407200D01*
X83533333Y-59407200D02*
X83628571Y-59454819D01*
X83628571Y-59454819D02*
X83819047Y-59454819D01*
X83819047Y-59454819D02*
X83914285Y-59407200D01*
X83914285Y-59407200D02*
X83961904Y-59359580D01*
X83961904Y-59359580D02*
X84009523Y-59264342D01*
X84009523Y-59264342D02*
X84009523Y-58454819D01*
X85009523Y-59454819D02*
X84438095Y-59454819D01*
X84723809Y-59454819D02*
X84723809Y-58454819D01*
X84723809Y-58454819D02*
X84628571Y-58597676D01*
X84628571Y-58597676D02*
X84533333Y-58692914D01*
X84533333Y-58692914D02*
X84438095Y-58740533D01*
D10*
X75792616Y-61716666D02*
X75825950Y-61749999D01*
X75825950Y-61749999D02*
X75859283Y-61849999D01*
X75859283Y-61849999D02*
X75859283Y-61916666D01*
X75859283Y-61916666D02*
X75825950Y-62016666D01*
X75825950Y-62016666D02*
X75759283Y-62083333D01*
X75759283Y-62083333D02*
X75692616Y-62116666D01*
X75692616Y-62116666D02*
X75559283Y-62149999D01*
X75559283Y-62149999D02*
X75459283Y-62149999D01*
X75459283Y-62149999D02*
X75325950Y-62116666D01*
X75325950Y-62116666D02*
X75259283Y-62083333D01*
X75259283Y-62083333D02*
X75192616Y-62016666D01*
X75192616Y-62016666D02*
X75159283Y-61916666D01*
X75159283Y-61916666D02*
X75159283Y-61849999D01*
X75159283Y-61849999D02*
X75192616Y-61749999D01*
X75192616Y-61749999D02*
X75225950Y-61716666D01*
X75859283Y-61049999D02*
X75859283Y-61449999D01*
X75859283Y-61249999D02*
X75159283Y-61249999D01*
X75159283Y-61249999D02*
X75259283Y-61316666D01*
X75259283Y-61316666D02*
X75325950Y-61383333D01*
X75325950Y-61383333D02*
X75359283Y-61449999D01*
D11*
X70923809Y-67178628D02*
X70923809Y-67654819D01*
X70590476Y-66654819D02*
X70923809Y-67178628D01*
X70923809Y-67178628D02*
X71257142Y-66654819D01*
X72114285Y-67654819D02*
X71542857Y-67654819D01*
X71828571Y-67654819D02*
X71828571Y-66654819D01*
X71828571Y-66654819D02*
X71733333Y-66797676D01*
X71733333Y-66797676D02*
X71638095Y-66892914D01*
X71638095Y-66892914D02*
X71542857Y-66940533D01*
D10*
X76452616Y-67050000D02*
X76485950Y-67083333D01*
X76485950Y-67083333D02*
X76519283Y-67183333D01*
X76519283Y-67183333D02*
X76519283Y-67250000D01*
X76519283Y-67250000D02*
X76485950Y-67350000D01*
X76485950Y-67350000D02*
X76419283Y-67416667D01*
X76419283Y-67416667D02*
X76352616Y-67450000D01*
X76352616Y-67450000D02*
X76219283Y-67483333D01*
X76219283Y-67483333D02*
X76119283Y-67483333D01*
X76119283Y-67483333D02*
X75985950Y-67450000D01*
X75985950Y-67450000D02*
X75919283Y-67416667D01*
X75919283Y-67416667D02*
X75852616Y-67350000D01*
X75852616Y-67350000D02*
X75819283Y-67250000D01*
X75819283Y-67250000D02*
X75819283Y-67183333D01*
X75819283Y-67183333D02*
X75852616Y-67083333D01*
X75852616Y-67083333D02*
X75885950Y-67050000D01*
X76519283Y-66383333D02*
X76519283Y-66783333D01*
X76519283Y-66583333D02*
X75819283Y-66583333D01*
X75819283Y-66583333D02*
X75919283Y-66650000D01*
X75919283Y-66650000D02*
X75985950Y-66716667D01*
X75985950Y-66716667D02*
X76019283Y-66783333D01*
X75819283Y-66150000D02*
X75819283Y-65716666D01*
X75819283Y-65716666D02*
X76085950Y-65950000D01*
X76085950Y-65950000D02*
X76085950Y-65850000D01*
X76085950Y-65850000D02*
X76119283Y-65783333D01*
X76119283Y-65783333D02*
X76152616Y-65750000D01*
X76152616Y-65750000D02*
X76219283Y-65716666D01*
X76219283Y-65716666D02*
X76385950Y-65716666D01*
X76385950Y-65716666D02*
X76452616Y-65750000D01*
X76452616Y-65750000D02*
X76485950Y-65783333D01*
X76485950Y-65783333D02*
X76519283Y-65850000D01*
X76519283Y-65850000D02*
X76519283Y-66050000D01*
X76519283Y-66050000D02*
X76485950Y-66116666D01*
X76485950Y-66116666D02*
X76452616Y-66150000D01*
X70549999Y-68852616D02*
X70516666Y-68885950D01*
X70516666Y-68885950D02*
X70416666Y-68919283D01*
X70416666Y-68919283D02*
X70349999Y-68919283D01*
X70349999Y-68919283D02*
X70249999Y-68885950D01*
X70249999Y-68885950D02*
X70183333Y-68819283D01*
X70183333Y-68819283D02*
X70149999Y-68752616D01*
X70149999Y-68752616D02*
X70116666Y-68619283D01*
X70116666Y-68619283D02*
X70116666Y-68519283D01*
X70116666Y-68519283D02*
X70149999Y-68385950D01*
X70149999Y-68385950D02*
X70183333Y-68319283D01*
X70183333Y-68319283D02*
X70249999Y-68252616D01*
X70249999Y-68252616D02*
X70349999Y-68219283D01*
X70349999Y-68219283D02*
X70416666Y-68219283D01*
X70416666Y-68219283D02*
X70516666Y-68252616D01*
X70516666Y-68252616D02*
X70549999Y-68285950D01*
X71216666Y-68919283D02*
X70816666Y-68919283D01*
X71016666Y-68919283D02*
X71016666Y-68219283D01*
X71016666Y-68219283D02*
X70949999Y-68319283D01*
X70949999Y-68319283D02*
X70883333Y-68385950D01*
X70883333Y-68385950D02*
X70816666Y-68419283D01*
X71850000Y-68219283D02*
X71516666Y-68219283D01*
X71516666Y-68219283D02*
X71483333Y-68552616D01*
X71483333Y-68552616D02*
X71516666Y-68519283D01*
X71516666Y-68519283D02*
X71583333Y-68485950D01*
X71583333Y-68485950D02*
X71750000Y-68485950D01*
X71750000Y-68485950D02*
X71816666Y-68519283D01*
X71816666Y-68519283D02*
X71850000Y-68552616D01*
X71850000Y-68552616D02*
X71883333Y-68619283D01*
X71883333Y-68619283D02*
X71883333Y-68785950D01*
X71883333Y-68785950D02*
X71850000Y-68852616D01*
X71850000Y-68852616D02*
X71816666Y-68885950D01*
X71816666Y-68885950D02*
X71750000Y-68919283D01*
X71750000Y-68919283D02*
X71583333Y-68919283D01*
X71583333Y-68919283D02*
X71516666Y-68885950D01*
X71516666Y-68885950D02*
X71483333Y-68852616D01*
D14*
%TO.C,C2*%
X81207836Y-73740000D02*
X80992164Y-73740000D01*
X81207836Y-74460000D02*
X80992164Y-74460000D01*
%TO.C,R4*%
X84553641Y-56620000D02*
X84246359Y-56620000D01*
X84553641Y-57380000D02*
X84246359Y-57380000D01*
%TO.C,C5*%
X93490000Y-62859420D02*
X93490000Y-63140580D01*
X94510000Y-62859420D02*
X94510000Y-63140580D01*
%TO.C,C10*%
X77665000Y-80661252D02*
X77665000Y-80138748D01*
X79135000Y-80661252D02*
X79135000Y-80138748D01*
%TO.C,C14*%
X77740000Y-49692164D02*
X77740000Y-49907836D01*
X78460000Y-49692164D02*
X78460000Y-49907836D01*
%TO.C,J3*%
X76610000Y-55780000D02*
X76610000Y-54400000D01*
X77990000Y-55780000D02*
X76610000Y-55780000D01*
X79260000Y-53020000D02*
X86990000Y-53020000D01*
X79260000Y-55780000D02*
X79260000Y-53020000D01*
X79260000Y-55780000D02*
X86990000Y-55780000D01*
X86990000Y-55780000D02*
X86990000Y-53020000D01*
%TO.C,U2*%
X80590000Y-81890000D02*
X81850000Y-81890000D01*
X80590000Y-85650000D02*
X80590000Y-81890000D01*
X87410000Y-81890000D02*
X86150000Y-81890000D01*
X87410000Y-85650000D02*
X87410000Y-81890000D01*
X80690000Y-86930000D02*
X80360000Y-87170000D01*
X80360000Y-86690000D01*
X80690000Y-86930000D01*
G36*
X80690000Y-86930000D02*
G01*
X80360000Y-87170000D01*
X80360000Y-86690000D01*
X80690000Y-86930000D01*
G37*
%TO.C,J5*%
X102320000Y-74710000D02*
X102320000Y-66980000D01*
X105080000Y-66980000D02*
X102320000Y-66980000D01*
X105080000Y-74710000D02*
X102320000Y-74710000D01*
X105080000Y-74710000D02*
X105080000Y-66980000D01*
X105080000Y-75980000D02*
X105080000Y-77360000D01*
X105080000Y-77360000D02*
X103700000Y-77360000D01*
%TO.C,FB1*%
X74762779Y-71890000D02*
X74437221Y-71890000D01*
X74762779Y-72910000D02*
X74437221Y-72910000D01*
%TO.C,C6*%
X76140000Y-69207836D02*
X76140000Y-68992164D01*
X76860000Y-69207836D02*
X76860000Y-68992164D01*
%TO.C,R7*%
X70646359Y-71920000D02*
X70953641Y-71920000D01*
X70646359Y-72680000D02*
X70953641Y-72680000D01*
%TO.C,C9*%
X77959420Y-72690000D02*
X78240580Y-72690000D01*
X77959420Y-73710000D02*
X78240580Y-73710000D01*
%TO.C,J4*%
X102245000Y-52340000D02*
X103625000Y-52340000D01*
X102245000Y-53720000D02*
X102245000Y-52340000D01*
X102245000Y-54990000D02*
X102245000Y-65260000D01*
X102245000Y-54990000D02*
X104895000Y-54990000D01*
X102245000Y-65260000D02*
X107545000Y-65260000D01*
X104895000Y-52340000D02*
X107545000Y-52340000D01*
X104895000Y-54990000D02*
X104895000Y-52340000D01*
X107545000Y-52340000D02*
X107545000Y-65260000D01*
%TO.C,J1*%
X93930000Y-86390000D02*
X93930000Y-84690000D01*
X103270000Y-86390000D02*
X103270000Y-84690000D01*
%TO.C,D1*%
X72265000Y-85090000D02*
X72265000Y-87375000D01*
X72265000Y-87375000D02*
X73735000Y-87375000D01*
X73735000Y-87375000D02*
X73735000Y-85090000D01*
%TO.C,R1*%
X72620000Y-82636359D02*
X72620000Y-82943641D01*
X73380000Y-82636359D02*
X73380000Y-82943641D01*
%TO.C,C12*%
X75540000Y-63892164D02*
X75540000Y-64107836D01*
X76260000Y-63892164D02*
X76260000Y-64107836D01*
%TO.C,R3*%
X108220000Y-83353641D02*
X108220000Y-83046359D01*
X108980000Y-83353641D02*
X108980000Y-83046359D01*
%TO.C,R5*%
X81046359Y-56620000D02*
X81353641Y-56620000D01*
X81046359Y-57380000D02*
X81353641Y-57380000D01*
%TO.C,U4*%
X82900000Y-47590000D02*
X79900000Y-47590000D01*
X82900000Y-50810000D02*
X79900000Y-50810000D01*
X83410000Y-51040000D02*
X83410000Y-50560000D01*
X83890000Y-50560000D01*
X83410000Y-51040000D01*
G36*
X83410000Y-51040000D02*
G01*
X83410000Y-50560000D01*
X83890000Y-50560000D01*
X83410000Y-51040000D01*
G37*
%TO.C,C7*%
X89790000Y-86940580D02*
X89790000Y-86659420D01*
X90810000Y-86940580D02*
X90810000Y-86659420D01*
%TO.C,U5*%
X110742500Y-53840000D02*
X110742500Y-58840000D01*
X111122500Y-46830000D02*
X178562500Y-46830000D01*
X111122500Y-87170000D02*
X111122500Y-46830000D01*
X118742500Y-48840000D02*
X170742500Y-48840000D01*
X118742500Y-84840000D02*
X118742500Y-48840000D01*
X170742500Y-48840000D02*
X170742500Y-84840000D01*
X170742500Y-84840000D02*
X118742500Y-84840000D01*
X178562500Y-46830000D02*
X178562500Y-87170000D01*
X178562500Y-87170000D02*
X111122500Y-87170000D01*
%TO.C,FB2*%
X90137221Y-79390000D02*
X90462779Y-79390000D01*
X90137221Y-80410000D02*
X90462779Y-80410000D01*
%TO.C,C3*%
X88492164Y-73640000D02*
X88707836Y-73640000D01*
X88492164Y-74360000D02*
X88707836Y-74360000D01*
%TO.C,R2*%
X105620000Y-83353641D02*
X105620000Y-83046359D01*
X106380000Y-83353641D02*
X106380000Y-83046359D01*
%TO.C,C4*%
X91640000Y-62992164D02*
X91640000Y-63207836D01*
X92360000Y-62992164D02*
X92360000Y-63207836D01*
%TO.C,C8*%
X73990000Y-69740580D02*
X73990000Y-69459420D01*
X75010000Y-69740580D02*
X75010000Y-69459420D01*
%TO.C,R6*%
X81346359Y-58320000D02*
X81653641Y-58320000D01*
X81346359Y-59080000D02*
X81653641Y-59080000D01*
%TO.C,U3*%
X96840000Y-78100000D02*
X96840000Y-77300000D01*
X96840000Y-78100000D02*
X96840000Y-78900000D01*
X99960000Y-78100000D02*
X99960000Y-77300000D01*
X99960000Y-78100000D02*
X99960000Y-78900000D01*
X96890000Y-79400000D02*
X96560000Y-79640000D01*
X96560000Y-79160000D01*
X96890000Y-79400000D01*
G36*
X96890000Y-79400000D02*
G01*
X96560000Y-79640000D01*
X96560000Y-79160000D01*
X96890000Y-79400000D01*
G37*
%TO.C,J2*%
X88720000Y-52720000D02*
X88720000Y-55480000D01*
X96450000Y-52720000D02*
X88720000Y-52720000D01*
X96450000Y-52720000D02*
X96450000Y-55480000D01*
X96450000Y-55480000D02*
X88720000Y-55480000D01*
X97720000Y-52720000D02*
X99100000Y-52720000D01*
X99100000Y-52720000D02*
X99100000Y-54100000D01*
%TO.C,SW1*%
X67830000Y-74430000D02*
X71970000Y-74430000D01*
X67830000Y-74730000D02*
X67830000Y-74430000D01*
X67830000Y-77570000D02*
X67830000Y-77270000D01*
X71970000Y-74430000D02*
X71970000Y-74730000D01*
X71970000Y-77270000D02*
X71970000Y-77570000D01*
X71970000Y-77570000D02*
X67830000Y-77570000D01*
%TO.C,C16*%
X85759420Y-73790000D02*
X86040580Y-73790000D01*
X85759420Y-74810000D02*
X86040580Y-74810000D01*
%TO.C,C11*%
X94761252Y-76265000D02*
X94238748Y-76265000D01*
X94761252Y-77735000D02*
X94238748Y-77735000D01*
%TO.C,U1*%
X79090000Y-61290000D02*
X79090000Y-62240000D01*
X79090000Y-71510000D02*
X79090000Y-70560000D01*
X80040000Y-61290000D02*
X79090000Y-61290000D01*
X80040000Y-71510000D02*
X79090000Y-71510000D01*
X88360000Y-61290000D02*
X89310000Y-61290000D01*
X88360000Y-71510000D02*
X89310000Y-71510000D01*
X89310000Y-61290000D02*
X89310000Y-62240000D01*
X89310000Y-71510000D02*
X89310000Y-70560000D01*
X78475000Y-62240000D02*
X78135000Y-61770000D01*
X78815000Y-61770000D01*
X78475000Y-62240000D01*
G36*
X78475000Y-62240000D02*
G01*
X78135000Y-61770000D01*
X78815000Y-61770000D01*
X78475000Y-62240000D01*
G37*
%TO.C,C1*%
X76340000Y-61707836D02*
X76340000Y-61492164D01*
X77060000Y-61707836D02*
X77060000Y-61492164D01*
%TO.C,Y1*%
X73460000Y-63040000D02*
X69340000Y-63040000D01*
X73460000Y-66460000D02*
X73460000Y-63040000D01*
%TO.C,C13*%
X74540000Y-66492164D02*
X74540000Y-66707836D01*
X75260000Y-66492164D02*
X75260000Y-66707836D01*
%TO.C,C15*%
X70892164Y-69240000D02*
X71107836Y-69240000D01*
X70892164Y-69960000D02*
X71107836Y-69960000D01*
%TD*%
M02*
