%TF.GenerationSoftware,KiCad,Pcbnew,9.0.4*%
%TF.CreationDate,2025-11-14T09:23:00+05:30*%
%TF.ProjectId,stm32f446re,73746d33-3266-4343-9436-72652e6b6963,rev?*%
%TF.SameCoordinates,Original*%
%TF.FileFunction,Copper,L4,Bot*%
%TF.FilePolarity,Positive*%
%FSLAX46Y46*%
G04 Gerber Fmt 4.6, Leading zero omitted, Abs format (unit mm)*
G04 Created by KiCad (PCBNEW 9.0.4) date 2025-11-14 09:23:00*
%MOMM*%
%LPD*%
G01*
G04 APERTURE LIST*
%TA.AperFunction,ComponentPad*%
%ADD10R,1.700000X1.700000*%
%TD*%
%TA.AperFunction,ComponentPad*%
%ADD11C,1.700000*%
%TD*%
%TA.AperFunction,HeatsinkPad*%
%ADD12O,1.000000X2.100000*%
%TD*%
%TA.AperFunction,HeatsinkPad*%
%ADD13O,1.000000X1.800000*%
%TD*%
%TA.AperFunction,ComponentPad*%
%ADD14C,4.000000*%
%TD*%
%TA.AperFunction,ComponentPad*%
%ADD15R,1.500000X1.500000*%
%TD*%
%TA.AperFunction,ComponentPad*%
%ADD16C,1.500000*%
%TD*%
%TA.AperFunction,ViaPad*%
%ADD17C,0.400000*%
%TD*%
%TA.AperFunction,ViaPad*%
%ADD18C,0.600000*%
%TD*%
%TA.AperFunction,Conductor*%
%ADD19C,0.400000*%
%TD*%
%TA.AperFunction,Conductor*%
%ADD20C,0.300000*%
%TD*%
G04 APERTURE END LIST*
D10*
%TO.P,J3,1,Pin_1*%
%TO.N,+3.3V*%
X77990000Y-54400000D03*
D11*
%TO.P,J3,2,Pin_2*%
%TO.N,/I2C1_SDA*%
X80530000Y-54400000D03*
%TO.P,J3,3,Pin_3*%
%TO.N,/I2C1_SCL*%
X83070000Y-54400000D03*
%TO.P,J3,4,Pin_4*%
%TO.N,GND*%
X85610000Y-54400000D03*
%TD*%
D10*
%TO.P,J5,1,Pin_1*%
%TO.N,+3.3V*%
X103700000Y-75980000D03*
D11*
%TO.P,J5,2,Pin_2*%
%TO.N,/USART6_TX*%
X103700000Y-73440000D03*
%TO.P,J5,3,Pin_3*%
%TO.N,/USART6_RX*%
X103700000Y-70900000D03*
%TO.P,J5,4,Pin_4*%
%TO.N,GND*%
X103700000Y-68360000D03*
%TD*%
D10*
%TO.P,J4,1,Pin_1*%
%TO.N,+3.3V*%
X103625000Y-53720000D03*
D11*
%TO.P,J4,2,Pin_2*%
X106165000Y-53720000D03*
%TO.P,J4,3,Pin_3*%
%TO.N,/SPI3_CS1*%
X103625000Y-56260000D03*
%TO.P,J4,4,Pin_4*%
%TO.N,/SPI3_MOSI*%
X106165000Y-56260000D03*
%TO.P,J4,5,Pin_5*%
%TO.N,unconnected-(J4-Pin_5-Pad5)*%
X103625000Y-58800000D03*
%TO.P,J4,6,Pin_6*%
%TO.N,/SPI3_MISO*%
X106165000Y-58800000D03*
%TO.P,J4,7,Pin_7*%
%TO.N,unconnected-(J4-Pin_7-Pad7)*%
X103625000Y-61340000D03*
%TO.P,J4,8,Pin_8*%
%TO.N,/SPI3_CLK*%
X106165000Y-61340000D03*
%TO.P,J4,9,Pin_9*%
%TO.N,GND*%
X103625000Y-63880000D03*
%TO.P,J4,10,Pin_10*%
X106165000Y-63880000D03*
%TD*%
D12*
%TO.P,J1,S1,SHIELD*%
%TO.N,unconnected-(J1-SHIELD-PadS1)*%
X94280000Y-83385000D03*
D13*
%TO.N,unconnected-(J1-SHIELD-PadS1)_3*%
X94280000Y-87565000D03*
D12*
%TO.N,unconnected-(J1-SHIELD-PadS1)_1*%
X102920000Y-83385000D03*
D13*
%TO.N,unconnected-(J1-SHIELD-PadS1)_2*%
X102920000Y-87565000D03*
%TD*%
D14*
%TO.P,U5,*%
%TO.N,*%
X114242500Y-49950000D03*
X114242500Y-84050000D03*
X175442500Y-49950000D03*
X175442500Y-84050000D03*
D15*
%TO.P,U5,1,VCC*%
%TO.N,+3.3V*%
X112742500Y-56840000D03*
D16*
%TO.P,U5,2,GND*%
%TO.N,GND*%
X112742500Y-59380000D03*
%TO.P,U5,3,~{CS}*%
%TO.N,/SPI3_CS2*%
X112742500Y-61920000D03*
%TO.P,U5,4,RESET*%
%TO.N,/LCD_RESET*%
X112742500Y-64460000D03*
%TO.P,U5,5,D/~{C}*%
%TO.N,/LCD_DC*%
X112742500Y-67000000D03*
%TO.P,U5,6,MOSI*%
%TO.N,/SPI3_MOSI*%
X112742500Y-69540000D03*
%TO.P,U5,7,SCK*%
%TO.N,/SPI3_CLK*%
X112742500Y-72080000D03*
%TO.P,U5,8,LED*%
%TO.N,/TIM1_CH1*%
X112742500Y-74620000D03*
%TO.P,U5,9,MISO*%
%TO.N,/SPI3_MISO*%
X112742500Y-77160000D03*
%TO.P,U5,10,SD_CS*%
%TO.N,unconnected-(U5-SD_CS-Pad10)*%
X176262500Y-61920000D03*
%TO.P,U5,11,SD_MOSI*%
%TO.N,unconnected-(U5-SD_MOSI-Pad11)*%
X176262500Y-64460000D03*
%TO.P,U5,12,SD_MISO*%
%TO.N,unconnected-(U5-SD_MISO-Pad12)*%
X176262500Y-67000000D03*
%TO.P,U5,13,SD_SCK*%
%TO.N,unconnected-(U5-SD_SCK-Pad13)*%
X176262500Y-69540000D03*
%TO.P,U5,14,FLASH_CD*%
%TO.N,unconnected-(U5-FLASH_CD-Pad14)*%
X176262500Y-72080000D03*
%TD*%
D10*
%TO.P,J2,1,Pin_1*%
%TO.N,+3.3V*%
X97720000Y-54100000D03*
D11*
%TO.P,J2,2,Pin_2*%
%TO.N,/SWDIO*%
X95180000Y-54100000D03*
%TO.P,J2,3,Pin_3*%
%TO.N,/SWCLK*%
X92640000Y-54100000D03*
%TO.P,J2,4,Pin_4*%
%TO.N,GND*%
X90100000Y-54100000D03*
%TD*%
D17*
%TO.N,GND*%
X92400000Y-81500000D03*
X78900000Y-58700000D03*
X76700000Y-59000000D03*
X81500000Y-62600000D03*
X74100000Y-65300000D03*
X95800000Y-78600000D03*
X110000000Y-81900000D03*
X81000000Y-70200000D03*
X85600000Y-50700000D03*
X85500000Y-49200000D03*
X66200000Y-76000000D03*
X67600000Y-63900000D03*
X79500000Y-75800000D03*
X80800000Y-68200000D03*
X78600000Y-87000000D03*
X99600000Y-63900000D03*
X74200000Y-64500000D03*
X75100000Y-79500000D03*
X70100000Y-86700000D03*
X87500000Y-70100000D03*
X90700000Y-77000000D03*
X95900000Y-62700000D03*
X89100000Y-72700000D03*
X99800000Y-65700000D03*
X90300000Y-83800000D03*
X109600000Y-54400000D03*
X75400000Y-50300000D03*
X72500000Y-70900000D03*
X77000000Y-67600000D03*
D18*
X90100000Y-50700000D03*
D17*
X73700000Y-67200000D03*
X102500000Y-81300000D03*
X88000000Y-63200000D03*
X69100000Y-69600000D03*
X85120000Y-75090000D03*
X78000000Y-71700000D03*
%TO.N,+3.3V*%
X109900000Y-51000000D03*
X74500000Y-62100000D03*
X81600000Y-75900000D03*
X110600000Y-54400000D03*
X73000000Y-54500000D03*
X69000000Y-72300000D03*
X84000000Y-78400000D03*
X75400000Y-49300000D03*
X108200000Y-79700000D03*
X96200000Y-61600000D03*
X78100000Y-57000000D03*
X76300000Y-75300000D03*
X73000000Y-79600000D03*
X85600000Y-58100000D03*
X78900000Y-59500000D03*
X80500000Y-62600000D03*
X75000000Y-81300000D03*
X88120000Y-74500000D03*
X97700000Y-50900000D03*
X73800000Y-75200000D03*
%TO.N,VBUS*%
X89200000Y-83700000D03*
X88200000Y-83700000D03*
%TO.N,+5V*%
X94100000Y-78700000D03*
X87700000Y-78400000D03*
X100800000Y-81000000D03*
%TO.N,Net-(F1-Pad2)*%
X99900000Y-81400000D03*
X97100000Y-81500000D03*
D18*
%TO.N,/SWDIO*%
X91200000Y-63300000D03*
%TO.N,/SWCLK*%
X91200000Y-59650000D03*
%TO.N,/I2C1_SCL*%
X80300000Y-51800000D03*
%TO.N,/SPI3_CS1*%
X93300000Y-66300000D03*
%TO.N,/USART6_RX*%
X94800000Y-67700000D03*
%TO.N,/USART6_TX*%
X94600000Y-68500000D03*
%TO.N,/TIM1_CH1*%
X97300000Y-72700000D03*
%TO.N,/LCD_DC*%
X94600000Y-71200000D03*
%TO.N,/LCD_RESET*%
X94600000Y-70100000D03*
%TO.N,/SPI3_CS2*%
X91990380Y-66500000D03*
%TD*%
D19*
%TO.N,Net-(F1-Pad2)*%
X97200000Y-81400000D02*
X97100000Y-81500000D01*
X99900000Y-81400000D02*
X97200000Y-81400000D01*
D20*
%TO.N,/SWDIO*%
X91200000Y-63300000D02*
X93800000Y-60700000D01*
X93800000Y-55480000D02*
X95180000Y-54100000D01*
X93800000Y-60700000D02*
X93800000Y-55480000D01*
%TO.N,/SWCLK*%
X91200000Y-55540000D02*
X92640000Y-54100000D01*
X91200000Y-59650000D02*
X91200000Y-55540000D01*
%TO.N,/I2C1_SCL*%
X83070000Y-53170000D02*
X83070000Y-54400000D01*
X80300000Y-51800000D02*
X81700000Y-51800000D01*
X81700000Y-51800000D02*
X83070000Y-53170000D01*
%TO.N,/SPI3_CS1*%
X100900000Y-57700000D02*
X102200000Y-56400000D01*
X93300000Y-66300000D02*
X100900000Y-58700000D01*
X100900000Y-58700000D02*
X100900000Y-57700000D01*
X103485000Y-56400000D02*
X103625000Y-56260000D01*
X102200000Y-56400000D02*
X103485000Y-56400000D01*
%TO.N,/USART6_RX*%
X94800000Y-67700000D02*
X95000000Y-67900000D01*
X95000000Y-67900000D02*
X100700000Y-67900000D01*
X100700000Y-67900000D02*
X103700000Y-70900000D01*
%TO.N,/USART6_TX*%
X94600000Y-68500000D02*
X100500000Y-68500000D01*
X100500000Y-68500000D02*
X100500000Y-70240000D01*
X100500000Y-70240000D02*
X103700000Y-73440000D01*
%TO.N,/TIM1_CH1*%
X108400000Y-76400000D02*
X110000000Y-76400000D01*
X111200000Y-75200000D02*
X111200000Y-74900000D01*
X112722500Y-74600000D02*
X112742500Y-74620000D01*
X105800000Y-80500000D02*
X106100000Y-80500000D01*
X111200000Y-74900000D02*
X112462500Y-74900000D01*
X110000000Y-76400000D02*
X111200000Y-75200000D01*
X97300000Y-72700000D02*
X97300000Y-76400000D01*
X105800000Y-80500000D02*
X106000000Y-80500000D01*
X97300000Y-76400000D02*
X101400000Y-80500000D01*
X108400000Y-78200000D02*
X108400000Y-76400000D01*
X106100000Y-80500000D02*
X108400000Y-78200000D01*
X101400000Y-80500000D02*
X105800000Y-80500000D01*
X112462500Y-74900000D02*
X112742500Y-74620000D01*
%TO.N,/LCD_DC*%
X109600000Y-68400000D02*
X111000000Y-67000000D01*
X94600000Y-71200000D02*
X98300000Y-71200000D01*
X100400000Y-78300000D02*
X101800000Y-79700000D01*
X100400000Y-73200000D02*
X100400000Y-78300000D01*
X105500000Y-79700000D02*
X107500000Y-77700000D01*
X111000000Y-67000000D02*
X112742500Y-67000000D01*
X107500000Y-68400000D02*
X109600000Y-68400000D01*
X98300000Y-71200000D02*
X100300000Y-73200000D01*
X101800000Y-79700000D02*
X105500000Y-79700000D01*
X107500000Y-77700000D02*
X107500000Y-68400000D01*
X100300000Y-73200000D02*
X100400000Y-73200000D01*
%TO.N,/LCD_RESET*%
X106400000Y-77200000D02*
X106400000Y-67900000D01*
X108200000Y-67300000D02*
X111040000Y-64460000D01*
X107000000Y-67300000D02*
X108200000Y-67300000D01*
X98300000Y-70100000D02*
X101300000Y-73100000D01*
X106400000Y-67900000D02*
X107000000Y-67300000D01*
X111040000Y-64460000D02*
X112742500Y-64460000D01*
X101300000Y-73100000D02*
X101300000Y-77800000D01*
X94600000Y-70100000D02*
X98300000Y-70100000D01*
X102400000Y-78900000D02*
X104700000Y-78900000D01*
X101300000Y-77800000D02*
X102400000Y-78900000D01*
X104700000Y-78900000D02*
X106400000Y-77200000D01*
%TO.N,/SPI3_CS2*%
X111262500Y-63400000D02*
X112742500Y-61920000D01*
X107700000Y-66400000D02*
X110700000Y-63400000D01*
X102000000Y-66400000D02*
X107700000Y-66400000D01*
X91990380Y-66500000D02*
X92490380Y-67000000D01*
X110700000Y-63400000D02*
X111262500Y-63400000D01*
X92490380Y-67000000D02*
X101500000Y-67000000D01*
X102000000Y-66500000D02*
X102000000Y-66400000D01*
X101500000Y-67000000D02*
X102000000Y-66500000D01*
%TD*%
M02*
